<svg version="1.1" xmlns="http://www.w3.org/2000/svg" viewBox="0 0 1096.1084281341177 1039.6557830914462" width="1096.1084281341177" height="1039.6557830914462" filter="invert(93%) hue-rotate(180deg)">
  <!-- svg-source:excalidraw -->
  
  <defs>
    <style class="style-fonts">
      @font-face {
        font-family: "Virgil";
        src: url("https://excalidraw.com/Virgil.woff2");
      }
      @font-face {
        font-family: "Cascadia";
        src: url("https://excalidraw.com/Cascadia.woff2");
      }
    </style>
  </defs>
  <rect x="0" y="0" width="1096.1084281341177" height="1039.6557830914462" fill="#ffffff"></rect><g stroke-linecap="round" transform="translate(217.82802376382017 184.80152845914202) rotate(0 98.5 28)"><path d="M14 0 M14 0 C59.67 -1.81, 104.61 -2.38, 183 0 M14 0 C58.35 -1.29, 103.47 -1.06, 183 0 M183 0 C192.26 0.98, 196.17 4.76, 197 14 M183 0 C190.82 -0.84, 195.85 5.12, 197 14 M197 14 C198.48 23.39, 198.29 30.28, 197 42 M197 14 C196.21 22.75, 197.31 32.9, 197 42 M197 42 C195.36 52.28, 191.07 54.26, 183 56 M197 42 C195.97 51.82, 192.09 54.99, 183 56 M183 56 C141.71 54.88, 95.25 53.68, 14 56 M183 56 C137.44 55.59, 91.92 56.21, 14 56 M14 56 C5.13 55.03, 1.61 52.53, 0 42 M14 56 C6.38 54.3, -0.37 51.37, 0 42 M0 42 C-1.6 38.03, 1.94 29.26, 0 14 M0 42 C-0.25 32.44, -0.11 20.91, 0 14 M0 14 C-0.52 4.15, 5.97 -0.27, 14 0 M0 14 C-0.66 4.85, 2.48 0.79, 14 0" stroke="#000000" stroke-width="1" fill="none"></path></g><g transform="translate(272.82802376382017 199.80152845914202) rotate(0 43.5 13)"><text x="43.5" y="19" font-family="Virgil, Segoe UI Emoji" font-size="20px" fill="#000000" text-anchor="middle" style="white-space: pre;" direction="ltr">empleado</text></g><g stroke-linecap="round" transform="translate(653.3280237638202 185.80152845914202) rotate(0 98.5 28)"><path d="M14 0 M14 0 C59.6 -0.17, 108 2.71, 183 0 M14 0 C49.34 -0.42, 84.53 -1.83, 183 0 M183 0 C193.07 1.37, 196.88 6.21, 197 14 M183 0 C194.37 -2.11, 197.47 4.98, 197 14 M197 14 C196.16 18.52, 198.94 26.35, 197 42 M197 14 C197.96 23.44, 196.2 32.84, 197 42 M197 42 C198.09 49.54, 193.83 54.24, 183 56 M197 42 C199.14 52.36, 192.6 56.86, 183 56 M183 56 C120.18 57.99, 59.45 57.49, 14 56 M183 56 C132.67 56.77, 82.22 57.38, 14 56 M14 56 C6.49 54.23, 1.29 49.56, 0 42 M14 56 C4.32 58.07, -1.62 52.03, 0 42 M0 42 C1.71 34.42, 0.08 29.12, 0 14 M0 42 C0.69 33, -0.01 23.84, 0 14 M0 14 C-0.78 3.16, 2.73 -1.08, 14 0 M0 14 C0.47 4.43, 5.5 -0.62, 14 0" stroke="#000000" stroke-width="1" fill="none"></path></g><g transform="translate(718.3280237638202 200.80152845914202) rotate(0 33.5 13)"><text x="33.5" y="19" font-family="Virgil, Segoe UI Emoji" font-size="20px" fill="#000000" text-anchor="middle" style="white-space: pre;" direction="ltr">puesto</text></g><g stroke-linecap="round" transform="translate(493.7169126527091 177.30152845914202) rotate(0 33.125 33.75)"><path d="M42.5 8.5 M42.5 8.5 C44.76 13.79, 51.36 16.34, 57.75 25.5 M42.5 8.5 C46.14 12.22, 48.72 16.79, 57.75 25.5 M57.75 25.5 C64.9 35.03, 66.43 33.69, 57.75 42.5 M57.75 25.5 C66.21 33.4, 65.94 32.54, 57.75 42.5 M57.75 42.5 C56.03 44.67, 52.49 51.94, 42.5 59 M57.75 42.5 C51.85 48.76, 45.53 55.86, 42.5 59 M42.5 59 C32.66 67.9, 32.94 69.08, 25.5 59 M42.5 59 C32.61 65.44, 34.64 68.6, 25.5 59 M25.5 59 C21.39 54.2, 14.01 47.39, 8.5 42.5 M25.5 59 C18.15 51.89, 12.67 46.61, 8.5 42.5 M8.5 42.5 C0.36 34.72, 0.63 34.26, 8.5 25.5 M8.5 42.5 C0.28 31.82, -0.31 34.75, 8.5 25.5 M8.5 25.5 C13.52 18.96, 20.64 15.15, 25.5 8.5 M8.5 25.5 C15.61 18.58, 22.08 11.12, 25.5 8.5 M25.5 8.5 C32.1 -0.04, 32.5 -1.53, 42.5 8.5 M25.5 8.5 C33.63 -1.77, 33.84 -0.57, 42.5 8.5" stroke="#000000" stroke-width="1" fill="none"></path></g><g stroke-linecap="round"><g transform="translate(421.2169126527091 214.801528459142) rotate(0 37.31198609199376 -0.5723571609705687)"><path d="M0.75 0.23 C13.04 0.19, 62.72 -0.94, 74.94 -1.38 M-0.32 -0.69 C11.71 -0.45, 61.16 0.26, 73.96 0.09" stroke="#000000" stroke-width="1" fill="none"></path></g></g><mask></mask><g stroke-linecap="round"><g transform="translate(557.4669126527091 212.30152845914202) rotate(0 47.983566956594586 -0.2427926359026742)"><path d="M-0.34 0.05 C15.86 -0.2, 80.03 -0.72, 96.3 -0.68 M1.69 -0.97 C17.81 -1.15, 79.48 0.05, 95.38 0.5" stroke="#000000" stroke-width="1" fill="none"></path></g></g><mask></mask><g transform="translate(126.21691265270908 282.801528459142) rotate(0 37 13)"><text x="0" y="19" font-family="Virgil, Segoe UI Emoji" font-size="20px" fill="#000000" text-anchor="start" style="white-space: pre;" direction="ltr">apellido</text></g><g transform="translate(503.7169126527091 306.551528459142) rotate(0 34.5 13)"><text x="0" y="19" font-family="Virgil, Segoe UI Emoji" font-size="20px" fill="#000000" text-anchor="start" style="white-space: pre;" direction="ltr">salario</text></g><g transform="translate(328.7169126527091 322.801528459142) rotate(0 32.5 13)"><text x="0" y="19" font-family="Virgil, Segoe UI Emoji" font-size="20px" fill="#000000" text-anchor="start" style="white-space: pre;" direction="ltr">nombre</text></g><g transform="translate(418.7169126527091 294.051528459142) rotate(0 16.5 13)"><text x="0" y="19" font-family="Virgil, Segoe UI Emoji" font-size="20px" fill="#000000" text-anchor="start" style="white-space: pre;" direction="ltr">nss</text></g><g transform="translate(661.2169126527091 285.301528459142) rotate(0 34.5 13)"><text x="0" y="19" font-family="Virgil, Segoe UI Emoji" font-size="20px" fill="#000000" text-anchor="start" style="white-space: pre;" direction="ltr">salario</text></g><g transform="translate(796.2169126527091 284.051528459142) rotate(0 32.5 13)"><text x="0" y="19" font-family="Virgil, Segoe UI Emoji" font-size="20px" fill="#000000" text-anchor="start" style="white-space: pre;" direction="ltr">nombre</text></g><g stroke-linecap="round" transform="translate(118.71691265270908 272.301528459142) rotate(0 45.625 23.125)"><path d="M24.69 3.48 C32.05 1.37, 43.6 0.55, 52.39 1.05 C61.19 1.55, 71 3.34, 77.47 6.48 C83.94 9.62, 89.59 15.41, 91.21 19.87 C92.84 24.33, 91.47 29.32, 87.2 33.27 C82.93 37.22, 73.8 41.34, 65.59 43.57 C57.38 45.79, 46.74 47.26, 37.95 46.61 C29.15 45.97, 18.96 43.14, 12.82 39.68 C6.68 36.23, 2.43 30.46, 1.12 25.87 C-0.19 21.27, -0.54 16.14, 4.95 12.12 C10.45 8.1, 27.73 3.74, 34.09 1.75 C40.46 -0.24, 42.91 -0.11, 43.13 0.17 M32.91 0.11 C41.14 -1.1, 54.06 0.63, 62.6 2.35 C71.14 4.08, 79.41 6.76, 84.15 10.44 C88.89 14.13, 91.4 19.7, 91.03 24.46 C90.66 29.21, 87.54 35.66, 81.93 38.98 C76.33 42.31, 65.99 43.48, 57.41 44.38 C48.84 45.28, 38.94 45.87, 30.48 44.38 C22.02 42.89, 11.58 39.12, 6.67 35.46 C1.76 31.81, 0.57 27.13, 1.02 22.44 C1.46 17.75, 3.8 11.06, 9.35 7.34 C14.91 3.62, 30.31 1.24, 34.34 0.12 C38.36 -1, 33.48 -0.05, 33.51 0.6" stroke="#000000" stroke-width="1" fill="none"></path></g><g stroke-linecap="round" transform="translate(493.7169126527091 301.051528459142) rotate(0 43.125 22.5)"><path d="M56.95 1.62 C64.92 2.62, 73.96 5.68, 78.9 9.37 C83.83 13.05, 86.9 19.19, 86.55 23.73 C86.21 28.26, 82.11 33.23, 76.83 36.57 C71.56 39.9, 62.89 42.59, 54.89 43.73 C46.89 44.88, 36.72 44.92, 28.86 43.45 C21 41.98, 12.63 38.37, 7.73 34.93 C2.84 31.49, -0.73 27.07, -0.53 22.82 C-0.33 18.58, 3.71 13.03, 8.93 9.46 C14.15 5.89, 21.35 2.5, 30.8 1.38 C40.24 0.26, 58.92 2.02, 65.61 2.75 C72.31 3.49, 71.49 5.46, 70.97 5.81 M35.75 -0.36 C43.98 -1.16, 55.1 0.7, 62.86 2.51 C70.62 4.32, 78.7 6.79, 82.31 10.5 C85.91 14.22, 85.94 20.2, 84.47 24.81 C82.99 29.42, 79.11 34.9, 73.46 38.16 C67.81 41.42, 58.85 43.52, 50.58 44.36 C42.31 45.19, 31.39 44.92, 23.84 43.15 C16.28 41.39, 9.19 37.52, 5.25 33.78 C1.31 30.04, -0.81 25.03, 0.19 20.72 C1.19 16.4, 5.66 11.39, 11.25 7.88 C16.85 4.37, 29.83 0.59, 33.75 -0.34 C37.68 -1.28, 34.38 1.82, 34.78 2.29" stroke="#000000" stroke-width="1" fill="none"></path></g><g stroke-linecap="round" transform="translate(312.4669126527091 311.051528459142) rotate(0 50 26.25)"><path d="M27.1 2.57 C34.4 0.2, 45.44 -0.97, 54.42 -0.48 C63.4 0.01, 73.8 2.53, 80.98 5.52 C88.16 8.51, 94.44 13.05, 97.5 17.47 C100.56 21.89, 101.39 27.57, 99.34 32.04 C97.28 36.51, 91.86 41.02, 85.16 44.29 C78.46 47.57, 67.91 50.6, 59.14 51.7 C50.37 52.79, 40.85 52.69, 32.55 50.85 C24.24 49.01, 14.7 44.52, 9.3 40.65 C3.9 36.79, 0.61 32.16, 0.13 27.65 C-0.36 23.13, 1.64 17.71, 6.39 13.55 C11.15 9.4, 24.27 4.57, 28.65 2.7 C33.03 0.84, 32.22 1.93, 32.68 2.37 M37.26 1.46 C45 -0.45, 54.7 -1.49, 62.93 -0.07 C71.16 1.35, 80.5 6.32, 86.65 10 C92.8 13.69, 98.27 17.59, 99.83 22.04 C101.39 26.5, 100.03 32.58, 96.01 36.73 C91.99 40.89, 83.16 44.52, 75.69 46.96 C68.21 49.4, 59.72 51.2, 51.16 51.37 C42.6 51.55, 32.15 50.27, 24.32 48.01 C16.49 45.75, 7.94 42.02, 4.19 37.8 C0.45 33.58, 0.42 27.23, 1.85 22.69 C3.29 18.14, 7.23 14.27, 12.81 10.52 C18.38 6.76, 31.3 1.63, 35.29 0.14 C39.28 -1.34, 36.48 0.81, 36.75 1.6" stroke="#000000" stroke-width="1" fill="none"></path></g><g stroke-linecap="round" transform="translate(406.2169126527091 279.801528459142) rotate(0 28.125 25.625)"><path d="M29.5 -0.56 C35.23 -0.71, 43.52 3.08, 47.9 7.12 C52.29 11.16, 55.33 18.35, 55.81 23.67 C56.3 29, 54.17 34.51, 50.79 39.07 C47.4 43.63, 41.26 49.41, 35.51 51.03 C29.76 52.66, 21.85 51.24, 16.28 48.81 C10.7 46.39, 4.81 41.5, 2.07 36.48 C-0.67 31.46, -1.81 23.92, -0.18 18.7 C1.44 13.47, 5.39 7.9, 11.82 5.13 C18.24 2.35, 32.82 2.05, 38.35 2.06 C43.88 2.06, 45.4 4.93, 45.02 5.17 M27.05 1.48 C32.99 1.2, 41.64 3.45, 46.27 6.85 C50.9 10.26, 53.85 16.59, 54.83 21.9 C55.81 27.2, 54.81 34.14, 52.14 38.68 C49.47 43.22, 44.58 47.07, 38.81 49.12 C33.04 51.18, 23.19 52.67, 17.54 51.01 C11.89 49.35, 7.55 43.89, 4.92 39.17 C2.29 34.44, 0.76 28.35, 1.76 22.67 C2.76 16.99, 6.36 8.72, 10.92 5.11 C15.47 1.5, 26.27 1.73, 29.09 1.01 C31.91 0.3, 28.05 0.77, 27.84 0.8" stroke="#000000" stroke-width="1" fill="none"></path></g><g stroke-linecap="round" transform="translate(623.7169126527091 267.301528459142) rotate(0 66.25 30.625)"><path d="M63.1 -0.5 C73.81 -1.02, 86.87 1.7, 96.73 3.99 C106.59 6.28, 116.35 8.96, 122.24 13.22 C128.13 17.48, 131.64 24.37, 132.07 29.57 C132.5 34.77, 129.57 40.14, 124.81 44.41 C120.05 48.68, 112.7 52.33, 103.49 55.18 C94.28 58.04, 80.68 61.04, 69.53 61.56 C58.38 62.09, 46.4 60.79, 36.6 58.33 C26.79 55.87, 16.92 51.09, 10.71 46.79 C4.49 42.5, -0.22 37.38, -0.68 32.55 C-1.14 27.72, 3.02 22.51, 7.94 17.79 C12.86 13.08, 18.56 7.37, 28.81 4.25 C39.07 1.14, 61.42 -0.19, 69.48 -0.89 C77.55 -1.59, 77.28 -0.78, 77.21 0.05 M36.97 1.67 C46.12 -1.3, 61.35 -1.82, 72.64 -1.27 C83.93 -0.71, 95.59 1.98, 104.72 4.99 C113.85 8.01, 122.76 12.07, 127.43 16.84 C132.11 21.6, 133.83 28.55, 132.76 33.6 C131.7 38.64, 127.5 43.2, 121.03 47.12 C114.57 51.04, 104.16 54.81, 93.95 57.1 C83.75 59.38, 70.44 60.98, 59.81 60.82 C49.17 60.66, 39.22 59.22, 30.16 56.15 C21.1 53.08, 10.27 47.07, 5.46 42.41 C0.64 37.76, 0.39 33.07, 1.27 28.21 C2.15 23.36, 4.51 17.73, 10.73 13.3 C16.96 8.86, 33.91 3.1, 38.65 1.62 C43.39 0.14, 38.98 3.55, 39.19 4.42" stroke="#000000" stroke-width="1" fill="none"></path></g><g stroke-linecap="round" transform="translate(776.2169126527091 273.551528459142) rotate(0 60 28.125)"><path d="M57.47 0.4 C67.68 -0.43, 80.01 1.15, 89.41 3.53 C98.81 5.92, 108.71 10.35, 113.89 14.7 C119.08 19.05, 121.75 24.53, 120.53 29.65 C119.3 34.77, 113.38 41.3, 106.52 45.42 C99.67 49.55, 89.36 52.76, 79.4 54.39 C69.44 56.02, 57.06 56.24, 46.76 55.21 C36.46 54.18, 25.07 51.92, 17.59 48.22 C10.11 44.52, 4.19 38.03, 1.86 33.01 C-0.47 27.98, -0.15 22.76, 3.6 18.08 C7.35 13.4, 14.49 7.8, 24.35 4.93 C34.21 2.07, 55.68 1.62, 62.76 0.89 C69.84 0.16, 67.09 0.09, 66.81 0.57 M61.18 0.18 C71.54 -0.23, 83.59 1.49, 92.56 4.2 C101.53 6.91, 110.47 11.94, 115 16.45 C119.53 20.96, 121.48 26.35, 119.74 31.27 C118 36.2, 111.79 41.79, 104.54 46.02 C97.3 50.25, 86.85 55.19, 76.3 56.66 C65.75 58.12, 51.74 56.48, 41.25 54.78 C30.75 53.09, 20.29 50.14, 13.3 46.48 C6.32 42.83, 0.8 38.08, -0.67 32.87 C-2.13 27.66, -0.37 20.02, 4.53 15.22 C9.44 10.42, 19.47 6.66, 28.78 4.06 C38.08 1.46, 54.87 0.3, 60.37 -0.36 C65.87 -1.02, 61.59 -0.28, 61.77 0.11" stroke="#000000" stroke-width="1" fill="none"></path></g><g stroke-linecap="round"><g transform="translate(524.9669126527091 241.051528459142) rotate(0 2.9490478100348128 29.115532228602106)"><path d="M-0.22 -1.1 C1.08 8.61, 6.59 48.14, 7.69 58.12 M-1.79 0.94 C-0.62 10.81, 5.09 49.46, 6.84 59.33" stroke="#000000" stroke-width="1" fill="none"></path></g></g><mask></mask><g stroke-linecap="round"><g transform="translate(188.71691265270908 274.801528459142) rotate(0 16.04461954359897 -19.42788222272881)"><path d="M-0.41 -0.98 C4.45 -7.67, 25.05 -33.55, 30.29 -39.98 M1.57 1.13 C6.71 -5.37, 27.73 -31.3, 32.5 -38.43" stroke="#000000" stroke-width="1" fill="none"></path></g></g><mask></mask><g stroke-linecap="round"><g transform="translate(357.4669126527091 308.551528459142) rotate(0 -11.306751253409317 -35.74714482910932)"><path d="M0.67 0.6 C-3.02 -11.22, -18.85 -60.2, -22.82 -72.09 M-0.44 -0.13 C-4.14 -11.72, -19.41 -58.88, -23.28 -71" stroke="#000000" stroke-width="1" fill="none"></path></g></g><mask></mask><g stroke-linecap="round"><g transform="translate(422.4669126527091 284.801528459142) rotate(0 -10.434321157587675 -20.53771009333431)"><path d="M0.87 -0.13 C-2.53 -7.05, -17.36 -34.32, -21.38 -40.94 M-0.13 -1.25 C-3.51 -8.09, -18.31 -33.7, -21.74 -39.9" stroke="#000000" stroke-width="1" fill="none"></path></g></g><mask></mask><g stroke-linecap="round"><g transform="translate(686.2169126527091 266.051528459142) rotate(0 3.4160797644127 -11.818717144802221)"><path d="M0.04 -0.05 C1.6 -3.97, 7.15 -19.76, 8.23 -23.59 M-1.4 -1.12 C0.17 -4.92, 5.96 -19.14, 7.66 -22.63" stroke="#000000" stroke-width="1" fill="none"></path></g></g><mask></mask><g stroke-linecap="round"><g transform="translate(817.4669126527091 276.051528459142) rotate(0 -17.33147926181556 -15.579988689348099)"><path d="M-1.14 0.24 C-6.8 -4.82, -28.97 -26.34, -34.46 -31.4 M0.46 -0.68 C-5.26 -5.46, -29.32 -24.74, -35.12 -29.94" stroke="#000000" stroke-width="1" fill="none"></path></g></g><mask></mask><g transform="translate(427.35958562357297 191.24804720540297) rotate(0 16 13)"><text x="0" y="19" font-family="Virgil, Segoe UI Emoji" font-size="20px" fill="#000000" text-anchor="start" style="white-space: pre;" direction="ltr">0..1</text></g><g transform="translate(622.3019297289396 215.41445349945676) rotate(0 12 13)"><text x="0" y="19" font-family="Virgil, Segoe UI Emoji" font-size="20px" fill="#000000" text-anchor="start" style="white-space: pre;" direction="ltr">1..1</text></g><g transform="translate(412.8597418471408 10) rotate(0 95.49999999999997 13)"><text x="0" y="19" font-family="Virgil, Segoe UI Emoji" font-size="20px" fill="#000000" text-anchor="start" style="white-space: pre;" direction="ltr">BBDD Relacionales</text></g><g stroke-linecap="round"><g transform="translate(400.77653870011403 38.833125035243) rotate(0 105.74596336509424 0.551332086164841)"><path d="M-0.87 0.35 C34.03 0.3, 174.62 0.39, 210.13 0.32 M0.88 -0.51 C36.09 -0.46, 177.17 1.38, 212.36 1.61" stroke="#000000" stroke-width="1" fill="none"></path></g></g><mask></mask><g transform="translate(441.05388252353737 59.94390634104468) rotate(0 72 39)"><text x="0" y="19" font-family="Virgil, Segoe UI Emoji" font-size="20px" fill="#000000" text-anchor="start" style="white-space: pre;" direction="ltr">- uno a varios</text><text x="0" y="45" font-family="Virgil, Segoe UI Emoji" font-size="20px" fill="#000000" text-anchor="start" style="white-space: pre;" direction="ltr">- uno a uno</text><text x="0" y="71" font-family="Virgil, Segoe UI Emoji" font-size="20px" fill="#000000" text-anchor="start" style="white-space: pre;" direction="ltr">- varios a uno</text></g><g stroke-linecap="round"><g transform="translate(415.27638247654687 318.3578911697981) rotate(0 16.127046577598236 -0.4792554190133984)"><path d="M0.23 -0.2 C5.7 -0.14, 27.91 0.41, 33.36 0.52 M-1.11 -1.35 C4.18 -1.66, 27.05 -1.28, 32.59 -1.34" stroke="#000000" stroke-width="1" fill="none"></path></g></g><mask></mask><g stroke-linecap="round"><g transform="translate(791.4667737873166 312.71906303451897) rotate(0 39.78170347751313 -0.14991911232996813)"><path d="M0.74 -1 C13.52 -1.43, 64.77 -1.25, 77.52 -1.46 M-0.34 1.1 C12.78 1.39, 66.58 0.55, 79.9 0.16" stroke="#000000" stroke-width="1" fill="none"></path></g></g><mask></mask><g stroke-linecap="round" transform="translate(203.7755406050984 507.4243760455423) rotate(0 98.5 28)"><path d="M14 0 M14 0 C57.49 -2.7, 100.88 -2.68, 183 0 M14 0 C49.64 0.18, 84.39 0.89, 183 0 M183 0 C191.05 1.48, 196.85 5.77, 197 14 M183 0 C192.85 -1.37, 197.45 6.24, 197 14 M197 14 C196.43 22.67, 195.84 32.13, 197 42 M197 14 C197.17 19.99, 197.28 26.83, 197 42 M197 42 C196.56 51.77, 193.68 55.48, 183 56 M197 42 C197.54 51.98, 192.38 53.89, 183 56 M183 56 C123.24 54.27, 58.39 54.01, 14 56 M183 56 C126.92 56.43, 70.81 55.68, 14 56 M14 56 C2.79 57.5, 0.15 50.85, 0 42 M14 56 C5.5 57.37, -0.31 51.47, 0 42 M0 42 C0.55 31.76, 0.49 19.55, 0 14 M0 42 C0.43 35.35, 0.91 30.35, 0 14 M0 14 C-1.31 6.04, 5.76 -0.94, 14 0 M0 14 C2.01 4.06, 5.7 0.88, 14 0" stroke="#000000" stroke-width="1" fill="none"></path></g><g transform="translate(269.7755406050984 522.4243760455423) rotate(0 32.5 13)"><text x="32.5" y="19" font-family="Virgil, Segoe UI Emoji" font-size="20px" fill="#000000" text-anchor="middle" style="white-space: pre;" direction="ltr">alumno</text></g><g stroke-linecap="round" transform="translate(640.0810874815669 508.4243760455423) rotate(0 98.5 28)"><path d="M14 0 M14 0 C73.21 -0.27, 129.98 1.2, 183 0 M14 0 C52.43 1.39, 91.66 2.39, 183 0 M183 0 C192.18 1.11, 197.45 3.47, 197 14 M183 0 C192.78 1.57, 198.13 3.36, 197 14 M197 14 C195.94 19.62, 195.59 29.83, 197 42 M197 14 C197.01 20.97, 196.76 28.54, 197 42 M197 42 C198.35 50.81, 192.81 56.56, 183 56 M197 42 C197.05 49.22, 193.8 56.39, 183 56 M183 56 C134.14 53.2, 89.31 55.99, 14 56 M183 56 C127.86 55.28, 72.3 56.76, 14 56 M14 56 C4.82 55.51, 0.73 52.52, 0 42 M14 56 C4.36 56.13, 2.14 51.08, 0 42 M0 42 C0.39 34.98, -1.63 28.48, 0 14 M0 42 C0.76 35.83, -0.76 28.78, 0 14 M0 14 C1.1 3.72, 6.42 -0.53, 14 0 M0 14 C1.03 5.54, 4.99 1.47, 14 0" stroke="#000000" stroke-width="1" fill="none"></path></g><g transform="translate(684.5810874815669 523.4243760455423) rotate(0 54 13)"><text x="54" y="19" font-family="Virgil, Segoe UI Emoji" font-size="20px" fill="#000000" text-anchor="middle" style="white-space: pre;" direction="ltr">asignatura</text></g><g stroke-linecap="round" transform="translate(479.6644294939873 499.9243760455423) rotate(0 33.125 33.75)"><path d="M42.5 8.5 M42.5 8.5 C43.87 11.75, 47.44 15.8, 57.75 25.5 M42.5 8.5 C44.82 12.71, 48.47 15.97, 57.75 25.5 M57.75 25.5 C66.7 32.81, 66.64 35.37, 57.75 42.5 M57.75 25.5 C67.38 32.69, 65.13 33.53, 57.75 42.5 M57.75 42.5 C52.58 48.19, 49.31 50.31, 42.5 59 M57.75 42.5 C53.76 46.77, 50.88 50.38, 42.5 59 M42.5 59 C34.47 68.06, 34.04 65.66, 25.5 59 M42.5 59 C35.46 67.89, 33.52 69.45, 25.5 59 M25.5 59 C22.33 56.2, 18.28 51, 8.5 42.5 M25.5 59 C19.49 54.66, 15.39 48.7, 8.5 42.5 M8.5 42.5 C0.73 35.19, -0.27 34.12, 8.5 25.5 M8.5 42.5 C2.14 33.75, -1.49 34.6, 8.5 25.5 M8.5 25.5 C12.66 19.45, 18.94 14.78, 25.5 8.5 M8.5 25.5 C12.06 21.69, 17.63 16.17, 25.5 8.5 M25.5 8.5 C35.75 -0.53, 34.9 0.76, 42.5 8.5 M25.5 8.5 C34.33 1.47, 33.1 0.63, 42.5 8.5" stroke="#000000" stroke-width="1" fill="none"></path></g><g stroke-linecap="round"><g transform="translate(407.1644294939873 537.4243760455423) rotate(0 37.693147160075625 -0.4824661380052362)"><path d="M-1.08 -0.23 C11.26 -0.24, 61.7 -0.84, 74.18 -1.15 M0.56 -1.4 C13.25 -1.1, 63.87 0.41, 76.46 0.44" stroke="#000000" stroke-width="1" fill="none"></path></g></g><mask></mask><g stroke-linecap="round"><g transform="translate(543.4144294939873 534.9243760455423) rotate(0 47.26641440083273 0.09566596048279052)"><path d="M-0.23 -0.82 C16.01 -0.84, 80.41 -1.26, 96.35 -1.17 M-1.81 1.36 C14.38 1.54, 78.85 -0.17, 95.45 -0.25" stroke="#000000" stroke-width="1" fill="none"></path></g></g><mask></mask><g transform="translate(413.30710246485125 513.0653479153348) rotate(0 20 13)"><text x="0" y="19" font-family="Virgil, Segoe UI Emoji" font-size="20px" fill="#000000" text-anchor="start" style="white-space: pre;" direction="ltr">0..N</text></g><g transform="translate(596.1662434231913 537.2317542093886) rotate(0 20 13)"><text x="0" y="19" font-family="Virgil, Segoe UI Emoji" font-size="20px" fill="#000000" text-anchor="start" style="white-space: pre;" direction="ltr">0..N</text></g><g transform="translate(586.8578671643282 458.0507820576522) rotate(0 166 21)"><text x="0" y="15" font-family="Virgil, Segoe UI Emoji" font-size="16px" fill="#000000" text-anchor="start" style="white-space: pre;" direction="ltr">(un alumno puede estar NO (0) cursando </text><text x="0" y="36" font-family="Virgil, Segoe UI Emoji" font-size="16px" fill="#000000" text-anchor="start" style="white-space: pre;" direction="ltr">una asignatura o muchas (N))</text></g><g transform="translate(159.91802263604575 458.27296956352586) rotate(0 145.5 21)"><text x="0" y="15" font-family="Virgil, Segoe UI Emoji" font-size="16px" fill="#000000" text-anchor="start" style="white-space: pre;" direction="ltr">(una asignatura puede no tener (0) </text><text x="0" y="36" font-family="Virgil, Segoe UI Emoji" font-size="16px" fill="#000000" text-anchor="start" style="white-space: pre;" direction="ltr">a muchos (N) alumnos)</text></g><g stroke-linecap="round"><g transform="translate(16.530678624660254 406.16250070486) rotate(0 528.8752325122069 -2.771841191499135)"><path d="M-0.92 0.12 C175.34 -0.74, 882.27 -4.57, 1058.67 -5.67 M0.79 -0.86 C176.81 -1.47, 881.31 -3.36, 1057.82 -4.14" stroke="#000000" stroke-width="1" fill="none"></path></g></g><mask></mask><g stroke-linecap="round"><g transform="translate(11.697397365849497 642.1877355101182) rotate(0 536.3568167012093 -4.27865069098965)"><path d="M-0.16 -0.83 C178.77 -2.63, 895.47 -8.69, 1074.41 -9.91 M-1.7 1.35 C177.05 -0.42, 894.74 -7.02, 1073.79 -8.92" stroke="#000000" stroke-width="1" fill="none"></path></g></g><mask></mask><g stroke-linecap="round" transform="translate(209.78907799095964 732.90867322745) rotate(0 98.5 28)"><path d="M14 0 M14 0 C52.92 0.25, 94.48 1.48, 183 0 M14 0 C69.32 0.76, 127.35 0.85, 183 0 M183 0 C190.7 -1.45, 198.98 3.36, 197 14 M183 0 C193.62 1.88, 194.82 4.63, 197 14 M197 14 C196.96 23.77, 196.63 35.52, 197 42 M197 14 C197.31 22.81, 197.31 33.04, 197 42 M197 42 C196.93 49.83, 193.8 57.38, 183 56 M197 42 C195.68 52.2, 191.41 53.7, 183 56 M183 56 C146.17 54.44, 107.17 55.23, 14 56 M183 56 C136.62 57.79, 91.1 56.49, 14 56 M14 56 C4.22 55.29, 0.2 49.86, 0 42 M14 56 C3.53 54.23, -0.74 52.3, 0 42 M0 42 C-0.64 32.97, 0.86 19.69, 0 14 M0 42 C0.64 31.95, 0.09 20.47, 0 14 M0 14 C0.33 5.48, 3.17 -0.39, 14 0 M0 14 C-1.14 3.54, 3.39 -1.49, 14 0" stroke="#000000" stroke-width="1" fill="none"></path></g><g transform="translate(267.28907799095964 747.90867322745) rotate(0 41 13)"><text x="41" y="19" font-family="Virgil, Segoe UI Emoji" font-size="20px" fill="#000000" text-anchor="middle" style="white-space: pre;" direction="ltr">mecánico</text></g><g stroke-linecap="round" transform="translate(646.0946248674281 733.90867322745) rotate(0 98.5 28)"><path d="M14 0 M14 0 C64.25 1.27, 116.39 -0.46, 183 0 M14 0 C60.29 -0.07, 104.07 -1.12, 183 0 M183 0 C194.31 -1.3, 198.12 6.3, 197 14 M183 0 C190.16 -0.03, 199.18 5.15, 197 14 M197 14 C196.56 20.49, 197.88 26.29, 197 42 M197 14 C197.74 21.74, 197.13 29.26, 197 42 M197 42 C198.47 52.71, 191.19 56.75, 183 56 M197 42 C196.07 49.04, 190.7 55.24, 183 56 M183 56 C142.3 55.48, 97.94 54.11, 14 56 M183 56 C118.7 56.12, 56.1 56.54, 14 56 M14 56 C4.86 54.52, -0.99 49.79, 0 42 M14 56 C3.93 56.97, 2.15 52.39, 0 42 M0 42 C1.06 34.16, 1.6 26.62, 0 14 M0 42 C-0.11 34.6, -0.01 28.51, 0 14 M0 14 C-1.5 4.28, 3.67 -0.98, 14 0 M0 14 C-1.28 3.18, 3.25 -1.7, 14 0" stroke="#000000" stroke-width="1" fill="none"></path></g><g transform="translate(693.5946248674281 748.90867322745) rotate(0 51 13)"><text x="51" y="19" font-family="Virgil, Segoe UI Emoji" font-size="20px" fill="#000000" text-anchor="middle" style="white-space: pre;" direction="ltr">reparación</text></g><g stroke-linecap="round"><g transform="translate(413.17796687984855 762.90867322745) rotate(0 37.38530963357536 -0.6143979620188702)"><path d="M0.9 0.39 C13.35 0.19, 62.69 -1.4, 74.86 -1.62 M-0.09 -0.44 C12.18 -0.45, 61.12 -0.44, 73.83 -0.28" stroke="#000000" stroke-width="1" fill="none"></path></g></g><mask></mask><g stroke-linecap="round"><g transform="translate(549.4279668798486 760.40867322745) rotate(0 47.509554925160444 -0.7256792399223855)"><path d="M0.39 -0.14 C16.44 -0.48, 79.85 -1.31, 95.88 -1.12 M-0.86 -1.26 C15.03 -1.57, 78.6 -0.24, 94.73 -0.16" stroke="#000000" stroke-width="1" fill="none"></path></g></g><mask></mask><g transform="translate(417.7095460977755 734.5219107149001) rotate(0 15.5 13)"><text x="0" y="19" font-family="Virgil, Segoe UI Emoji" font-size="20px" fill="#000000" text-anchor="start" style="white-space: pre;" direction="ltr">1..N</text></g><g transform="translate(602.1797808090525 761.9105045148278) rotate(0 20 13)"><text x="0" y="19" font-family="Virgil, Segoe UI Emoji" font-size="20px" fill="#000000" text-anchor="start" style="white-space: pre;" direction="ltr">0..N</text></g><g stroke-linecap="round" transform="translate(486.87247641744625 726.8531263509815) rotate(0 33.125 33.75)"><path d="M42.5 8.5 M42.5 8.5 C49.19 16.4, 51.91 19.38, 57.75 25.5 M42.5 8.5 C47.63 15.35, 53.69 21.91, 57.75 25.5 M57.75 25.5 C68.01 34.88, 65.9 33.66, 57.75 42.5 M57.75 25.5 C66.27 33.22, 67.13 34.04, 57.75 42.5 M57.75 42.5 C52.91 47.98, 51.3 51.39, 42.5 59 M57.75 42.5 C54.28 47.15, 50.06 50.69, 42.5 59 M42.5 59 C33.34 68.66, 34.95 68.97, 25.5 59 M42.5 59 C33.28 66.8, 34.25 66.36, 25.5 59 M25.5 59 C22.39 55.93, 17.91 52.51, 8.5 42.5 M25.5 59 C22.04 55.98, 17.68 51.33, 8.5 42.5 M8.5 42.5 C0.96 33.24, -0.03 33.89, 8.5 25.5 M8.5 42.5 C-0.25 33.72, 1.29 32.17, 8.5 25.5 M8.5 25.5 C13.4 23.24, 16.87 16.09, 25.5 8.5 M8.5 25.5 C13.54 19.74, 20.13 14.1, 25.5 8.5 M25.5 8.5 C32.7 -1.41, 35.92 -1.92, 42.5 8.5 M25.5 8.5 C33.32 0.55, 34.48 -1.84, 42.5 8.5" stroke="#000000" stroke-width="1" fill="none"></path></g><g transform="translate(627.0778675402536 683.2148449981895) rotate(0 117.5 21)"><text x="0" y="15" font-family="Virgil, Segoe UI Emoji" font-size="16px" fill="#000000" text-anchor="start" style="white-space: pre;" direction="ltr">(una mecánico puede realizar </text><text x="0" y="36" font-family="Virgil, Segoe UI Emoji" font-size="16px" fill="#000000" text-anchor="start" style="white-space: pre;" direction="ltr">ninguna reparación o muchas)</text></g><g transform="translate(184.99981977096263 683.2148449981896) rotate(0 151.5 21)"><text x="0" y="15" font-family="Virgil, Segoe UI Emoji" font-size="16px" fill="#000000" text-anchor="start" style="white-space: pre;" direction="ltr">(una reparación puede estar asignada</text><text x="0" y="36" font-family="Virgil, Segoe UI Emoji" font-size="16px" fill="#000000" text-anchor="start" style="white-space: pre;" direction="ltr">a uno o más mecánicos)</text></g><g stroke-linecap="round"><g transform="translate(739.9117736933352 791.2139076567829) rotate(0 -0.24065762438959837 22.46881301859281)"><path d="M-1.18 -0.58 C-0.92 6.96, 0.43 36.92, 0.7 44.37 M0.4 1.73 C0.58 9.48, -0.15 38.32, -0.3 45.52" stroke="#000000" stroke-width="1" fill="none"></path></g></g><mask></mask><g stroke-linecap="round" transform="translate(707.5923205698039 833.1853140448178) rotate(0 33.125 33.75)"><path d="M42.5 8.5 M42.5 8.5 C44.25 10.86, 48.7 16.26, 57.75 25.5 M42.5 8.5 C45.41 12.18, 50.82 17.12, 57.75 25.5 M57.75 25.5 C66.07 35.81, 65 35.44, 57.75 42.5 M57.75 25.5 C64.39 34.91, 67.81 35.78, 57.75 42.5 M57.75 42.5 C52.37 47.07, 49.22 51.4, 42.5 59 M57.75 42.5 C54.62 46.3, 51.93 49.38, 42.5 59 M42.5 59 C35.9 68.81, 35.6 65.58, 25.5 59 M42.5 59 C33.66 69.71, 33.04 65.35, 25.5 59 M25.5 59 C22.74 54.62, 18.95 50.55, 8.5 42.5 M25.5 59 C21.99 54.02, 16.03 51.23, 8.5 42.5 M8.5 42.5 C1.52 35.32, 0.28 32.5, 8.5 25.5 M8.5 42.5 C0.19 35.22, -0.01 33.25, 8.5 25.5 M8.5 25.5 C14.23 23.08, 17.48 19.6, 25.5 8.5 M8.5 25.5 C13.11 22.22, 15.53 18.71, 25.5 8.5 M25.5 8.5 C33.47 1.55, 34.66 -0.02, 42.5 8.5 M25.5 8.5 C33.9 -1.31, 35.66 1.19, 42.5 8.5" stroke="#000000" stroke-width="1" fill="none"></path></g><g stroke-linecap="round"><g transform="translate(741.5228674462722 899.1571891035562) rotate(0 -0.35726353493959095 15.018816831277775)"><path d="M0.4 -0.01 C0.44 4.82, -0.13 24.72, -0.05 29.93 M-0.86 -1.07 C-0.95 3.83, -1.26 26.06, -1.03 31.11" stroke="#000000" stroke-width="1" fill="none"></path></g></g><mask></mask><g stroke-linecap="round" transform="translate(643.0228674462724 933.1842985916275) rotate(0 98.5 28)"><path d="M14 0 M14 0 C67.41 0.92, 120.31 1.56, 183 0 M14 0 C77.12 0.67, 141.01 -0.56, 183 0 M183 0 C193.1 -1.2, 195.47 5.11, 197 14 M183 0 C191.66 -0.2, 196.3 6.05, 197 14 M197 14 C199.01 25.86, 197.64 32.94, 197 42 M197 14 C197.74 19.69, 198.24 25.99, 197 42 M197 42 C198.64 52.84, 191.5 55.75, 183 56 M197 42 C198.13 49.49, 192.08 55.35, 183 56 M183 56 C138.47 57.11, 91.81 57.72, 14 56 M183 56 C135.38 55.53, 88.38 56.44, 14 56 M14 56 C5.53 57.64, 1.05 49.67, 0 42 M14 56 C3.87 57.08, -1.61 49.86, 0 42 M0 42 C0.4 32.61, -1.15 25.75, 0 14 M0 42 C-0.67 33.83, 1.08 27.07, 0 14 M0 14 C1.67 5.58, 4.85 0.96, 14 0 M0 14 C1.19 2.84, 5.77 1.62, 14 0" stroke="#000000" stroke-width="1" fill="none"></path></g><g transform="translate(703.0228674462724 948.1842985916275) rotate(0 38.5 13)"><text x="38.5" y="19" font-family="Virgil, Segoe UI Emoji" font-size="20px" fill="#000000" text-anchor="middle" style="white-space: pre;" direction="ltr">vehículo</text></g><g transform="translate(753.7447425050107 905.4903141387991) rotate(0 27 13)"><text x="0" y="19" font-family="Virgil, Segoe UI Emoji" font-size="20px" fill="#000000" text-anchor="start" style="white-space: pre;" direction="ltr">1..1 (1)</text></g><g transform="translate(756.9669300108844 797.5470326920258) rotate(0 15.5 13)"><text x="0" y="19" font-family="Virgil, Segoe UI Emoji" font-size="20px" fill="#000000" text-anchor="start" style="white-space: pre;" direction="ltr">1..N</text></g><g transform="translate(810.1041959104858 798.4080483331788) rotate(0 104.5 21)"><text x="0" y="15" font-family="Virgil, Segoe UI Emoji" font-size="16px" fill="#000000" text-anchor="start" style="white-space: pre;" direction="ltr">(un vehículo puede </text><text x="0" y="36" font-family="Virgil, Segoe UI Emoji" font-size="16px" fill="#000000" text-anchor="start" style="white-space: pre;" direction="ltr">repararse 1 vez o muchas)</text></g><g transform="translate(809.4098990105225 889.4348453741145) rotate(0 114.5 10.5)"><text x="0" y="15" font-family="Virgil, Segoe UI Emoji" font-size="16px" fill="#000000" text-anchor="start" style="white-space: pre;" direction="ltr">(una reparación por vehículo)</text></g><g transform="translate(909.0766177517115 703.9647668864054) rotate(0 11.5 10.5)"><text x="0" y="15" font-family="Virgil, Segoe UI Emoji" font-size="16px" fill="#000000" text-anchor="start" style="white-space: pre;" direction="ltr">ID</text></g><g transform="translate(911.4932583811168 746.6587513392337) rotate(0 26 10.5)"><text x="0" y="15" font-family="Virgil, Segoe UI Emoji" font-size="16px" fill="#000000" text-anchor="start" style="white-space: pre;" direction="ltr">FECHA</text></g><g transform="translate(145.41817885961336 832.0467202448903) rotate(0 34.5 10.5)"><text x="0" y="15" font-family="Virgil, Segoe UI Emoji" font-size="16px" fill="#000000" text-anchor="start" style="white-space: pre;" direction="ltr">NOMBRE</text></g><g transform="translate(258.19474156519766 861.8519546742233) rotate(0 16 10.5)"><text x="0" y="15" font-family="Virgil, Segoe UI Emoji" font-size="16px" fill="#000000" text-anchor="start" style="white-space: pre;" direction="ltr">NSS</text></g><g transform="translate(909.8821646281798 993.9616424150503) rotate(0 50.5 10.5)"><text x="0" y="15" font-family="Virgil, Segoe UI Emoji" font-size="16px" fill="#000000" text-anchor="start" style="white-space: pre;" direction="ltr">MATRÍCULA</text></g><g stroke-linecap="round" transform="translate(125.27950694790206 818.6025014567103) rotate(0 55.179961038089345 20.13867191171147)"><path d="M55.43 0.89 C65.06 0.76, 76.87 1.5, 85.11 3.44 C93.35 5.37, 100.59 9.16, 104.87 12.51 C109.15 15.85, 112.1 19.96, 110.81 23.52 C109.51 27.08, 103.74 31.27, 97.1 33.87 C90.46 36.46, 80.35 38.08, 70.97 39.1 C61.59 40.13, 50.3 40.82, 40.83 40.01 C31.36 39.2, 20.99 37.17, 14.16 34.23 C7.32 31.29, 1.53 26.01, -0.18 22.35 C-1.89 18.7, -0.43 15.63, 3.9 12.29 C8.24 8.94, 16.34 4.17, 25.83 2.27 C35.33 0.37, 54.38 1.03, 60.86 0.88 C67.35 0.72, 64.79 1.26, 64.74 1.35 M62.6 1.11 C72.11 1.34, 84.93 2.56, 92.3 4.99 C99.67 7.42, 104.38 12.08, 106.83 15.67 C109.28 19.26, 109.49 23.43, 107.01 26.51 C104.54 29.59, 99.46 31.85, 92 34.16 C84.55 36.47, 72.36 39.87, 62.27 40.38 C52.18 40.89, 40.42 38.59, 31.46 37.22 C22.51 35.85, 13.9 35, 8.53 32.16 C3.17 29.32, -0.97 24.26, -0.75 20.16 C-0.54 16.07, 4.26 10.74, 9.84 7.6 C15.42 4.47, 23.96 2.72, 32.74 1.36 C41.53 0, 57.56 -0.33, 62.54 -0.54 C67.51 -0.76, 62.31 -0.49, 62.59 0.06" stroke="#000000" stroke-width="1" fill="none"></path></g><g stroke-linecap="round" transform="translate(240.4727102828915 846.7966421331064) rotate(0 35.444062564612125 24.569179732287978)"><path d="M43.74 -0.03 C50.92 0.78, 59.12 4.96, 63.57 9.5 C68.02 14.04, 70.79 22, 70.42 27.2 C70.05 32.4, 66.51 37.12, 61.33 40.7 C56.15 44.28, 46.93 47.92, 39.33 48.66 C31.73 49.4, 22.15 48.04, 15.74 45.15 C9.33 42.26, 2.94 36.26, 0.87 31.32 C-1.19 26.38, 0.08 20.34, 3.35 15.51 C6.61 10.68, 12.8 4.77, 20.44 2.35 C28.09 -0.06, 43.93 0.88, 49.21 1.04 C54.48 1.2, 52.59 2.7, 52.09 3.31 M26.84 0.78 C33.93 -0.98, 45.47 -0.16, 52.21 2.01 C58.95 4.18, 64.26 9, 67.27 13.79 C70.29 18.57, 72.4 25.53, 70.31 30.71 C68.22 35.89, 61.36 41.62, 54.75 44.85 C48.13 48.09, 37.91 50.68, 30.63 50.12 C23.35 49.55, 15.98 45.56, 11.08 41.46 C6.17 37.35, 1.91 30.88, 1.2 25.48 C0.49 20.08, 2.62 13.36, 6.82 9.08 C11.02 4.79, 23.04 1.24, 26.39 -0.24 C29.74 -1.72, 26.65 -0.57, 26.93 0.18" stroke="#000000" stroke-width="1" fill="none"></path></g><g stroke-linecap="round" transform="translate(885.7157583341262 974.8785954915912) rotate(0 79.34636733214302 27.38859379992755)"><path d="M52.06 2.6 C62.64 0.83, 77.78 0.8, 89.96 1.1 C102.15 1.4, 115.08 2.25, 125.17 4.42 C135.26 6.59, 144.77 10.19, 150.51 14.13 C156.25 18.08, 159.65 23.88, 159.61 28.07 C159.58 32.25, 156.22 35.58, 150.29 39.26 C144.35 42.94, 134.15 47.75, 124 50.14 C113.86 52.53, 101.74 53.12, 89.43 53.61 C77.12 54.1, 61.92 54.49, 50.15 53.07 C38.39 51.66, 26.82 48.49, 18.84 45.14 C10.87 41.78, 5.13 37.09, 2.3 32.96 C-0.54 28.84, -1.02 24.42, 1.84 20.38 C4.69 16.34, 10.15 11.79, 19.43 8.73 C28.7 5.66, 50.02 3.13, 57.5 1.96 C64.98 0.8, 64.1 1.54, 64.29 1.76 M93.66 -0.71 C105.3 -0.4, 118.55 3.42, 128.12 6.29 C137.68 9.15, 146.05 12.54, 151.04 16.46 C156.03 20.38, 158.61 25.43, 158.06 29.8 C157.51 34.18, 154.41 39.05, 147.75 42.71 C141.09 46.37, 129.12 49.57, 118.1 51.76 C107.09 53.96, 93.8 56.03, 81.65 55.88 C69.5 55.73, 56.36 53, 45.19 50.88 C34.01 48.76, 21.95 46.37, 14.6 43.19 C7.26 40.01, 2.64 35.93, 1.11 31.78 C-0.43 27.62, 1.4 22.5, 5.39 18.25 C9.38 14, 16.21 8.91, 25.04 6.28 C33.88 3.64, 46.61 3.37, 58.42 2.45 C70.23 1.53, 90.02 1.22, 95.89 0.76 C101.76 0.3, 94.23 -0.55, 93.63 -0.31" stroke="#000000" stroke-width="1" fill="none"></path></g><g stroke-linecap="round" transform="translate(884.9102114576575 691.3260949746941) rotate(0 33.8329688116753 21.34699222641416)"><path d="M47.01 2.56 C53.6 3.86, 59.82 7.55, 63.24 11.29 C66.65 15.04, 68.83 20.39, 67.51 25.02 C66.19 29.66, 61.21 36.19, 55.31 39.09 C49.41 42, 39.38 42.66, 32.12 42.43 C24.87 42.19, 17.19 40.63, 11.79 37.68 C6.38 34.72, 0.81 29.18, -0.3 24.69 C-1.41 20.21, 1.26 14.84, 5.14 10.77 C9.02 6.7, 15.77 1.77, 22.97 0.28 C30.17 -1.22, 43.63 1.34, 48.35 1.79 C53.06 2.24, 51.41 2.42, 51.26 2.98 M31.74 -0.32 C38.72 -0.87, 49.78 -0.01, 55.66 3.06 C61.53 6.13, 65.72 13.18, 66.99 18.1 C68.26 23.01, 66.81 28.49, 63.29 32.56 C59.78 36.64, 52.63 40.95, 45.88 42.57 C39.13 44.19, 29.73 44.03, 22.82 42.29 C15.9 40.56, 7.9 36.29, 4.37 32.16 C0.85 28.02, 0.75 21.75, 1.66 17.5 C2.57 13.25, 4.83 9.51, 9.84 6.66 C14.86 3.8, 27.81 1.49, 31.75 0.38 C35.7 -0.73, 33.52 -0.16, 33.51 0.01" stroke="#000000" stroke-width="1" fill="none"></path></g><g stroke-linecap="round" transform="translate(874.4381020635677 735.6311731804592) rotate(0 59.20769542043172 21.34699222641416)"><path d="M77.77 1.49 C87.55 2.17, 97.76 4.68, 104.4 7.72 C111.04 10.76, 116.28 15.9, 117.59 19.74 C118.89 23.57, 116.76 27.39, 112.23 30.73 C107.71 34.06, 99.41 37.71, 90.43 39.75 C81.46 41.79, 69.03 43, 58.39 42.98 C47.74 42.96, 35.64 41.74, 26.57 39.61 C17.5 37.48, 8.17 33.92, 3.97 30.22 C-0.24 26.51, -0.42 21.28, 1.35 17.38 C3.12 13.48, 7.35 9.52, 14.59 6.82 C21.82 4.12, 33.69 2.07, 44.76 1.19 C55.84 0.32, 74.49 1.44, 81.03 1.56 C87.57 1.69, 84.41 1.62, 84 1.95 M79.87 2.37 C89.32 3.21, 99.87 5.09, 106.18 8.25 C112.5 11.4, 117.24 17.46, 117.77 21.28 C118.29 25.11, 114.46 27.96, 109.31 31.21 C104.16 34.46, 96.15 38.96, 86.86 40.79 C77.58 42.61, 64.33 42.38, 53.61 42.16 C42.88 41.94, 31.01 41.95, 22.49 39.46 C13.97 36.97, 5.99 30.85, 2.5 27.2 C-0.98 23.55, -0.87 21.16, 1.57 17.57 C4 13.98, 9.39 8.27, 17.11 5.66 C24.84 3.05, 37.55 2.81, 47.92 1.92 C58.29 1.04, 73.92 0.4, 79.32 0.36 C84.73 0.32, 80.38 1.14, 80.35 1.7" stroke="#000000" stroke-width="1" fill="none"></path></g><g stroke-linecap="round"><g transform="translate(845.4384145107032 741.2700013157385) rotate(0 18.470805166972355 -11.648927435326584)"><path d="M-0.86 0.93 C5.32 -3.12, 31.29 -20.02, 37.8 -24.22 M0.89 0.37 C6.84 -3.48, 30.71 -18.82, 36.82 -22.72" stroke="#000000" stroke-width="1" fill="none"></path></g></g><mask></mask><g stroke-linecap="round"><g transform="translate(843.8273207577664 767.0475013627291) rotate(0 14.293275201849724 -2.1615783084745317)"><path d="M-0.03 -1 C5.16 -2.07, 25.09 -4.63, 30.1 -5.41 M-1.51 1.09 C3.58 0.69, 23.81 -3.19, 28.88 -4.18" stroke="#000000" stroke-width="1" fill="none"></path></g></g><mask></mask><g stroke-linecap="round"><g transform="translate(210.66747585355859 822.6302358390527) rotate(0 38.319505243202386 -16.1254640146484)"><path d="M0.06 0.56 C12.96 -4.75, 64.98 -27.46, 78.01 -32.81 M-1.37 -0.19 C11.39 -5.27, 64.19 -26.03, 77.41 -31.59" stroke="#000000" stroke-width="1" fill="none"></path></g></g><mask></mask><g stroke-linecap="round"><g transform="translate(285.5833353651252 846.7966421331064) rotate(0 3.1777927529161616 -27.9327601229906)"><path d="M0.94 -0.62 C1.73 -9.85, 3.59 -46.62, 4.07 -56.02 M-0.02 1.66 C1.21 -7.81, 5.34 -47.97, 6.38 -57.53" stroke="#000000" stroke-width="1" fill="none"></path></g></g><mask></mask><g stroke-linecap="round"><g transform="translate(837.3829457460187 983.7396111327442) rotate(0 25.20166287782365 6.085071985868012)"><path d="M0.91 0.66 C9.45 2.36, 42 8.95, 50.47 10.88 M-0.07 -0.05 C8.36 1.76, 40.78 10.46, 49.38 12.22" stroke="#000000" stroke-width="1" fill="none"></path></g></g><mask></mask></svg>