<svg version="1.1" xmlns="http://www.w3.org/2000/svg" viewBox="0 0 1510.2567206225542 1480.4166666666663" width="1510.2567206225542" height="1480.4166666666663" filter="invert(93%) hue-rotate(180deg)">
  <!-- svg-source:excalidraw -->
  
  <defs>
    <style class="style-fonts">
      @font-face {
        font-family: "Virgil";
        src: url("https://excalidraw.com/Virgil.woff2");
      }
      @font-face {
        font-family: "Cascadia";
        src: url("https://excalidraw.com/Cascadia.woff2");
      }
    </style>
  </defs>
  <rect x="0" y="0" width="1510.2567206225542" height="1480.4166666666663" fill="#ffffff"></rect><g transform="translate(699.6732703694452 10) rotate(0 95.5 13)"><text x="0" y="19" font-family="Virgil, Segoe UI Emoji" font-size="20px" fill="#000000" text-anchor="start" style="white-space: pre;" direction="ltr">BBDD Relacionales</text></g><g stroke-linecap="round"><g transform="translate(10.339937036111905 51.5) rotate(0 744.7884232751651 -0.8758673382209423)"><path d="M-0.34 -0.3 C247.51 -0.48, 1239.41 0.11, 1487.65 0.11 M1.68 -1.5 C249.85 -1.53, 1242.08 -2.14, 1489.92 -1.7" stroke="#000000" stroke-width="1" fill="none"></path></g></g><mask></mask><g transform="translate(359.67327036944516 99) rotate(0 342.5 10.5)"><text x="0" y="15" font-family="Virgil, Segoe UI Emoji" font-size="16px" fill="#000000" text-anchor="start" style="white-space: pre;" direction="ltr">Nos piden modelar una Bd para almacenar y explotar información del Tour de Francia.</text></g><g transform="translate(359.67327036944516 130) rotate(0 338.5 10.5)"><text x="0" y="15" font-family="Virgil, Segoe UI Emoji" font-size="16px" fill="#000000" text-anchor="start" style="white-space: pre;" direction="ltr">Tras las primeras reuniones con interesados, hemos extraído la siguiente información:</text></g><g transform="translate(359.67327036944516 161) rotate(0 448 10.5)"><text x="0" y="15" font-family="Virgil, Segoe UI Emoji" font-size="16px" fill="#000000" text-anchor="start" style="white-space: pre;" direction="ltr">De los ciclistas necesitaremos almacenar su dorsal, su nombre, su edad y el nombre del equipo al que pertenece.</text></g><g transform="translate(359.67327036944516 192) rotate(0 401 10.5)"><text x="0" y="15" font-family="Virgil, Segoe UI Emoji" font-size="16px" fill="#000000" text-anchor="start" style="white-space: pre;" direction="ltr">De los equipos necesitaremos conocer el nombre y su representante (es un ciclista del propio equipo).</text></g><g transform="translate(359.67327036944516 223) rotate(0 487 21)"><text x="0" y="15" font-family="Virgil, Segoe UI Emoji" font-size="16px" fill="#000000" text-anchor="start" style="white-space: pre;" direction="ltr">Los equipos participan en las etapas. Pero solamente un ciclista puede ganar cada etapa. Una etapa </text><text x="0" y="36" font-family="Virgil, Segoe UI Emoji" font-size="16px" fill="#000000" text-anchor="start" style="white-space: pre;" direction="ltr">se identifica por un número consecutivo, los kilómetros que tiene la etapa y la categoría a la que pertenece dicha etapa.</text></g><g transform="translate(360.67327036944516 274) rotate(0 379.5 10.5)"><text x="0" y="15" font-family="Virgil, Segoe UI Emoji" font-size="16px" fill="#000000" text-anchor="start" style="white-space: pre;" direction="ltr">Una categoría será simplemente un nombre y una descripción, por ejemplo, general, montaña, etc.</text></g><g transform="translate(360.67327036944516 305) rotate(0 380.5 21)"><text x="0" y="15" font-family="Virgil, Segoe UI Emoji" font-size="16px" fill="#000000" text-anchor="start" style="white-space: pre;" direction="ltr">Premios: se otorgan al ciclista ganador de cada etapa. De cada premio interesa almacenar la </text><text x="0" y="36" font-family="Virgil, Segoe UI Emoji" font-size="16px" fill="#000000" text-anchor="start" style="white-space: pre;" direction="ltr">categoría que se premia, la etapa e importe del premio en euros.</text></g><g transform="translate(493.42327036944516 644) rotate(0 36 13)"><text x="0" y="19" font-family="Virgil, Segoe UI Emoji" font-size="20px" fill="#c92a2a" text-anchor="start" style="white-space: pre;" direction="ltr">ciclista</text></g><g stroke-linecap="round" transform="translate(451.2566037027784 628.5) rotate(0 79.5 29)"><path d="M14.5 0 M14.5 0 C49.33 0.42, 84.09 -0.75, 144.5 0 M14.5 0 C53.06 0.21, 92.97 0.55, 144.5 0 M144.5 0 C153.41 0.96, 157.11 4.99, 159 14.5 M144.5 0 C155.36 0.37, 160.17 3.74, 159 14.5 M159 14.5 C157.8 27.69, 159.88 35.72, 159 43.5 M159 14.5 C159.48 24.55, 159.27 34.99, 159 43.5 M159 43.5 C160.52 53.6, 153.88 58.06, 144.5 58 M159 43.5 C159.67 53.16, 152.45 56.12, 144.5 58 M144.5 58 C95.73 57.3, 42.87 60.6, 14.5 58 M144.5 58 C98.64 56.17, 55.41 56.05, 14.5 58 M14.5 58 C3.2 59.16, 1.31 54.88, 0 43.5 M14.5 58 C5.78 60.21, -1.06 53.25, 0 43.5 M0 43.5 C0.29 34.51, 1.59 29.61, 0 14.5 M0 43.5 C0.74 33.73, 0.59 25.15, 0 14.5 M0 14.5 C-1.32 4.16, 3.53 0.8, 14.5 0 M0 14.5 C-1.58 6.18, 3.42 -1.74, 14.5 0" stroke="#c92a2a" stroke-width="1" fill="none"></path></g><g transform="translate(968.4232703694447 641) rotate(0 30.5 13)"><text x="0" y="19" font-family="Virgil, Segoe UI Emoji" font-size="20px" fill="#0b7285" text-anchor="start" style="white-space: pre;" direction="ltr">equipo</text></g><g transform="translate(617.5899370361119 665) rotate(0 12.5 10.5)"><text x="0" y="15" font-family="Virgil, Segoe UI Emoji" font-size="16px" fill="#0b7285" text-anchor="start" style="white-space: pre;" direction="ltr">1..N</text></g><g stroke-linecap="round" transform="translate(727.8399370361117 619.1666666666667) rotate(0 37.5 36)"><path d="M47.5 9.25 M47.5 9.25 C53.68 14.18, 56.28 19.02, 65.5 27.75 M47.5 9.25 C53.56 16.04, 61.25 22.79, 65.5 27.75 M65.5 27.75 C74.94 38.87, 75.4 35.38, 65.5 46.25 M65.5 27.75 C76.01 36.7, 77.24 38.65, 65.5 46.25 M65.5 46.25 C59.26 49.5, 53.79 54.37, 47.5 62.75 M65.5 46.25 C60.76 50.52, 54.16 56.39, 47.5 62.75 M47.5 62.75 C38.01 73.62, 39.91 73.06, 28.5 62.75 M47.5 62.75 C39.12 70.46, 35.88 71.35, 28.5 62.75 M28.5 62.75 C21.62 55.65, 16.09 50.43, 9.5 46.25 M28.5 62.75 C23.85 58.35, 21.13 55.22, 9.5 46.25 M9.5 46.25 C0.07 36.41, 1.67 35.94, 9.5 27.75 M9.5 46.25 C2.14 38.08, 0.45 36.53, 9.5 27.75 M9.5 27.75 C13.66 24.53, 17.81 17.19, 28.5 9.25 M9.5 27.75 C15.15 21.79, 22.29 15.25, 28.5 9.25 M28.5 9.25 C39.29 -0.34, 36.76 0.92, 47.5 9.25 M28.5 9.25 C36.48 -0.17, 40.26 -0.65, 47.5 9.25" stroke="#000000" stroke-width="1" fill="none"></path></g><g stroke-linecap="round" transform="translate(495.17327036944494 403.2500000000001) rotate(0 71 26.5)"><path d="M100 2.66 C110.53 4.02, 121.19 7.99, 128.17 11.55 C135.15 15.1, 140.6 19.72, 141.87 23.99 C143.14 28.26, 140.81 33.31, 135.79 37.16 C130.77 41.01, 121.22 44.44, 111.76 47.09 C102.29 49.75, 90.78 52.64, 79.01 53.09 C67.23 53.54, 51.93 51.49, 41.12 49.81 C30.31 48.13, 20.88 46.52, 14.15 43.01 C7.41 39.51, 1.98 33.24, 0.7 28.78 C-0.58 24.32, 1.59 20.36, 6.46 16.25 C11.32 12.14, 20.42 6.66, 29.9 4.12 C39.37 1.57, 51.15 1.23, 63.32 0.98 C75.49 0.74, 95.59 1.98, 102.9 2.66 C110.21 3.35, 107.68 4.53, 107.18 5.08 M90.18 2.28 C101.34 2.98, 111.79 4.87, 120.29 7.9 C128.78 10.94, 137.82 16.42, 141.14 20.48 C144.46 24.54, 143.64 28.16, 140.2 32.28 C136.76 36.39, 129.25 41.95, 120.5 45.16 C111.74 48.37, 98.8 50.55, 87.66 51.55 C76.52 52.55, 64.67 52, 53.66 51.16 C42.64 50.31, 30.01 49.22, 21.57 46.47 C13.13 43.72, 6.12 39.06, 3.02 34.64 C-0.09 30.21, 0.05 24.4, 2.94 19.94 C5.82 15.48, 11.93 10.85, 20.34 7.87 C28.74 4.89, 41.64 3.14, 53.37 2.06 C65.09 0.99, 84.63 1.74, 90.7 1.42 C96.77 1.1, 90.35 -0.35, 89.77 0.14" stroke="#c92a2a" stroke-width="1" fill="none"></path></g><g transform="translate(539.1732703694452 414.7500000000001) rotate(0 24.5 13)"><text x="0" y="19" font-family="Virgil, Segoe UI Emoji" font-size="20px" fill="#c92a2a" text-anchor="start" style="white-space: pre;" direction="ltr">edad</text></g><g stroke-linecap="round" transform="translate(671.0066037027784 468.25) rotate(0 87.66666666666663 31.916666666666657)"><path d="M71.92 -0.23 C84.53 -1.56, 102.12 0.06, 115.3 1.59 C128.48 3.13, 141.56 5.41, 151.01 8.98 C160.45 12.55, 168.14 18.31, 171.98 23 C175.82 27.69, 176.76 32.4, 174.05 37.11 C171.33 41.82, 164.24 47.11, 155.69 51.26 C147.13 55.42, 134.99 60.12, 122.73 62.04 C110.46 63.96, 95.44 63.21, 82.1 62.78 C68.75 62.34, 54.39 61.88, 42.66 59.44 C30.93 56.99, 18.91 52.32, 11.72 48.09 C4.52 43.87, 0.07 38.97, -0.51 34.09 C-1.08 29.21, 2.46 23.45, 8.25 18.83 C14.04 14.21, 22.57 9.56, 34.25 6.38 C45.93 3.21, 70.09 0.79, 78.31 -0.2 C86.53 -1.2, 83.34 -0.32, 83.57 0.39 M53.89 2.93 C65.72 0.53, 83.55 -0.75, 97.18 -0.61 C110.8 -0.47, 124.43 0.77, 135.62 3.77 C146.81 6.77, 157.53 13.12, 164.31 17.41 C171.09 21.7, 175.99 24.8, 176.3 29.51 C176.6 34.23, 172.42 41.17, 166.12 45.7 C159.82 50.23, 149.37 53.63, 138.5 56.68 C127.62 59.74, 114.27 63.36, 100.88 64.02 C87.49 64.68, 70.86 62.46, 58.15 60.64 C45.44 58.82, 33.82 56.3, 24.61 53.11 C15.4 49.92, 6.63 46.03, 2.88 41.48 C-0.87 36.93, -0.91 30.65, 2.09 25.79 C5.09 20.93, 11.99 16.34, 20.87 12.33 C29.75 8.32, 49.61 3.1, 55.37 1.72 C61.13 0.35, 55.03 3.66, 55.43 4.09" stroke="#000000" stroke-width="1" fill="none"></path></g><g transform="translate(689.1732703694452 481.41666666666663) rotate(0 69 13)"><text x="0" y="19" font-family="Virgil, Segoe UI Emoji" font-size="20px" fill="#000000" text-anchor="start" style="white-space: pre;" direction="ltr">representante</text></g><g stroke-linecap="round" transform="translate(381.8399370361119 364.91666666666686) rotate(0 71 26.5)"><path d="M69.43 0.73 C80.71 0.18, 94.72 1.14, 105.06 3.11 C115.4 5.08, 125.38 8.58, 131.47 12.55 C137.55 16.51, 141.22 22.35, 141.59 26.91 C141.96 31.47, 139.38 36.28, 133.69 39.92 C128 43.56, 117.6 46.47, 107.44 48.75 C97.27 51.03, 84.43 53.55, 72.7 53.59 C60.96 53.63, 47.39 51.13, 37.04 48.99 C26.69 46.85, 16.62 44.53, 10.6 40.76 C4.57 36.99, 1.28 31.01, 0.9 26.36 C0.51 21.7, 2.67 16.47, 8.29 12.82 C13.91 9.18, 22.9 6.49, 34.62 4.48 C46.33 2.46, 69.58 1.27, 78.59 0.73 C87.6 0.19, 88.74 0.73, 88.69 1.24 M67.99 0.33 C79.15 -0.12, 92.36 1.26, 103.06 3.23 C113.76 5.19, 125.91 8.24, 132.21 12.11 C138.5 15.98, 140.38 21.93, 140.83 26.44 C141.28 30.96, 140.09 35.47, 134.91 39.19 C129.73 42.91, 119.85 46.45, 109.76 48.78 C99.67 51.11, 86.23 53.03, 74.35 53.16 C62.47 53.3, 49.01 51.79, 38.48 49.58 C27.95 47.37, 17.74 43.75, 11.17 39.91 C4.6 36.07, -0.47 30.9, -0.93 26.54 C-1.39 22.18, 2.73 17.7, 8.41 13.75 C14.1 9.79, 23.15 5.24, 33.18 2.81 C43.22 0.37, 62.63 -0.25, 68.64 -0.87 C74.65 -1.49, 69.27 -1.65, 69.24 -0.92" stroke="#c92a2a" stroke-width="1" fill="none"></path></g><g transform="translate(417.50660370277865 378.91666666666674) rotate(0 32.5 13)"><text x="0" y="19" font-family="Virgil, Segoe UI Emoji" font-size="20px" fill="#c92a2a" text-anchor="start" style="white-space: pre;" direction="ltr">nombre</text></g><g stroke-linecap="round" transform="translate(222.67327036944505 462.41666666666686) rotate(0 71 26.5)"><path d="M45.77 0.79 C56.11 -1.23, 71 -1.64, 82.83 -0.64 C94.67 0.36, 107.54 3.67, 116.79 6.8 C126.04 9.94, 134.19 14.3, 138.34 18.15 C142.48 22.01, 143.62 25.57, 141.66 29.92 C139.69 34.27, 134.26 40.69, 126.53 44.27 C118.8 47.84, 106.33 50.14, 95.28 51.39 C84.23 52.64, 71.74 52.64, 60.24 51.76 C48.74 50.88, 35.53 48.92, 26.29 46.1 C17.06 43.28, 9.22 38.67, 4.84 34.83 C0.46 30.99, -1.81 27.35, 0.02 23.06 C1.85 18.78, 7.2 12.92, 15.82 9.14 C24.44 5.37, 44.97 1.66, 51.73 0.42 C58.48 -0.82, 56.26 1.18, 56.35 1.69 M40.53 3.66 C50.44 2.04, 66.39 1.43, 78.61 1.63 C90.82 1.82, 104.38 2.46, 113.81 4.82 C123.25 7.19, 130.47 11.96, 135.22 15.82 C139.97 19.67, 143.56 23.58, 142.31 27.94 C141.07 32.29, 134.66 38.28, 127.74 41.94 C120.81 45.61, 111.31 48.23, 100.76 49.95 C90.21 51.67, 76.12 52.76, 64.41 52.27 C52.7 51.78, 40.05 49.53, 30.49 47 C20.93 44.47, 11.97 40.76, 7.04 37.09 C2.11 33.41, 0.06 29.52, 0.92 24.94 C1.79 20.36, 5.39 13.47, 12.22 9.58 C19.05 5.7, 37.09 2.9, 41.89 1.64 C46.7 0.38, 40.73 1.7, 41.05 2.02" stroke="#c92a2a" stroke-width="1" fill="none"></path></g><g transform="translate(281.67327036944505 473.0833333333335) rotate(0 9 13)"><text x="0" y="19" font-family="Virgil, Segoe UI Emoji" font-size="20px" fill="#c92a2a" text-anchor="start" style="white-space: pre;" direction="ltr">id</text></g><g stroke-linecap="round" transform="translate(918.3399370361112 627.4166666666667) rotate(0 79.5 29)"><path d="M14.5 0 M14.5 0 C40.53 2.38, 67.95 -0.54, 144.5 0 M14.5 0 C61.65 0.8, 108.75 1.39, 144.5 0 M144.5 0 C155.26 0.72, 159.63 4.09, 159 14.5 M144.5 0 C155.98 -1.77, 157.82 5.95, 159 14.5 M159 14.5 C158.48 27.19, 160.54 38.24, 159 43.5 M159 14.5 C158.95 23.89, 159.04 33.96, 159 43.5 M159 43.5 C160.03 51.42, 153.93 58.52, 144.5 58 M159 43.5 C158.47 54.18, 156.15 60.04, 144.5 58 M144.5 58 C108.41 56.65, 74.83 55.12, 14.5 58 M144.5 58 C116.04 58.24, 89.31 57.74, 14.5 58 M14.5 58 C5.03 59.6, -1.56 52.97, 0 43.5 M14.5 58 C3.83 57.01, 1.37 51.55, 0 43.5 M0 43.5 C1.39 31.78, 2 22.53, 0 14.5 M0 43.5 C0.47 35.53, -0.4 29.82, 0 14.5 M0 14.5 C-0.25 5.8, 4.89 -1.8, 14.5 0 M0 14.5 C1.99 6.49, 5.45 -1.17, 14.5 0" stroke="#0b7285" stroke-width="1" fill="none"></path></g><g stroke-linecap="round" transform="translate(1006.0066037027784 470.7500000000001) rotate(0 71 26.5)"><path d="M87.34 0.02 C98.39 0.53, 109.37 4.1, 118.03 7.08 C126.68 10.05, 135.41 13.67, 139.27 17.88 C143.14 22.1, 144 27.79, 141.22 32.37 C138.45 36.94, 130.9 42.25, 122.62 45.33 C114.33 48.41, 102.83 49.66, 91.53 50.84 C80.22 52.02, 66.3 53.4, 54.76 52.43 C43.22 51.47, 30.88 48.05, 22.28 45.05 C13.67 42.06, 6.55 38.61, 3.14 34.46 C-0.26 30.31, -0.88 24.58, 1.84 20.15 C4.57 15.72, 11.41 10.89, 19.49 7.88 C27.56 4.88, 38.45 3.27, 50.3 2.11 C62.16 0.95, 83.15 0.99, 90.62 0.94 C98.09 0.88, 95.39 1.22, 95.12 1.8 M62.83 0.63 C73.92 -0.37, 89.29 0.58, 99.84 2.27 C110.4 3.96, 119.13 7.21, 126.16 10.77 C133.18 14.33, 140.38 19.14, 141.98 23.66 C143.58 28.17, 140.38 33.71, 135.76 37.85 C131.15 41.99, 123.52 45.83, 114.27 48.5 C105.02 51.17, 91.81 53.44, 80.26 53.89 C68.72 54.33, 55.74 52.87, 44.99 51.17 C34.23 49.46, 23.01 47.24, 15.75 43.65 C8.49 40.06, 2.98 33.95, 1.41 29.63 C-0.17 25.3, 1.81 21.67, 6.31 17.71 C10.81 13.74, 19.18 8.91, 28.38 5.83 C37.59 2.76, 55.75 0.16, 61.53 -0.75 C67.31 -1.67, 62.85 -0.15, 63.08 0.33" stroke="#0b7285" stroke-width="1" fill="none"></path></g><g transform="translate(1045.0066037027784 482.2500000000001) rotate(0 32.5 13)"><text x="0" y="19" font-family="Virgil, Segoe UI Emoji" font-size="20px" fill="#0b7285" text-anchor="start" style="white-space: pre;" direction="ltr">nombre</text></g><g stroke-linecap="round" transform="translate(1092.673270369445 532.4166666666667) rotate(0 71 26.5)"><path d="M62.59 -0.49 C73.6 -1.11, 87.93 1.15, 98.79 2.93 C109.65 4.72, 120.5 6.91, 127.75 10.21 C135 13.52, 140.79 18.26, 142.29 22.74 C143.78 27.23, 141.55 33.14, 136.72 37.14 C131.88 41.14, 122.88 44.06, 113.27 46.76 C103.66 49.46, 90.63 52.73, 79.06 53.33 C67.49 53.92, 54.53 52.22, 43.84 50.33 C33.15 48.44, 22.23 45.41, 14.91 41.98 C7.59 38.55, 1.38 34.02, -0.09 29.74 C-1.57 25.45, 1.27 20.36, 6.07 16.29 C10.86 12.22, 17.67 7.87, 28.67 5.29 C39.67 2.72, 63.49 1.57, 72.08 0.82 C80.67 0.07, 80.34 0.56, 80.21 0.78 M58.22 0.98 C68.87 -0.39, 83.11 -0.2, 94.21 1.01 C105.3 2.22, 117.27 4.92, 124.81 8.26 C132.35 11.61, 137.26 16.66, 139.46 21.09 C141.67 25.53, 141.63 30.39, 138.03 34.86 C134.43 39.33, 126.95 44.95, 117.86 47.9 C108.77 50.85, 95.45 52.2, 83.5 52.57 C71.55 52.94, 57.37 51.52, 46.15 50.11 C34.93 48.7, 23.63 47.38, 16.2 44.12 C8.76 40.86, 3.68 35.04, 1.53 30.56 C-0.61 26.09, -0.56 21.18, 3.32 17.26 C7.2 13.34, 15.78 9.6, 24.8 7.04 C33.82 4.47, 51.74 2.96, 57.45 1.85 C63.16 0.74, 58.9 0.29, 59.04 0.39" stroke="#0b7285" stroke-width="1" fill="none"></path></g><g transform="translate(1151.673270369445 543.9166666666667) rotate(0 9 13)"><text x="0" y="19" font-family="Virgil, Segoe UI Emoji" font-size="20px" fill="#0b7285" text-anchor="start" style="white-space: pre;" direction="ltr">id</text></g><g transform="translate(1162.006603702778 476.4166666666668) rotate(0 137 21)"><text x="0" y="15" font-family="Virgil, Segoe UI Emoji" font-size="16px" fill="#0b7285" text-anchor="start" style="white-space: pre;" direction="ltr">(pej: MOVISTAR TEAM</text><text x="0" y="36" font-family="Virgil, Segoe UI Emoji" font-size="16px" fill="#0b7285" text-anchor="start" style="white-space: pre;" direction="ltr"> - así, el ID sería o num o  MVT)</text></g><g stroke-linecap="round"><g transform="translate(1148.673270369445 568.9166666666667) rotate(0 12.250529025903234 -0.17426712895766627)"><path d="M-0.18 0.16 C4.01 -0.06, 21.94 -0.75, 26.23 -0.72 M-1.73 -0.8 C2.16 -0.94, 20.11 0.61, 25.05 0.45" stroke="#0b7285" stroke-width="1" fill="none"></path></g></g><mask></mask><g stroke-linecap="round"><g transform="translate(276.17327036944505 498.91666666666674) rotate(0 13.455309143460681 -0.2549589670185526)"><path d="M0.04 -1.14 C4.52 -1.37, 21.72 -1.27, 25.97 -1.39 M-1.4 0.88 C3.56 0.8, 23.45 0.19, 28.31 -0.14" stroke="#c92a2a" stroke-width="1" fill="none"></path></g></g><mask></mask><g stroke-linecap="round" transform="translate(277.67327036944494 406.5833333333335) rotate(0 71 26.5)"><path d="M81.96 -0.6 C93.54 -0.5, 107.13 2.41, 116.36 5.28 C125.58 8.14, 133.33 12.29, 137.34 16.6 C141.35 20.91, 142.33 26.58, 140.42 31.14 C138.51 35.69, 133.18 40.51, 125.87 43.93 C118.56 47.36, 107.46 50.17, 96.57 51.71 C85.68 53.26, 72.24 53.97, 60.51 53.22 C48.79 52.48, 35.37 50.09, 26.25 47.24 C17.13 44.4, 9.87 40.2, 5.8 36.15 C1.73 32.1, 0.19 27.32, 1.83 22.94 C3.47 18.56, 8.54 13.54, 15.64 9.87 C22.75 6.21, 32.78 2.49, 44.45 0.95 C56.12 -0.58, 78.15 0.64, 85.68 0.68 C93.2 0.73, 89.79 0.89, 89.6 1.25 M69.03 -0.83 C79.98 -1.26, 92.81 2.18, 103.02 4.27 C113.24 6.37, 123.93 8.25, 130.33 11.74 C136.74 15.23, 140.57 20.63, 141.45 25.19 C142.33 29.74, 141.06 35.28, 135.59 39.07 C130.12 42.86, 118.61 45.66, 108.64 47.95 C98.67 50.24, 87.4 52.61, 75.77 52.81 C64.13 53, 49.78 51.01, 38.8 49.13 C27.82 47.25, 16.51 45.08, 9.87 41.54 C3.24 38.01, -0.73 32.67, -1 27.94 C-1.27 23.21, 2.56 17.09, 8.26 13.18 C13.96 9.27, 23.16 6.54, 33.2 4.47 C43.24 2.4, 62.85 1.35, 68.49 0.77 C74.14 0.2, 67.28 0.72, 67.05 1.03" stroke="#c92a2a" stroke-width="1" fill="none"></path></g><g transform="translate(316.67327036944505 417.2500000000001) rotate(0 31.5 13)"><text x="0" y="19" font-family="Virgil, Segoe UI Emoji" font-size="20px" fill="#c92a2a" text-anchor="start" style="white-space: pre;" direction="ltr">dorsal</text></g><g transform="translate(904.1732703694449 629.25) rotate(0 3 10.5)"><text x="0" y="15" font-family="Virgil, Segoe UI Emoji" font-size="16px" fill="#c92a2a" text-anchor="start" style="white-space: pre;" direction="ltr">1</text></g><g stroke-linecap="round"><g transform="translate(611.1732703694449 655.5833333333334) rotate(0 61.150608595277504 -0.49249736012581025)"><path d="M0.55 -0.49 C20.54 -0.81, 100.67 -0.64, 120.71 -0.77 M-0.61 -1.79 C19.67 -1.39, 102.27 0.54, 122.91 0.8" stroke="#000000" stroke-width="1" fill="none"></path></g></g><mask></mask><g stroke-linecap="round"><g transform="translate(803.6732703694449 655.5833333333334) rotate(0 58.482422161997874 -0.22131703133692326)"><path d="M1.11 -1.13 C20.38 -0.93, 97.49 0.5, 116.73 0.52 M0.24 0.89 C19.33 0.8, 96.94 -1.15, 116.25 -1.33" stroke="#000000" stroke-width="1" fill="none"></path></g></g><mask></mask><g stroke-linecap="round"><g transform="translate(764.5066037027782 532.2500000000001) rotate(0 1.1049181117629132 43.17712686426779)"><path d="M0.53 -0.82 C0.84 13.42, 2.5 71.4, 2.87 85.99 M-0.66 1.36 C-0.56 15.7, 1.65 72.72, 2.11 87.18" stroke="#000000" stroke-width="1" fill="none"></path></g></g><mask></mask><g stroke-linecap="round"><g transform="translate(1003.6732703694449 626.4166666666667) rotate(0 24.368435143831448 -51.769317568715934)"><path d="M-0.15 -0.89 C7.98 -18.23, 40.03 -87.77, 48.22 -104.79 M-1.69 1.25 C6.86 -15.87, 42.13 -85.91, 50.43 -103.58" stroke="#0b7285" stroke-width="1" fill="none"></path></g></g><mask></mask><g stroke-linecap="round"><g transform="translate(1001.1732703694449 625.5833333333334) rotate(0 77.23537673394037 -20.54059846691939)"><path d="M0.86 1.09 C26.63 -5.49, 128.92 -33.4, 154.61 -40.32 M-0.14 0.62 C25.51 -6.25, 128.09 -34.97, 153.9 -42.17" stroke="#0b7285" stroke-width="1" fill="none"></path></g></g><mask></mask><g transform="translate(652.8399370361112 409.75000000000006) rotate(0 129.5 27)"><text x="0" y="13" font-family="Virgil, Segoe UI Emoji" font-size="13.106918238993714px" fill="#000000" text-anchor="start" style="white-space: pre;" direction="ltr">entidad común ciclista/equipo</text><text x="0" y="31" font-family="Virgil, Segoe UI Emoji" font-size="13.106918238993714px" fill="#000000" text-anchor="start" style="white-space: pre;" direction="ltr">ya que, 'es un ciclista del propio equipo,</text><text x="0" y="49" font-family="Virgil, Segoe UI Emoji" font-size="13.106918238993714px" fill="#000000" text-anchor="start" style="white-space: pre;" direction="ltr">el representante del equipo'</text></g><g transform="translate(741.3399370361115 944.5833333333333) rotate(0 30.5 13)"><text x="0" y="19" font-family="Virgil, Segoe UI Emoji" font-size="20px" fill="#5c940d" text-anchor="start" style="white-space: pre;" direction="ltr">etapa</text></g><g stroke-linecap="round" transform="translate(699.1732703694445 932.4166666666667) rotate(0 79.5 29)"><path d="M14.5 0 M14.5 0 C54.26 -0.89, 94.93 0.23, 144.5 0 M14.5 0 C58.3 -1.14, 104.13 0.28, 144.5 0 M144.5 0 C153.64 -1.74, 157.3 6.81, 159 14.5 M144.5 0 C153.62 -2.06, 159.27 3.43, 159 14.5 M159 14.5 C157.18 21.78, 158.06 33.22, 159 43.5 M159 14.5 C159.96 19.74, 158.48 26.95, 159 43.5 M159 43.5 C160.15 54.84, 155.7 59.97, 144.5 58 M159 43.5 C157.52 53.87, 155.82 56.88, 144.5 58 M144.5 58 C110.68 55.44, 74.97 56.72, 14.5 58 M144.5 58 C105.11 57.18, 65.97 58.45, 14.5 58 M14.5 58 C6.69 59.71, 0.17 51.88, 0 43.5 M14.5 58 C5.68 59.43, -2.19 53.48, 0 43.5 M0 43.5 C1.87 37.92, 1.08 30.45, 0 14.5 M0 43.5 C0.37 34.83, 0.01 25.79, 0 14.5 M0 14.5 C0.49 3.73, 4.44 1.02, 14.5 0 M0 14.5 C1 4.69, 3.38 -0.23, 14.5 0" stroke="#5c940d" stroke-width="1" fill="none"></path></g><g stroke-linecap="round" transform="translate(495.3399370361119 796.25) rotate(0 37.5 35.99999999999997)"><path d="M47.5 9.25 M47.5 9.25 C50.88 12.88, 55.52 19.08, 65.5 27.75 M47.5 9.25 C52.64 14.01, 55.24 18.38, 65.5 27.75 M65.5 27.75 C73.31 36.85, 73.84 35.24, 65.5 46.25 M65.5 27.75 C75.76 38.2, 73.38 35.29, 65.5 46.25 M65.5 46.25 C61.57 49.5, 54.75 57.27, 47.5 62.75 M65.5 46.25 C60.27 50.36, 55.05 54.57, 47.5 62.75 M47.5 62.75 C36.36 72.03, 37.74 71.6, 28.5 62.75 M47.5 62.75 C38.85 73.94, 39.94 72.87, 28.5 62.75 M28.5 62.75 C21.82 56.71, 16.87 52.49, 9.5 46.25 M28.5 62.75 C20.47 57.16, 15.15 50.01, 9.5 46.25 M9.5 46.25 C1.12 35.78, -1.85 37.45, 9.5 27.75 M9.5 46.25 C1.29 36.23, -0.29 37.21, 9.5 27.75 M9.5 27.75 C16.95 22.52, 21.31 16.2, 28.5 9.25 M9.5 27.75 C13.52 23.04, 19.55 17.7, 28.5 9.25 M28.5 9.25 C38.86 -0.19, 39.49 -0.45, 47.5 9.25 M28.5 9.25 C39.17 -1.01, 36.18 -0.34, 47.5 9.25" stroke="#000000" stroke-width="1" fill="none"></path></g><g stroke-linecap="round"><g transform="translate(534.5066037027784 798.0833333333333) rotate(0 -1.6240074074935364 -54.31490045587998)"><path d="M0 -0.24 C-0.29 -17.92, -1.91 -88.93, -2.66 -106.69 M-1.45 -1.41 C-1.76 -19.37, -3.13 -90.5, -3.25 -108.39" stroke="#000000" stroke-width="1" fill="none"></path></g></g><mask></mask><g stroke-linecap="round"><g transform="translate(534.5066037027784 868.0833333333333) rotate(0 1.3003913219256447 43.88139796629548)"><path d="M-0.81 -0.91 C-0.69 13.86, 0.68 73.79, 1.03 88.68 M0.96 1.22 C1.46 15.68, 3.51 72.96, 3.41 87.17" stroke="#000000" stroke-width="1" fill="none"></path></g></g><mask></mask><g transform="translate(1088.8399370361115 628.75) rotate(0 133.5 25.5)"><text x="0" y="12" font-family="Virgil, Segoe UI Emoji" font-size="12.350877192982445px" fill="#0b7285" text-anchor="start" style="white-space: pre;" direction="ltr">(relación 1..N pq ya que mínimo habrá </text><text x="0" y="29" font-family="Virgil, Segoe UI Emoji" font-size="12.350877192982445px" fill="#0b7285" text-anchor="start" style="white-space: pre;" direction="ltr">1 ciclista por equipo que puede ser </text><text x="0" y="46" font-family="Virgil, Segoe UI Emoji" font-size="12.350877192982445px" fill="#0b7285" text-anchor="start" style="white-space: pre;" direction="ltr">su propio representante según el enunciado)</text></g><g transform="translate(749.1732703694449 643.7499999999998) rotate(0 15.5 8.5)"><text x="0" y="12" font-family="Virgil, Segoe UI Emoji" font-size="12.350877192982445px" fill="#000000" text-anchor="start" style="white-space: pre;" direction="ltr">tiene</text></g><g stroke-linecap="round" transform="translate(965.3399370361117 792.7746439000048) rotate(0 37.5 36)"><path d="M47.5 9.25 M47.5 9.25 C54.19 14.22, 56.49 18.22, 65.5 27.75 M47.5 9.25 C51.88 13.09, 55.17 17.22, 65.5 27.75 M65.5 27.75 C76.53 35.45, 76.27 37.16, 65.5 46.25 M65.5 27.75 C74.83 36.92, 74.58 38.54, 65.5 46.25 M65.5 46.25 C60.76 52.85, 54.59 57.14, 47.5 62.75 M65.5 46.25 C62.67 49.04, 57.77 52.67, 47.5 62.75 M47.5 62.75 C36.09 70.57, 39.25 73.08, 28.5 62.75 M47.5 62.75 C40.19 73.02, 39.97 73.82, 28.5 62.75 M28.5 62.75 C24.4 59.34, 21.42 55.35, 9.5 46.25 M28.5 62.75 C24.04 58.67, 18.74 54.05, 9.5 46.25 M9.5 46.25 C-1.34 36.94, -0.14 38.68, 9.5 27.75 M9.5 46.25 C0.17 36.38, -1.61 37.88, 9.5 27.75 M9.5 27.75 C17.23 22.57, 20.36 16.46, 28.5 9.25 M9.5 27.75 C15.04 22.85, 19.71 17.4, 28.5 9.25 M28.5 9.25 C38.03 1.39, 37.03 0.45, 47.5 9.25 M28.5 9.25 C39.17 0.5, 38.71 0.66, 47.5 9.25" stroke="#000000" stroke-width="1" fill="none"></path></g><g stroke-linecap="round"><g transform="translate(1004.5066037027782 794.607977233338) rotate(0 -1.7135177927711993 -54.50070819482207)"><path d="M0.86 -0.3 C0.26 -18.43, -3.41 -90.76, -4.29 -108.7 M-0.14 -1.51 C-0.32 -19.55, -1.75 -90.23, -2.08 -107.79" stroke="#000000" stroke-width="1" fill="none"></path></g></g><mask></mask><g stroke-linecap="round"><g transform="translate(1004.5066037027782 864.6079772333378) rotate(0 1.152404719868514 45.69149303840936)"><path d="M-0.3 -0.96 C-0.24 14.13, 0.22 75.67, 0.47 91.39 M1.74 1.15 C2.14 16.27, 2.81 77.29, 2.55 92.34" stroke="#000000" stroke-width="1" fill="none"></path></g></g><mask></mask><g stroke-linecap="round"><g transform="translate(699.5066037027784 961.4166666666665) rotate(0 -81.87601555642203 -0.8291779039084872)"><path d="M0.34 0.72 C-26.83 0.78, -135.89 -0.4, -162.92 -0.75 M-0.94 0.06 C-28.32 -0.11, -137.2 -2.4, -164.1 -2.38" stroke="#000000" stroke-width="1" fill="none"></path></g></g><mask></mask><g stroke-linecap="round"><g transform="translate(1007.0066037027782 960.5833333333333) rotate(0 -73.17956779773033 0.25256367480062636)"><path d="M0.28 -0.58 C-24.25 -0.99, -122.45 -1.3, -146.64 -1.25 M-1.03 1.72 C-25.23 1.99, -120.34 0.75, -144.36 0.07" stroke="#000000" stroke-width="1" fill="none"></path></g></g><mask></mask><g transform="translate(519.0066037027784 822.9166666666665) rotate(0 15 8.5)"><text x="0" y="12" font-family="Virgil, Segoe UI Emoji" font-size="12.350877192982445px" fill="#000000" text-anchor="start" style="white-space: pre;" direction="ltr">gana</text></g><g transform="translate(664.8399370361121 935.083333333333) rotate(0 16 10.5)"><text x="0" y="15" font-family="Virgil, Segoe UI Emoji" font-size="16px" fill="#c92a2a" text-anchor="start" style="white-space: pre;" direction="ltr">0..N</text></g><g transform="translate(515.3399370361113 693.4166666666666) rotate(0 3 10.5)"><text x="0" y="15" font-family="Virgil, Segoe UI Emoji" font-size="16px" fill="#5c940d" text-anchor="start" style="white-space: pre;" direction="ltr">1</text></g><g transform="translate(974.5066037027789 819.583333333333) rotate(0 27.5 8.5)"><text x="0" y="12" font-family="Virgil, Segoe UI Emoji" font-size="12.350877192982445px" fill="#000000" text-anchor="start" style="white-space: pre;" direction="ltr">participa</text></g><g transform="translate(983.1732703694452 689.2499999999999) rotate(0 6 10.5)"><text x="0" y="15" font-family="Virgil, Segoe UI Emoji" font-size="16px" fill="#5c940d" text-anchor="start" style="white-space: pre;" direction="ltr">N</text></g><g transform="translate(866.0066037027784 962.5833333333333) rotate(0 3 10.5)"><text x="0" y="15" font-family="Virgil, Segoe UI Emoji" font-size="16px" fill="#0b7285" text-anchor="start" style="white-space: pre;" direction="ltr">1</text></g><g transform="translate(743.006603702778 1280.4166666666663) rotate(0 48.5 13)"><text x="0" y="19" font-family="Virgil, Segoe UI Emoji" font-size="20px" fill="#862e9c" text-anchor="start" style="white-space: pre;" direction="ltr">categoría</text></g><g stroke-linecap="round" transform="translate(714.1732703694447 1266.583333333333) rotate(0 79.5 29)"><path d="M14.5 0 M14.5 0 C54.14 -1.19, 90.15 0.58, 144.5 0 M14.5 0 C66.28 0.67, 115.96 0.7, 144.5 0 M144.5 0 C154.01 0.08, 157.26 5.23, 159 14.5 M144.5 0 C152.51 -2.03, 158.62 6.2, 159 14.5 M159 14.5 C160.24 25.64, 158.71 36.93, 159 43.5 M159 14.5 C159.11 23.71, 159.55 32.96, 159 43.5 M159 43.5 C160.96 52.24, 153.1 56.68, 144.5 58 M159 43.5 C159.34 52.64, 154.05 55.77, 144.5 58 M144.5 58 C101.36 57.33, 60.31 58.95, 14.5 58 M144.5 58 C107.4 56.7, 69.66 57.7, 14.5 58 M14.5 58 C4.47 57.47, -0.16 52.52, 0 43.5 M14.5 58 C2.65 57.6, -1.13 52.82, 0 43.5 M0 43.5 C0.44 34.35, 1.74 26.99, 0 14.5 M0 43.5 C-0.73 37.71, -0.4 31.68, 0 14.5 M0 14.5 C-0.07 4.35, 4.44 -0.71, 14.5 0 M0 14.5 C0.86 6.52, 3.21 -1.84, 14.5 0" stroke="#862e9c" stroke-width="1" fill="none"></path></g><g stroke-linecap="round" transform="translate(747.0066037027784 1097.7619114937152) rotate(0 37.5 36)"><path d="M47.5 9.25 M47.5 9.25 C52.45 13.9, 58.09 23.31, 65.5 27.75 M47.5 9.25 C53.18 14.2, 57.8 18.66, 65.5 27.75 M65.5 27.75 C75.3 38.24, 76.94 35.53, 65.5 46.25 M65.5 27.75 C75.17 39.05, 74.21 38.35, 65.5 46.25 M65.5 46.25 C57.92 51.28, 49.61 60.82, 47.5 62.75 M65.5 46.25 C60.91 51.55, 55.44 54.72, 47.5 62.75 M47.5 62.75 C39.07 73.81, 38.12 71.33, 28.5 62.75 M47.5 62.75 C36.36 73.04, 39.57 74.18, 28.5 62.75 M28.5 62.75 C25.44 57.59, 17.64 55.11, 9.5 46.25 M28.5 62.75 C21.07 57.31, 13.99 50.04, 9.5 46.25 M9.5 46.25 C-1.22 38.92, 0.86 36.26, 9.5 27.75 M9.5 46.25 C-2.06 35.06, 0.15 39.01, 9.5 27.75 M9.5 27.75 C14.72 20.04, 23.47 15.52, 28.5 9.25 M9.5 27.75 C14.18 24.12, 16.54 20.02, 28.5 9.25 M28.5 9.25 C39.97 -0.49, 38.89 0.3, 47.5 9.25 M28.5 9.25 C36.34 -0.7, 38.63 1, 47.5 9.25" stroke="#000000" stroke-width="1" fill="none"></path></g><g stroke-linecap="round"><g transform="translate(786.1732703694449 1099.5952448270484) rotate(0 -1.673661554056821 -53.74067880804654)"><path d="M-0.75 -1.08 C-1.51 -18.76, -3.89 -89.07, -4.41 -106.73 M1.06 0.97 C0.64 -16.99, -1.27 -90.1, -2.26 -108.46" stroke="#000000" stroke-width="1" fill="none"></path></g></g><mask></mask><g stroke-linecap="round"><g transform="translate(786.1732703694449 1169.5952448270482) rotate(0 0.6781927031773876 46.09028872926257)"><path d="M-1.08 -1.07 C-0.57 14.38, 1.9 76.47, 2.43 91.99 M0.56 0.98 C1.03 16.66, 1.72 77.9, 1.89 93.25" stroke="#000000" stroke-width="1" fill="none"></path></g></g><mask></mask><g transform="translate(734.5066037027789 1123.7372675937104) rotate(0 47 8.5)"><text x="0" y="12" font-family="Virgil, Segoe UI Emoji" font-size="12.350877192982445px" fill="#000000" text-anchor="start" style="white-space: pre;" direction="ltr">tiene/pertenece</text></g><g stroke-linecap="round" transform="translate(812.2566037027784 1414.9166666666665) rotate(0 71 26.5)"><path d="M74.75 -0.27 C85.91 -0.2, 98.55 2.79, 108.43 5.15 C118.31 7.51, 128.57 10.17, 134.03 13.87 C139.49 17.58, 141.9 22.77, 141.2 27.38 C140.5 31.99, 135.99 37.6, 129.81 41.54 C123.62 45.49, 114.49 49.01, 104.09 51.03 C93.68 53.06, 79.43 54.09, 67.37 53.69 C55.32 53.29, 41.81 51.27, 31.75 48.63 C21.68 45.99, 12.34 41.73, 6.98 37.87 C1.63 34.02, -1 29.75, -0.36 25.51 C0.27 21.26, 4.22 16.2, 10.79 12.38 C17.37 8.56, 27.11 4.61, 39.09 2.58 C51.08 0.56, 74.46 0.33, 82.68 0.24 C90.91 0.15, 88.82 1.44, 88.43 2.05 M103.72 4.01 C114.52 5.41, 125.02 7.33, 131.53 10.95 C138.03 14.57, 142.53 21.15, 142.76 25.72 C142.98 30.29, 138.53 34.62, 132.88 38.38 C127.22 42.13, 118.37 45.93, 108.85 48.25 C99.32 50.56, 87.69 51.8, 75.72 52.28 C63.74 52.76, 47.57 53.22, 37.01 51.12 C26.45 49.03, 18.35 43.66, 12.37 39.73 C6.38 35.8, 2.09 31.97, 1.11 27.52 C0.13 23.08, 1 17.07, 6.46 13.07 C11.93 9.06, 23.83 5.53, 33.9 3.48 C43.96 1.44, 55.22 0.79, 66.84 0.81 C78.47 0.84, 97.39 3.22, 103.63 3.65 C109.88 4.09, 105.09 3.23, 104.31 3.42" stroke="#862e9c" stroke-width="1" fill="none"></path></g><g transform="translate(836.2566037027784 1423.916666666666) rotate(0 51.5 13)"><text x="0" y="19" font-family="Virgil, Segoe UI Emoji" font-size="20px" fill="#862e9c" text-anchor="start" style="white-space: pre;" direction="ltr">descripción</text></g><g stroke-linecap="round" transform="translate(630.5899370361121 1417.4166666666663) rotate(0 71 26.5)"><path d="M49.35 2.11 C59.72 0.49, 75.38 -0.56, 86.94 0.21 C98.5 0.99, 110.21 3.55, 118.71 6.76 C127.22 9.97, 134.29 15.04, 137.95 19.49 C141.62 23.94, 143.24 29.16, 140.68 33.46 C138.12 37.76, 130.92 42.27, 122.61 45.3 C114.3 48.34, 102.25 50.63, 90.83 51.67 C79.4 52.71, 65.53 52.46, 54.08 51.53 C42.63 50.61, 30.69 48.97, 22.12 46.12 C13.55 43.27, 5.92 38.76, 2.65 34.43 C-0.62 30.1, -0.37 24.51, 2.5 20.16 C5.37 15.81, 10.9 11.51, 19.85 8.34 C28.8 5.18, 48.98 2.28, 56.2 1.17 C63.41 0.05, 62.64 1.44, 63.13 1.64 M68.96 -1.2 C80.26 -1.85, 94.71 1.32, 104.84 3.53 C114.98 5.74, 123.68 8.52, 129.77 12.08 C135.87 15.64, 140.49 20.55, 141.39 24.89 C142.29 29.23, 140.84 33.95, 135.18 38.13 C129.53 42.31, 117.51 47.68, 107.47 49.97 C97.43 52.26, 86.34 51.92, 74.93 51.88 C63.53 51.83, 49.92 51.8, 39.02 49.72 C28.13 47.63, 15.84 43.18, 9.56 39.37 C3.29 35.55, 1.72 30.9, 1.35 26.84 C0.99 22.77, 2.07 18.64, 7.38 14.97 C12.68 11.29, 22.81 7.3, 33.18 4.81 C43.55 2.32, 63.97 0.83, 69.59 0.03 C75.21 -0.77, 67.18 -0.26, 66.9 0.02" stroke="#862e9c" stroke-width="1" fill="none"></path></g><g transform="translate(669.5899370361121 1428.0833333333328) rotate(0 32.5 13)"><text x="0" y="19" font-family="Virgil, Segoe UI Emoji" font-size="20px" fill="#862e9c" text-anchor="start" style="white-space: pre;" direction="ltr">nombre</text></g><g stroke-linecap="round"><g transform="translate(794.5066037027784 1325.583333333333) rotate(0 -45.80286905600076 46.135281575811064)"><path d="M-0.28 -0.54 C-15.79 14.65, -76.94 76.2, -92.17 91.69 M1.78 1.79 C-14.02 17.07, -77.68 77.48, -93.38 92.81" stroke="#862e9c" stroke-width="1" fill="none"></path></g></g><mask></mask><g stroke-linecap="round"><g transform="translate(797.0066037027784 1328.083333333333) rotate(0 41.22085882473266 43.89966200614185)"><path d="M0.43 1.05 C14.11 15.73, 69.38 72.99, 83.24 87.25 M-0.8 0.55 C12.69 14.95, 68.64 70.87, 82.68 85.43" stroke="#862e9c" stroke-width="1" fill="none"></path></g></g><mask></mask><g stroke-linecap="round" transform="translate(894.3399370361117 1345.7499999999995) rotate(0 71 26.5)"><path d="M50.01 0.36 C60.51 -1.16, 75.23 -0.61, 86.78 0.61 C98.33 1.84, 110.77 4.83, 119.33 7.69 C127.89 10.55, 134.77 13.7, 138.14 17.78 C141.51 21.85, 142.11 27.87, 139.55 32.15 C136.99 36.43, 130.43 40.13, 122.76 43.46 C115.09 46.79, 104.57 50.59, 93.53 52.14 C82.5 53.69, 68.34 53.79, 56.55 52.74 C44.76 51.7, 31.48 49.04, 22.79 45.88 C14.1 42.71, 7.87 37.87, 4.41 33.73 C0.94 29.59, -0.39 25.05, 1.98 21.05 C4.35 17.05, 9.33 13.16, 18.63 9.74 C27.92 6.31, 49.78 1.89, 57.75 0.52 C65.72 -0.85, 66.15 1.06, 66.44 1.54 M39.94 3.58 C50.04 1.2, 65.45 -0.52, 77.31 -0.5 C89.18 -0.48, 101.35 1.28, 111.13 3.73 C120.92 6.17, 130.76 10.01, 136.03 14.18 C141.31 18.34, 143.6 24.04, 142.79 28.72 C141.99 33.4, 138.22 38.71, 131.21 42.26 C124.21 45.81, 111.48 48.1, 100.76 50.04 C90.04 51.99, 78.49 54.37, 66.88 53.93 C55.27 53.49, 40.98 49.88, 31.12 47.4 C21.27 44.93, 13.04 42.85, 7.74 39.07 C2.44 35.29, -1.43 29.08, -0.67 24.7 C0.08 20.33, 5.42 16.59, 12.26 12.83 C19.11 9.06, 35.51 3.61, 40.38 2.1 C45.25 0.59, 41.18 3.36, 41.48 3.78" stroke="#862e9c" stroke-width="1" fill="none"></path></g><g transform="translate(953.3399370361117 1357.2499999999993) rotate(0 9 13)"><text x="0" y="19" font-family="Virgil, Segoe UI Emoji" font-size="20px" fill="#862e9c" text-anchor="start" style="white-space: pre;" direction="ltr">id</text></g><g stroke-linecap="round"><g transform="translate(947.8399370361117 1383.9166666666658) rotate(0 13.603821115128994 -0.47078985342318447)"><path d="M-0.75 0.3 C3.42 0.36, 21.35 0.27, 25.74 0.28 M1.05 -0.59 C5.53 -0.83, 23.49 -1.13, 27.96 -1.26" stroke="#862e9c" stroke-width="1" fill="none"></path></g></g><mask></mask><g stroke-linecap="round"><g transform="translate(794.5066037027784 1327.2499999999995) rotate(0 81.06513289635382 8.920437496892873)"><path d="M-0.7 -0.8 C26.62 2.2, 135.62 14.15, 162.83 17.53 M1.14 1.39 C28.49 4.58, 135.64 15.92, 162.49 18.64" stroke="#862e9c" stroke-width="1" fill="none"></path></g></g><mask></mask><g transform="translate(797.3399370361119 1241.7499999999995) rotate(0 3 10.5)"><text x="0" y="15" font-family="Virgil, Segoe UI Emoji" font-size="16px" fill="#5c940d" text-anchor="start" style="white-space: pre;" direction="ltr">1</text></g><g transform="translate(769.0066037027784 995.9166666666664) rotate(0 3 10.5)"><text x="0" y="15" font-family="Virgil, Segoe UI Emoji" font-size="16px" fill="#862e9c" text-anchor="start" style="white-space: pre;" direction="ltr">1</text></g><g stroke-linecap="round"><g transform="translate(853.6732703694452 988.9166666666663) rotate(0 116.02628113200421 53.65985630921864)"><path d="M0.87 0.39 C39.75 18.41, 193.55 89.99, 232.19 107.76 M-0.14 -0.44 C38.65 17.29, 192.39 88.66, 231.08 106.22" stroke="#5c940d" stroke-width="1" fill="none"></path></g></g><mask></mask><g stroke-linecap="round"><g transform="translate(855.3399370361119 988.0833333333329) rotate(0 127.69237676148771 9.990774215185127)"><path d="M-1.07 -0.04 C41.2 3.52, 211.37 17.94, 254.18 21.09 M0.57 -1.11 C43.17 2.17, 213.98 16.09, 256.46 19.54" stroke="#5c940d" stroke-width="1" fill="none"></path></g></g><mask></mask><g stroke-linecap="round" transform="translate(1111.8399370361117 979.9166666666663) rotate(0 71 26.5)"><path d="M45.79 2.53 C55.9 0.72, 69.88 0.86, 81.59 1.33 C93.3 1.79, 106.78 2.7, 116.06 5.3 C125.33 7.91, 132.91 12.72, 137.22 16.95 C141.54 21.18, 143.65 26.33, 141.94 30.69 C140.23 35.05, 134.49 39.66, 126.96 43.1 C119.43 46.53, 107.92 49.59, 96.77 51.31 C85.63 53.02, 72 54.22, 60.07 53.39 C48.14 52.55, 34.37 49.29, 25.19 46.31 C16.02 43.32, 9.19 39.57, 5.03 35.5 C0.86 31.44, -1.47 26.06, 0.2 21.9 C1.88 17.75, 7.3 14.07, 15.08 10.56 C22.86 7.06, 40.93 2.34, 46.88 0.88 C52.83 -0.59, 50.21 1.4, 50.78 1.76 M94.08 0.6 C104.77 1.78, 116.34 5.41, 123.98 8.96 C131.62 12.51, 137.43 17.3, 139.92 21.9 C142.41 26.5, 142.64 32.39, 138.92 36.57 C135.19 40.75, 126.88 44.19, 117.56 46.99 C108.24 49.8, 94.67 52.83, 83 53.39 C71.34 53.95, 58.65 51.82, 47.58 50.35 C36.5 48.87, 24.54 47.92, 16.57 44.54 C8.59 41.15, 1.61 34.61, -0.26 30.02 C-2.12 25.43, 0.95 20.96, 5.36 17.01 C9.76 13.06, 17.08 9.21, 26.15 6.33 C35.22 3.45, 48.39 0.55, 59.77 -0.25 C71.14 -1.04, 88.58 1.34, 94.41 1.58 C100.23 1.81, 94.84 0.87, 94.71 1.17" stroke="#5c940d" stroke-width="1" fill="none"></path></g><g transform="translate(1154.1732703694452 988.9166666666663) rotate(0 30 13)"><text x="0" y="19" font-family="Virgil, Segoe UI Emoji" font-size="20px" fill="#5c940d" text-anchor="start" style="white-space: pre;" direction="ltr">num++</text></g><g stroke-linecap="round"><g transform="translate(1146.173270369445 1013.0833333333329) rotate(0 38.349732415129665 1.5981220131041596)"><path d="M-0.87 -0.72 C12.07 -0.12, 64.48 2.05, 77.57 2.42 M0.88 1.51 C13.75 2.42, 64.34 3.79, 77.09 3.92" stroke="#5c940d" stroke-width="1" fill="none"></path></g></g><mask></mask><g stroke-linecap="round" transform="translate(1088.506603702778 1069.916666666666) rotate(0 71 26.5)"><path d="M67.81 0.75 C79.19 0.14, 93.68 0.58, 104.16 2.35 C114.64 4.13, 124.48 7.48, 130.68 11.41 C136.87 15.35, 140.77 21.32, 141.34 25.99 C141.9 30.65, 139.43 35.63, 134.05 39.43 C128.66 43.23, 119.07 46.49, 109.02 48.79 C98.97 51.09, 85.46 53, 73.75 53.22 C62.04 53.44, 49.27 52.17, 38.77 50.11 C28.26 48.04, 17.29 44.51, 10.72 40.82 C4.14 37.12, -0.4 32.4, -0.69 27.93 C-0.97 23.45, 3.27 17.97, 8.99 13.98 C14.71 10, 22.93 6.35, 33.65 4 C44.38 1.66, 66.26 0.43, 73.32 -0.06 C80.39 -0.55, 76.04 0.5, 76.04 1.05 M74.06 0.61 C85.48 0.58, 100.72 1.5, 110.83 3.78 C120.95 6.06, 129.43 10.13, 134.75 14.29 C140.07 18.44, 143.66 24.41, 142.77 28.72 C141.87 33.04, 136.29 36.54, 129.4 40.15 C122.5 43.76, 111.78 48.35, 101.39 50.37 C91 52.38, 78.88 52.69, 67.06 52.24 C55.24 51.79, 40.15 50.01, 30.46 47.65 C20.78 45.29, 14.05 42.08, 8.95 38.06 C3.85 34.05, -0.47 28.16, -0.15 23.55 C0.16 18.94, 4.05 13.74, 10.85 10.39 C17.65 7.05, 29.8 5.43, 40.65 3.47 C51.5 1.52, 70.11 -1.04, 75.94 -1.34 C81.76 -1.63, 75.67 1.24, 75.59 1.72" stroke="#5c940d" stroke-width="1" fill="none"></path></g><g transform="translate(1148.3399370361115 1079.7499999999995) rotate(0 12 13)"><text x="0" y="19" font-family="Virgil, Segoe UI Emoji" font-size="20px" fill="#5c940d" text-anchor="start" style="white-space: pre;" direction="ltr">km</text></g><g transform="translate(286.214937036111 1273.9999999999995) rotate(0 30 13)"><text x="0" y="19" font-family="Virgil, Segoe UI Emoji" font-size="20px" fill="#e67700" text-anchor="start" style="white-space: pre;" direction="ltr">premio</text></g><g stroke-linecap="round" transform="translate(238.21493703611088 1260.9999999999995) rotate(0 79.5 29)"><path d="M14.5 0 M14.5 0 C61.53 -1.58, 106.84 1.32, 144.5 0 M14.5 0 C42.96 -2.03, 72.92 -0.69, 144.5 0 M144.5 0 C155.39 0.85, 158.72 3.44, 159 14.5 M144.5 0 C154.96 -1.3, 158.67 7.11, 159 14.5 M159 14.5 C157.16 24.76, 160.8 33.07, 159 43.5 M159 14.5 C159.11 23.28, 158.41 31.37, 159 43.5 M159 43.5 C159.16 54.81, 153.77 59.32, 144.5 58 M159 43.5 C161.21 53.74, 155.71 58.6, 144.5 58 M144.5 58 C105.59 55.88, 66.49 57.79, 14.5 58 M144.5 58 C117.81 57.39, 90.29 57.56, 14.5 58 M14.5 58 C4.12 56.38, -0.68 53.55, 0 43.5 M14.5 58 C3.71 59.18, -1.01 54.17, 0 43.5 M0 43.5 C0.46 36.13, -1.22 24.81, 0 14.5 M0 43.5 C0.35 35.1, -1.02 27.29, 0 14.5 M0 14.5 C-1 2.94, 5.4 -0.29, 14.5 0 M0 14.5 C1.84 5.61, 6.23 -1.31, 14.5 0" stroke="#e67700" stroke-width="1" fill="none"></path></g><g transform="translate(177.79827036944482 1178.333333333333) rotate(0 35.5 13)"><text x="0" y="19" font-family="Virgil, Segoe UI Emoji" font-size="20px" fill="#e67700" text-anchor="start" style="white-space: pre;" direction="ltr">importe</text></g><g transform="translate(96.13160370277888 1264.9999999999998) rotate(0 9 13)"><text x="0" y="19" font-family="Virgil, Segoe UI Emoji" font-size="20px" fill="#e67700" text-anchor="start" style="white-space: pre;" direction="ltr">id</text></g><g stroke-linecap="round"><g transform="translate(235.21493703611145 1291.6666666666665) rotate(0 -29.099965195256914 -9.207136781762074)"><path d="M-0.78 0.88 C-10.67 -2.2, -49.79 -15.9, -59.22 -19.29 M1.02 0.29 C-8.51 -2.59, -47.21 -15.08, -56.97 -18.26" stroke="#e67700" stroke-width="1" fill="none"></path></g></g><mask></mask><g stroke-linecap="round"><g transform="translate(229.38160370277808 1220.833333333333) rotate(0 3.89802431132955 35.90040756439163)"><path d="M0.88 -0.88 C1.97 11.36, 4.94 60.78, 5.71 72.68 M-0.12 1.27 C1.42 13.26, 6.6 59.43, 7.92 71.1" stroke="#e67700" stroke-width="1" fill="none"></path></g></g><mask></mask><g stroke-linecap="round" transform="translate(35.881603702777966 1251.833333333333) rotate(0 71 26.5)"><path d="M99.79 2.76 C110.72 4.37, 122.32 8.06, 129.27 11.46 C136.22 14.86, 140.38 18.94, 141.51 23.17 C142.64 27.4, 140.92 32.54, 136.05 36.84 C131.18 41.15, 121.89 46.43, 112.29 49.01 C102.69 51.59, 90.26 52.17, 78.45 52.31 C66.63 52.44, 52.2 51.37, 41.39 49.81 C30.57 48.25, 20.48 46.44, 13.55 42.95 C6.61 39.46, 0.91 33.45, -0.21 28.87 C-1.34 24.28, 1.83 19.27, 6.78 15.43 C11.74 11.59, 20.13 8.2, 29.53 5.82 C38.94 3.44, 51.03 1.5, 63.21 1.13 C75.4 0.75, 95.83 3.05, 102.62 3.58 C109.41 4.12, 104.33 4.03, 103.95 4.33 M94.17 1.05 C105.17 1.83, 117.43 4.43, 125.39 7.86 C133.35 11.29, 140.05 17.04, 141.92 21.64 C143.8 26.24, 140.71 31.26, 136.66 35.45 C132.61 39.64, 126.54 44.07, 117.62 46.79 C108.71 49.5, 94.97 51.05, 83.16 51.75 C71.34 52.45, 57.94 52.4, 46.76 50.99 C35.57 49.59, 23.59 46.69, 16.06 43.31 C8.52 39.94, 3.44 35.1, 1.55 30.74 C-0.34 26.38, 0.76 21.18, 4.71 17.14 C8.66 13.09, 16.43 9.16, 25.24 6.47 C34.04 3.77, 45.98 1.63, 57.55 0.97 C69.12 0.31, 88.75 2.48, 94.65 2.5 C100.54 2.51, 93.4 0.73, 92.92 1.06" stroke="#e67700" stroke-width="1" fill="none"></path></g><g stroke-linecap="round"><g transform="translate(532.0066037027785 628.9166666666663) rotate(0 13.213839542718347 -86.04599089021791)"><path d="M-1.12 -1.01 C3.22 -29.79, 20.68 -143.14, 25.18 -171.55 M0.49 1.07 C5.3 -27.52, 23.45 -144.12, 27.55 -173.17" stroke="#c92a2a" stroke-width="1" fill="none"></path></g></g><mask></mask><g stroke-linecap="round"><g transform="translate(530.3399370361119 628.083333333333) rotate(0 -33.63227906839768 -104.3467105033497)"><path d="M1.13 0.05 C-10.14 -34.6, -56.37 -173.83, -68.04 -208.75 M0.26 -0.97 C-11.02 -35.38, -56.77 -172.8, -68.39 -207.42" stroke="#c92a2a" stroke-width="1" fill="none"></path></g></g><mask></mask><g stroke-linecap="round"><g transform="translate(531.1732703694452 623.9166666666663) rotate(0 -68.98041326974828 -86.22894401972489)"><path d="M-0.23 -0.24 C-23.28 -28.84, -114.86 -143.63, -137.73 -172.21 M-1.81 -1.42 C-24.56 -29.8, -113.39 -142.79, -135.58 -170.96" stroke="#c92a2a" stroke-width="1" fill="none"></path></g></g><mask></mask><g stroke-linecap="round"><g transform="translate(534.5066037027785 627.2499999999997) rotate(0 -87.35401904711966 -64.17299858016428)"><path d="M-0.62 0.74 C-29.8 -20.56, -146.91 -105.6, -175.96 -127.15 M1.25 0.08 C-27.48 -21.64, -144.27 -107.77, -173.75 -129.08" stroke="#c92a2a" stroke-width="1" fill="none"></path></g></g><mask></mask><g stroke-linecap="round" transform="translate(143.50660370277853 1166.5833333333328) rotate(0 71 26.5)"><path d="M93.41 1.79 C104.56 2.86, 117.16 5.46, 125.11 8.75 C133.07 12.04, 138.81 17.19, 141.11 21.51 C143.42 25.83, 142.94 30.43, 138.96 34.69 C134.98 38.96, 126.27 44.17, 117.24 47.09 C108.21 50, 96.22 51.26, 84.79 52.16 C73.37 53.06, 59.95 53.89, 48.71 52.47 C37.47 51.05, 25.28 47.08, 17.37 43.64 C9.46 40.21, 3.45 36.32, 1.25 31.86 C-0.94 27.4, 0.46 21.07, 4.2 16.88 C7.94 12.69, 14.65 9.49, 23.69 6.71 C32.74 3.93, 44.48 0.6, 58.46 0.19 C72.44 -0.22, 97.23 3.07, 107.57 4.25 C117.92 5.43, 120.87 6.89, 120.52 7.28 M82.07 1.49 C93.08 1.87, 105.34 3.22, 114.3 5.56 C123.26 7.89, 131.51 11.29, 135.83 15.53 C140.15 19.76, 141.52 26.48, 140.24 30.95 C138.95 35.42, 135.2 38.79, 128.12 42.36 C121.03 45.93, 108.86 50.81, 97.72 52.39 C86.58 53.97, 73.02 52.83, 61.25 51.84 C49.49 50.85, 36.39 49.23, 27.12 46.45 C17.86 43.66, 10.17 38.91, 5.65 35.13 C1.12 31.35, -1.73 27.7, -0.03 23.77 C1.67 19.84, 8.23 15.32, 15.84 11.56 C23.45 7.8, 34.82 3.11, 45.64 1.21 C56.46 -0.69, 74.68 0.49, 80.76 0.18 C86.84 -0.13, 82.21 -1.24, 82.1 -0.64" stroke="#e67700" stroke-width="1" fill="none"></path></g><g stroke-linecap="round"><g transform="translate(80.33993703611202 1290.583333333333) rotate(0 26.115878887722886 0.4022014026448346)"><path d="M-1.06 -0.01 C7.68 0.17, 44.33 1.79, 53.29 1.93 M0.59 -1.07 C9.08 -1.34, 43.82 -0.52, 52.32 -0.06" stroke="#e67700" stroke-width="1" fill="none"></path></g></g><mask></mask><g stroke-linecap="round" transform="translate(518.5329035671972 1253.7499999999995) rotate(0 37.49999999999994 36)"><path d="M47.5 9.25 M47.5 9.25 C51.8 15.54, 57.41 17.11, 65.5 27.75 M47.5 9.25 C54.82 15.94, 61.71 23.84, 65.5 27.75 M65.5 27.75 C74 38.47, 73.71 35.39, 65.5 46.25 M65.5 27.75 C75.09 37.17, 74.03 38.52, 65.5 46.25 M65.5 46.25 C60.73 49.84, 58.54 55.87, 47.5 62.75 M65.5 46.25 C60.19 51.76, 55.22 56.51, 47.5 62.75 M47.5 62.75 C36.63 71.05, 36.3 73.67, 28.5 62.75 M47.5 62.75 C36.1 74.17, 38 70.14, 28.5 62.75 M28.5 62.75 C21.77 54.85, 15.62 47.65, 9.5 46.25 M28.5 62.75 C21.7 57.63, 16.9 51.01, 9.5 46.25 M9.5 46.25 C1.22 35.84, -0.68 37.94, 9.5 27.75 M9.5 46.25 C0.08 34.98, 0.02 38.68, 9.5 27.75 M9.5 27.75 C14.76 22.25, 21.23 17.63, 28.5 9.25 M9.5 27.75 C15.92 20.19, 23.53 13.14, 28.5 9.25 M28.5 9.25 C38.31 -0.05, 37.34 -1.92, 47.5 9.25 M28.5 9.25 C35.97 0.61, 36.81 2.19, 47.5 9.25" stroke="#000000" stroke-width="1" fill="none"></path></g><g stroke-linecap="round"><g transform="translate(401.8662369005302 1290.1666666666663) rotate(0 60.26149879910827 -0.3505988004307028)"><path d="M-0.16 0.96 C20.08 0.83, 101.75 -1.47, 122.22 -1.66 M-1.7 0.42 C18.35 0.5, 100.88 -0.12, 121.56 -0.56" stroke="#000000" stroke-width="1" fill="none"></path></g></g><mask></mask><g stroke-linecap="round"><g transform="translate(594.3662369005301 1290.1666666666663) rotate(0 58.64382806619312 0.16908284648690142)"><path d="M0.96 0.55 C20.28 0.74, 95.75 1.13, 115.01 0.97 M0 -0.2 C19.78 -0.32, 97.94 -0.79, 117.28 -0.64" stroke="#000000" stroke-width="1" fill="none"></path></g></g><mask></mask><g transform="translate(526.532903567197 1279.999999999999) rotate(0 32.00000000000006 8.5)"><text x="0" y="12" font-family="Virgil, Segoe UI Emoji" font-size="12.350877192982445px" fill="#000000" text-anchor="start" style="white-space: pre;" direction="ltr">se obtiene</text></g><g transform="translate(701.5066037027786 1269.2499999999995) rotate(0 3 10.5)"><text x="0" y="15" font-family="Virgil, Segoe UI Emoji" font-size="16px" fill="#e67700" text-anchor="start" style="white-space: pre;" direction="ltr">1</text></g><g transform="translate(404.8399370361119 1295.0833333333328) rotate(0 3 10.5)"><text x="0" y="15" font-family="Virgil, Segoe UI Emoji" font-size="16px" fill="#862e9c" text-anchor="start" style="white-space: pre;" direction="ltr">1</text></g><g stroke-linecap="round"><g transform="translate(663.4027825876497 1456.0541231867567) rotate(0 37.6356544020274 -0.7763597292205304)"><path d="M-1.09 0.25 C11.56 -0.2, 63.71 -1.3, 76.36 -1.81 M0.53 -0.66 C13.04 -1.01, 62.91 -0.1, 75.69 -0.34" stroke="#862e9c" stroke-width="1" fill="none"></path></g></g><mask></mask><g transform="translate(991.1732703694452 1406.4166666666665) rotate(0 186.5 20)"><text x="0" y="14" font-family="Virgil, Segoe UI Emoji" font-size="15.005998286203944px" fill="#862e9c" text-anchor="start" style="white-space: pre;" direction="ltr">*(podemos utilizar tanto un id como el nombre de </text><text x="0" y="34" font-family="Virgil, Segoe UI Emoji" font-size="15.005998286203944px" fill="#862e9c" text-anchor="start" style="white-space: pre;" direction="ltr">etapa ya que no se repiten los nombres)</text></g><g stroke-linecap="round" transform="translate(280.33993703611236 867.9166666666664) rotate(0 37.5 36)"><path d="M47.5 9.25 M47.5 9.25 C53.09 14.86, 54.23 16.6, 65.5 27.75 M47.5 9.25 C51.5 14.21, 55.77 16.9, 65.5 27.75 M65.5 27.75 C75.29 35.26, 75.94 38.68, 65.5 46.25 M65.5 27.75 C74.79 35.57, 75.15 39.12, 65.5 46.25 M65.5 46.25 C58.88 52.03, 53.67 60.12, 47.5 62.75 M65.5 46.25 C60.61 49.69, 56.87 55.76, 47.5 62.75 M47.5 62.75 C39.62 73.79, 36.64 72.25, 28.5 62.75 M47.5 62.75 C39.92 72.6, 38.52 69.86, 28.5 62.75 M28.5 62.75 C22.16 58.41, 16.67 52.62, 9.5 46.25 M28.5 62.75 C21.45 56.89, 13.87 49.48, 9.5 46.25 M9.5 46.25 C-1.89 36.2, 1.46 37.99, 9.5 27.75 M9.5 46.25 C1.84 35.05, -1.52 36.98, 9.5 27.75 M9.5 27.75 C15.03 21.39, 22.04 14.61, 28.5 9.25 M9.5 27.75 C14.01 22.52, 19.41 19.3, 28.5 9.25 M28.5 9.25 C37.78 -1.98, 39.55 1.44, 47.5 9.25 M28.5 9.25 C38.64 -1.11, 37.03 -1.07, 47.5 9.25" stroke="#000000" stroke-width="1" fill="none"></path></g><g transform="translate(296.6732703694453 892.166666666666) rotate(0 23.5 9)"><text x="0" y="15" font-family="Helvetica, Segoe UI Emoji" font-size="16px" fill="#000000" text-anchor="start" style="white-space: pre;" direction="ltr">otorga</text></g><g stroke-linecap="round"><g transform="translate(321.1732703694453 1259.7499999999995) rotate(0 -1.2548761285841579 -160.02188374719577)"><path d="M0.72 -0.59 C0.37 -53.97, -2.51 -266.71, -3.23 -319.76 M-0.35 1.71 C-0.23 -52.09, -0.75 -268.02, -0.91 -321.75" stroke="#000000" stroke-width="1" fill="none"></path></g></g><mask></mask><g stroke-linecap="round"><g transform="translate(317.00660370277853 869.7499999999997) rotate(0 1.000415797779965 -105.57710788510892)"><path d="M-0.97 0.08 C-0.35 -35.04, 2.27 -174.64, 2.97 -209.7 M0.73 -0.93 C1.22 -35.83, 1.55 -175.99, 1.83 -211.23" stroke="#000000" stroke-width="1" fill="none"></path></g></g><mask></mask><g stroke-linecap="round"><g transform="translate(319.50660370277853 659.7499999999997) rotate(0 65.74344199468851 -0.5565016478564075)"><path d="M0.16 1.07 C22.26 0.88, 110.54 -0.31, 132.7 -0.61 M-1.21 0.58 C20.73 0.04, 109.55 -1.65, 131.85 -2.18" stroke="#000000" stroke-width="1" fill="none"></path></g></g><mask></mask><g transform="translate(284.839937036112 1233.4166666666663) rotate(0 16 10.5)"><text x="0" y="15" font-family="Virgil, Segoe UI Emoji" font-size="16px" fill="#e67700" text-anchor="start" style="white-space: pre;" direction="ltr">0..N</text></g><g transform="translate(438.50660370277865 632.5833333333328) rotate(0 3 10.5)"><text x="0" y="15" font-family="Virgil, Segoe UI Emoji" font-size="16px" fill="#c92a2a" text-anchor="start" style="white-space: pre;" direction="ltr">1</text></g></svg>