<svg version="1.1" xmlns="http://www.w3.org/2000/svg" viewBox="0 0 1258 1893.5" width="1258" height="1893.5" filter="invert(93%) hue-rotate(180deg)">
  <!-- svg-source:excalidraw -->
  
  <defs>
    <style class="style-fonts">
      @font-face {
        font-family: "Virgil";
        src: url("https://excalidraw.com/Virgil.woff2");
      }
      @font-face {
        font-family: "Cascadia";
        src: url("https://excalidraw.com/Cascadia.woff2");
      }
    </style>
  </defs>
  <rect x="0" y="0" width="1258" height="1893.5" fill="#ffffff"></rect><g transform="translate(531 10) rotate(0 95.5 13)"><text x="0" y="19" font-family="Virgil, Segoe UI Emoji" font-size="20px" fill="#000000" text-anchor="start" style="white-space: pre;" direction="ltr">BBDD Relacionales</text></g><g transform="translate(268 1151.5) rotate(0 32 13)"><text x="0" y="19" font-family="Virgil, Segoe UI Emoji" font-size="20px" fill="#000000" text-anchor="start" style="white-space: pre;" direction="ltr">cliente</text></g><g transform="translate(928 1153.5) rotate(0 58 26)"><text x="0" y="19" font-family="Virgil, Segoe UI Emoji" font-size="20px" fill="#000000" text-anchor="start" style="white-space: pre;" direction="ltr">proveedores</text><text x="0" y="45" font-family="Virgil, Segoe UI Emoji" font-size="20px" fill="#000000" text-anchor="start" style="white-space: pre;" direction="ltr"></text></g><g transform="translate(940 1458.5) rotate(0 49 13)"><text x="0" y="19" font-family="Virgil, Segoe UI Emoji" font-size="20px" fill="#000000" text-anchor="start" style="white-space: pre;" direction="ltr">productos</text></g><g transform="translate(282 1462.5) rotate(0 34 13)"><text x="0" y="19" font-family="Virgil, Segoe UI Emoji" font-size="20px" fill="#000000" text-anchor="start" style="white-space: pre;" direction="ltr">ventas</text></g><g stroke-linecap="round" transform="translate(225 1136) rotate(0 79.5 29)"><path d="M14.5 0 M14.5 0 C64.03 1.01, 112.02 0.26, 144.5 0 M14.5 0 C65.23 -0.54, 114.56 -1.24, 144.5 0 M144.5 0 C155.79 1.67, 159.38 5.07, 159 14.5 M144.5 0 C153.73 0.15, 159.37 2.79, 159 14.5 M159 14.5 C157.73 23.73, 158.93 35.16, 159 43.5 M159 14.5 C159.8 23.78, 159.47 33.28, 159 43.5 M159 43.5 C160.04 54.45, 153.76 58.46, 144.5 58 M159 43.5 C157.89 52.55, 152.4 60.26, 144.5 58 M144.5 58 C107.5 56.6, 69.98 58.65, 14.5 58 M144.5 58 C117.75 58.55, 90.52 57.37, 14.5 58 M14.5 58 C3.42 56.76, -1.45 54.95, 0 43.5 M14.5 58 C3.41 57.02, 2.27 54.07, 0 43.5 M0 43.5 C-0.13 35.27, -0.69 24.37, 0 14.5 M0 43.5 C-0.43 36.06, 0.39 28.54, 0 14.5 M0 14.5 C0.09 6.72, 4.3 -0.75, 14.5 0 M0 14.5 C0.68 6.33, 6.49 1.89, 14.5 0" stroke="#000000" stroke-width="1" fill="none"></path></g><g stroke-linecap="round" transform="translate(904.5 1138) rotate(0 79.5 29)"><path d="M14.5 0 M14.5 0 C42.95 -1.04, 70.03 -1.83, 144.5 0 M14.5 0 C46.17 -1.85, 79.7 -0.23, 144.5 0 M144.5 0 C155.67 0.89, 159.42 3.79, 159 14.5 M144.5 0 C155.96 -0.94, 159.7 6.61, 159 14.5 M159 14.5 C160.85 24.18, 159.02 33.08, 159 43.5 M159 14.5 C158.29 23.6, 158.33 34.41, 159 43.5 M159 43.5 C157.62 52.61, 154.36 59.21, 144.5 58 M159 43.5 C161.06 53.35, 154.57 60.26, 144.5 58 M144.5 58 C99.43 57.46, 53.63 60.34, 14.5 58 M144.5 58 C115.09 58.3, 87.11 58.47, 14.5 58 M14.5 58 C2.86 59.61, -0.84 51.48, 0 43.5 M14.5 58 C4.22 56.72, -1.56 51, 0 43.5 M0 43.5 C-1.74 34.94, 1.82 30.26, 0 14.5 M0 43.5 C-0.16 32.21, -0.67 22.39, 0 14.5 M0 14.5 C0.47 3.5, 5.44 0.69, 14.5 0 M0 14.5 C-0.51 5.67, 4.12 0.1, 14.5 0" stroke="#000000" stroke-width="1" fill="none"></path></g><g stroke-linecap="round" transform="translate(904.5 1442) rotate(0 79.5 29)"><path d="M14.5 0 M14.5 0 C67.05 -0.79, 119.56 2.23, 144.5 0 M14.5 0 C62.43 -1.34, 109.89 -0.24, 144.5 0 M144.5 0 C155.69 0.57, 157.48 3.24, 159 14.5 M144.5 0 C154.74 -1.55, 159.47 3.4, 159 14.5 M159 14.5 C157.65 24.69, 157.09 32.85, 159 43.5 M159 14.5 C159.44 21.17, 158.92 28.5, 159 43.5 M159 43.5 C157.91 55.07, 155.83 58.81, 144.5 58 M159 43.5 C159.35 51.38, 154.41 59.49, 144.5 58 M144.5 58 C110.46 58, 79.32 59.34, 14.5 58 M144.5 58 C115.18 59.22, 83.04 59.3, 14.5 58 M14.5 58 C6.49 57.01, 1.23 52.32, 0 43.5 M14.5 58 C3.42 57.54, -0.39 52.52, 0 43.5 M0 43.5 C1.01 32.01, -1.57 19.47, 0 14.5 M0 43.5 C0.85 32.95, -0.23 24.72, 0 14.5 M0 14.5 C1.8 3.8, 5.03 0.34, 14.5 0 M0 14.5 C2 2.59, 6.24 1.55, 14.5 0" stroke="#000000" stroke-width="1" fill="none"></path></g><g stroke-linecap="round" transform="translate(228.5 1446) rotate(0 79.5 29)"><path d="M14.5 0 M14.5 0 C66.85 2.03, 115.1 0.43, 144.5 0 M14.5 0 C56.34 1.94, 97.11 1.49, 144.5 0 M144.5 0 C154.59 0.52, 160.74 6.69, 159 14.5 M144.5 0 C154.22 2.09, 161.03 3.65, 159 14.5 M159 14.5 C158.32 24.54, 157.25 32.64, 159 43.5 M159 14.5 C160.22 22.96, 160.21 32.54, 159 43.5 M159 43.5 C157.52 53.15, 153.88 57.95, 144.5 58 M159 43.5 C158.33 52.85, 152.41 56.91, 144.5 58 M144.5 58 C107.36 57.54, 71.23 57.35, 14.5 58 M144.5 58 C108.83 56.19, 72.34 57.76, 14.5 58 M14.5 58 C3.1 58.9, -0.93 53.28, 0 43.5 M14.5 58 C4.61 56.81, -0.97 55.37, 0 43.5 M0 43.5 C-0.86 37.69, 1.71 32, 0 14.5 M0 43.5 C-0.31 37.11, 0.09 28.12, 0 14.5 M0 14.5 C-1.91 3.84, 4.97 1.04, 14.5 0 M0 14.5 C-0.89 2.96, 6.39 2.01, 14.5 0" stroke="#000000" stroke-width="1" fill="none"></path></g><g transform="translate(55 1040.5) rotate(0 18.5 13)"><text x="0" y="19" font-family="Virgil, Segoe UI Emoji" font-size="20px" fill="#000000" text-anchor="start" style="white-space: pre;" direction="ltr">NIF</text></g><g transform="translate(44 1098.5) rotate(0 21.5 13)"><text x="0" y="19" font-family="Virgil, Segoe UI Emoji" font-size="20px" fill="#000000" text-anchor="start" style="white-space: pre;" direction="ltr">tfno</text></g><g transform="translate(46 1150.5) rotate(0 41.5 13)"><text x="0" y="19" font-family="Virgil, Segoe UI Emoji" font-size="20px" fill="#000000" text-anchor="start" style="white-space: pre;" direction="ltr">teléfono</text></g><g transform="translate(61 1210.5) rotate(0 24.5 13)"><text x="0" y="19" font-family="Virgil, Segoe UI Emoji" font-size="20px" fill="#000000" text-anchor="start" style="white-space: pre;" direction="ltr">email</text></g><g stroke-linecap="round" transform="translate(14 1026) rotate(0 71 26.5)"><path d="M99.2 2.49 C109.99 3.74, 121.05 7.43, 128.06 10.94 C135.07 14.46, 139.76 19.22, 141.26 23.58 C142.75 27.95, 141.55 32.97, 137.01 37.13 C132.48 41.29, 123.62 45.89, 114.07 48.54 C104.52 51.2, 91.46 52.65, 79.73 53.03 C68 53.42, 54.64 52.58, 43.71 50.86 C32.78 49.15, 21.36 46.27, 14.16 42.75 C6.97 39.22, 1.91 34.25, 0.54 29.74 C-0.82 25.22, 1.43 19.58, 5.97 15.66 C10.5 11.73, 18.38 8.64, 27.75 6.2 C37.13 3.77, 48.56 1.24, 62.21 1.02 C75.87 0.8, 100.56 3.88, 109.69 4.88 C118.83 5.87, 117.8 6.84, 117.01 7 M66.01 0.58 C77.62 0.34, 93.52 2.22, 104.27 3.93 C115.01 5.64, 124.13 7.4, 130.47 10.86 C136.82 14.32, 141.7 20.2, 142.32 24.68 C142.95 29.17, 139.84 33.6, 134.24 37.76 C128.64 41.92, 118.46 46.98, 108.73 49.64 C99.01 52.29, 87.65 53.78, 75.9 53.7 C64.15 53.61, 48.86 51.09, 38.24 49.12 C27.62 47.16, 18.54 45.29, 12.16 41.9 C5.79 38.51, 0.51 33.21, -0.02 28.8 C-0.55 24.39, 3.78 19.32, 8.97 15.46 C14.15 11.6, 21.32 8.05, 31.09 5.62 C40.86 3.2, 61.71 1.84, 67.6 0.89 C73.48 -0.05, 66.31 -0.57, 66.41 -0.07" stroke="#000000" stroke-width="1" fill="none"></path></g><g stroke-linecap="round" transform="translate(10 1083.5) rotate(0 71 26.5)"><path d="M48.87 1.75 C59.26 0.19, 74.58 -0.62, 86.1 0.36 C97.62 1.35, 109.31 4.84, 117.99 7.66 C126.66 10.48, 134.25 13.14, 138.14 17.29 C142.02 21.44, 143.51 28.16, 141.28 32.58 C139.05 37.01, 132.69 40.8, 124.77 43.84 C116.85 46.88, 105.22 49.44, 93.77 50.8 C82.32 52.16, 67.87 52.67, 56.08 51.99 C44.28 51.31, 31.89 49.45, 22.99 46.72 C14.1 43.98, 6.37 39.78, 2.69 35.6 C-1 31.42, -1.57 25.94, 0.89 21.63 C3.34 17.32, 7.29 13.3, 17.44 9.75 C27.59 6.2, 52.35 1.92, 61.78 0.32 C71.2 -1.28, 73.92 -0.24, 73.98 0.14 M75.91 -1.21 C87.02 -1.16, 99.01 2.61, 108.74 5.43 C118.47 8.26, 128.75 12.06, 134.28 15.75 C139.81 19.44, 142.71 23.31, 141.91 27.57 C141.11 31.83, 136.21 37.49, 129.49 41.3 C122.77 45.11, 111.86 48.73, 101.58 50.43 C91.3 52.12, 79.3 51.67, 67.82 51.47 C56.34 51.28, 42.81 51.31, 32.69 49.23 C22.57 47.16, 12.45 42.91, 7.11 39.01 C1.77 35.11, -0.33 30.36, 0.65 25.83 C1.62 21.31, 6.4 15.68, 12.94 11.83 C19.48 7.98, 29.77 4.53, 39.89 2.73 C50.01 0.94, 68.09 1.48, 73.67 1.06 C79.25 0.64, 73.49 -0.16, 73.38 0.2" stroke="#000000" stroke-width="1" fill="none"></path></g><g stroke-linecap="round" transform="translate(12 1139.5) rotate(0 71 26.5)"><path d="M84.36 0.98 C95.81 1.29, 109.04 3.48, 118.07 6.25 C127.11 9.02, 134.93 13.3, 138.57 17.6 C142.22 21.89, 142.39 27.72, 139.96 32.03 C137.53 36.34, 131.69 40.18, 123.97 43.48 C116.25 46.78, 104.53 50.27, 93.65 51.82 C82.77 53.37, 70.18 53.67, 58.69 52.79 C47.19 51.91, 33.96 49.55, 24.69 46.57 C15.42 43.58, 6.84 39.21, 3.07 34.89 C-0.71 30.57, -0.39 24.79, 2.05 20.67 C4.49 16.55, 10.19 13.27, 17.72 10.19 C25.26 7.1, 35.21 3.8, 47.27 2.17 C59.34 0.53, 82.13 0.33, 90.12 0.37 C98.11 0.41, 95.46 2, 95.21 2.41 M63.67 -0.97 C75.05 -1.86, 89.01 0.39, 99.84 2.36 C110.68 4.33, 121.88 7.16, 128.68 10.83 C135.47 14.51, 139.35 20.29, 140.61 24.43 C141.87 28.58, 140.95 32.05, 136.24 35.72 C131.54 39.38, 122.06 43.6, 112.39 46.42 C102.72 49.23, 90.01 51.65, 78.23 52.62 C66.46 53.6, 52.32 54.09, 41.73 52.26 C31.14 50.43, 21.44 45.18, 14.7 41.65 C7.96 38.12, 2.67 35.29, 1.28 31.07 C-0.1 26.86, 1.81 20.59, 6.41 16.36 C11 12.13, 19.38 8.45, 28.84 5.68 C38.3 2.92, 57.6 0.83, 63.16 -0.21 C68.72 -1.25, 62.11 -1.21, 62.2 -0.55" stroke="#000000" stroke-width="1" fill="none"></path></g><g stroke-linecap="round" transform="translate(16 1199.5) rotate(0 71 26.5)"><path d="M77.48 -0.63 C88.88 -0.34, 103.1 2.98, 112.84 5.75 C122.59 8.53, 130.98 12.11, 135.94 16.01 C140.9 19.9, 143.94 24.94, 142.59 29.12 C141.25 33.3, 135.05 37.38, 127.87 41.06 C120.69 44.75, 110.32 49.1, 99.53 51.22 C88.75 53.35, 74.89 54.36, 63.14 53.81 C51.39 53.27, 38.6 50.54, 29.03 47.95 C19.47 45.36, 10.49 42.25, 5.77 38.27 C1.04 34.3, -0.74 28.62, 0.67 24.09 C2.07 19.56, 7.22 14.8, 14.2 11.07 C21.18 7.35, 30.92 3.37, 42.57 1.74 C54.22 0.11, 76.32 1.35, 84.1 1.31 C91.88 1.27, 89.62 1.19, 89.24 1.51 M77.64 -0.1 C88.45 -0.47, 101.16 1.17, 110.86 3.93 C120.56 6.69, 130.83 12.24, 135.82 16.45 C140.81 20.67, 141.84 24.9, 140.8 29.22 C139.75 33.54, 136.35 38.83, 129.58 42.38 C122.8 45.93, 110.83 48.56, 100.14 50.5 C89.45 52.44, 77.21 54.45, 65.43 54.03 C53.65 53.61, 39.3 50.55, 29.49 47.99 C19.68 45.42, 11.51 42.43, 6.58 38.64 C1.66 34.85, -1.09 30.05, -0.06 25.25 C0.97 20.44, 5.92 13.65, 12.75 9.8 C19.59 5.95, 30.11 3.85, 40.97 2.14 C51.83 0.43, 71.74 -0.08, 77.91 -0.45 C84.08 -0.83, 78.09 -0.64, 77.98 -0.11" stroke="#000000" stroke-width="1" fill="none"></path></g><g stroke-linecap="round"><g transform="translate(49 1066) rotate(0 34.22523905884475 -0.15222819941573107)"><path d="M-0.18 -0.06 C11.35 -0.05, 58.54 0.76, 70.18 0.94 M-1.73 -1.13 C9.56 -1.53, 57.58 -0.75, 69.32 -0.68" stroke="#000000" stroke-width="1" fill="none"></path></g></g><mask></mask><g stroke-linecap="round"><g transform="translate(157 1055) rotate(0 32.932028151648126 52.102422441169665)"><path d="M0.56 -0.53 C11.61 17.06, 55.3 87.47, 66.47 104.73 M-0.6 1.81 C10.23 19.13, 53.95 85.99, 65.24 103" stroke="#000000" stroke-width="1" fill="none"></path></g></g><mask></mask><g stroke-linecap="round"><g transform="translate(152 1113) rotate(0 33.848376984493825 22.29158843485635)"><path d="M-0.21 -0.05 C11.53 7.27, 57.66 37.1, 69.48 44.46 M-1.78 -1.13 C9.85 6.3, 56.25 38.03, 68.26 45.71" stroke="#000000" stroke-width="1" fill="none"></path></g></g><mask></mask><g stroke-linecap="round"><g transform="translate(155 1168) rotate(0 32.74816324003041 -4.312240492180024)"><path d="M-1.12 0.4 C9.95 -0.93, 55.25 -7.7, 66.62 -9.02 M0.49 -0.44 C11.35 -1.56, 54.49 -6.49, 65.47 -8.02" stroke="#000000" stroke-width="1" fill="none"></path></g></g><mask></mask><g stroke-linecap="round"><g transform="translate(157 1228) rotate(0 30.589939285861306 -34.0964637506753)"><path d="M0.13 0.76 C10.39 -10.58, 52 -57.62, 62.44 -68.95 M-1.26 0.11 C8.72 -11.02, 50.67 -56.37, 61.19 -67.91" stroke="#000000" stroke-width="1" fill="none"></path></g></g><mask></mask><g transform="translate(1125.5 1057) rotate(0 30 13)"><text x="0" y="19" font-family="Virgil, Segoe UI Emoji" font-size="20px" fill="#000000" text-anchor="start" style="white-space: pre;" direction="ltr">código</text></g><g transform="translate(1116.5 1167) rotate(0 41.5 13)"><text x="0" y="19" font-family="Virgil, Segoe UI Emoji" font-size="20px" fill="#000000" text-anchor="start" style="white-space: pre;" direction="ltr">teléfono</text></g><g transform="translate(1131.5 1227) rotate(0 24.5 13)"><text x="0" y="19" font-family="Virgil, Segoe UI Emoji" font-size="20px" fill="#000000" text-anchor="start" style="white-space: pre;" direction="ltr">email</text></g><g stroke-linecap="round"><g transform="translate(1119.5 1082.5) rotate(0 34.56824815478183 -0.1395224779844284)"><path d="M0.02 -0.03 C11.71 -0.04, 58.91 -0.35, 70.56 -0.48 M-1.43 -1.09 C10.11 -0.89, 58.15 0.61, 69.91 0.81" stroke="#000000" stroke-width="1" fill="none"></path></g></g><mask></mask><g stroke-linecap="round" transform="translate(1089 1042.5) rotate(0 71 26.5)"><path d="M40.64 3.1 C50.35 1.03, 65.22 -0.35, 76.99 -0.04 C88.77 0.26, 101.66 2.43, 111.27 4.93 C120.89 7.43, 129.69 11.13, 134.69 14.95 C139.68 18.76, 142.2 23.47, 141.24 27.81 C140.29 32.14, 135.36 37.34, 128.97 40.94 C122.57 44.53, 113.43 47.41, 102.85 49.4 C92.27 51.38, 77.37 52.88, 65.47 52.85 C53.58 52.82, 41.32 51.54, 31.48 49.22 C21.64 46.91, 11.55 43.21, 6.44 38.94 C1.34 34.67, -0.05 28.22, 0.85 23.62 C1.74 19.03, 4.07 15.05, 11.82 11.38 C19.57 7.71, 39.91 3.27, 47.35 1.61 C54.79 -0.06, 55.91 1.04, 56.46 1.39 M83.48 0.36 C94.83 0.64, 109.07 3.29, 118.38 6.27 C127.69 9.25, 135.37 13.88, 139.33 18.24 C143.28 22.61, 144.38 28.35, 142.13 32.44 C139.88 36.54, 134.04 39.59, 125.84 42.81 C117.65 46.03, 104.63 50.18, 92.95 51.74 C81.28 53.29, 67.06 52.98, 55.8 52.16 C44.54 51.34, 33.97 49.59, 25.41 46.81 C16.84 44.03, 8.19 39.73, 4.41 35.48 C0.63 31.23, 0.69 25.69, 2.73 21.29 C4.77 16.9, 9.32 12.29, 16.65 9.1 C23.97 5.92, 35.23 3.6, 46.67 2.18 C58.1 0.76, 78.73 0.65, 85.25 0.58 C91.76 0.5, 85.94 1.25, 85.76 1.71" stroke="#000000" stroke-width="1" fill="none"></path></g><g stroke-linecap="round" transform="translate(1095 1093.5) rotate(0 71 26.5)"><path d="M75.53 -0.04 C87 -0.37, 101.54 1.19, 111.57 3.63 C121.59 6.07, 130.77 10.43, 135.69 14.58 C140.61 18.73, 142.2 24.16, 141.07 28.52 C139.94 32.89, 135.6 37.24, 128.92 40.76 C122.25 44.28, 111.53 47.61, 101 49.64 C90.48 51.67, 77.54 53.04, 65.78 52.93 C54.02 52.82, 40.19 51.4, 30.46 48.95 C20.74 46.5, 12.55 42.44, 7.45 38.21 C2.34 33.98, -1.05 28.12, -0.16 23.57 C0.74 19.02, 5.93 14.4, 12.8 10.93 C19.66 7.46, 28.34 4.35, 41.03 2.77 C53.71 1.18, 79.04 1.31, 88.88 1.4 C98.73 1.49, 100.55 3.01, 100.1 3.31 M69.62 0.63 C81.05 0.01, 94.07 1.96, 104.29 3.69 C114.52 5.42, 124.72 7.2, 130.95 10.99 C137.17 14.78, 141.35 21.95, 141.63 26.43 C141.91 30.91, 138.09 34.01, 132.63 37.86 C127.17 41.72, 118.71 47, 108.88 49.56 C99.05 52.12, 85.73 52.94, 73.64 53.23 C61.54 53.52, 46.56 53.64, 36.33 51.31 C26.1 48.98, 18.37 43.15, 12.28 39.25 C6.2 35.34, 0.61 32.29, -0.18 27.87 C-0.97 23.46, 1.97 16.6, 7.55 12.75 C13.13 8.91, 22.9 7.04, 33.29 4.81 C43.67 2.59, 63.94 -0.06, 69.86 -0.6 C75.79 -1.15, 69.22 1.16, 68.85 1.56" stroke="#000000" stroke-width="1" fill="none"></path></g><g stroke-linecap="round" transform="translate(1093 1148.5) rotate(0 71 26.5)"><path d="M102.88 3.14 C113.13 4.69, 123.43 7.38, 129.92 11.12 C136.42 14.85, 140.96 21.06, 141.85 25.55 C142.74 30.03, 140.58 34.07, 135.28 38.04 C129.98 42.01, 120.24 46.96, 110.07 49.36 C99.89 51.75, 86.13 52.29, 74.22 52.39 C62.31 52.49, 48.99 51.84, 38.62 49.95 C28.24 48.06, 18.29 44.75, 11.97 41.07 C5.65 37.4, 1.29 32.24, 0.71 27.88 C0.13 23.52, 3.3 19.02, 8.48 14.93 C13.66 10.83, 21.86 5.85, 31.79 3.32 C41.71 0.8, 55.69 -0.22, 68.03 -0.22 C80.36 -0.22, 99.4 2.44, 105.8 3.34 C112.19 4.23, 107.12 4.77, 106.39 5.16 M85.77 1.21 C97.09 1.7, 110.67 3.78, 119.73 6.95 C128.8 10.12, 136.76 16.11, 140.16 20.24 C143.56 24.38, 142.96 27.59, 140.14 31.75 C137.31 35.92, 131.31 41.82, 123.24 45.24 C115.16 48.66, 102.95 50.93, 91.68 52.28 C80.4 53.62, 67.23 54.21, 55.6 53.31 C43.97 52.41, 30.82 49.96, 21.9 46.88 C12.98 43.81, 5.56 39.4, 2.09 34.87 C-1.39 30.34, -1.96 24.05, 1.06 19.7 C4.09 15.35, 11.83 11.7, 20.24 8.76 C28.65 5.82, 40.55 3.58, 51.52 2.06 C62.5 0.54, 80.19 -0.3, 86.11 -0.37 C92.03 -0.43, 87.12 0.93, 87.04 1.67" stroke="#000000" stroke-width="1" fill="none"></path></g><g stroke-linecap="round" transform="translate(1095 1207.5) rotate(0 71 26.5)"><path d="M44.93 1.9 C55.19 0.12, 69.97 0.4, 81.64 1.16 C93.31 1.92, 105.78 3.89, 114.95 6.44 C124.13 8.98, 132.34 12.59, 136.66 16.45 C140.99 20.32, 142.49 25.22, 140.92 29.62 C139.36 34.03, 134.53 39.2, 127.29 42.87 C120.05 46.54, 108.73 49.99, 97.5 51.65 C86.28 53.31, 71.53 53.72, 59.93 52.86 C48.32 52, 37.12 49.34, 27.89 46.48 C18.67 43.62, 9.05 39.52, 4.56 35.72 C0.07 31.92, -0.93 27.87, 0.95 23.66 C2.82 19.45, 6.44 14.41, 15.82 10.48 C25.21 6.55, 48.07 1.71, 57.26 0.09 C66.45 -1.53, 70.61 0.25, 70.95 0.75 M77.8 -1.36 C89.06 -1.79, 100.91 0.83, 110.37 3.47 C119.84 6.12, 129.25 10.49, 134.59 14.49 C139.93 18.5, 143.19 23.12, 142.42 27.5 C141.65 31.87, 136.87 36.89, 129.97 40.73 C123.06 44.58, 111.88 48.75, 100.98 50.56 C90.08 52.37, 76.36 52.18, 64.55 51.58 C52.74 50.98, 39.8 49.09, 30.11 46.98 C20.42 44.87, 11.59 42.43, 6.43 38.91 C1.26 35.4, -2.06 30.67, -0.87 25.89 C0.32 21.1, 6.86 13.9, 13.56 10.19 C20.26 6.49, 28.8 5.53, 39.34 3.65 C49.88 1.77, 70.47 -0.72, 76.79 -1.1 C83.11 -1.47, 77.23 0.66, 77.24 1.39" stroke="#000000" stroke-width="1" fill="none"></path></g><g stroke-linecap="round"><g transform="translate(1063 1162) rotate(0 14.05537109081638 -45.90415889342319)"><path d="M0.6 0.62 C5.35 -14.31, 24.2 -75.45, 28.66 -90.55 M-0.55 -0.1 C4.09 -15.32, 23.58 -77.16, 28.06 -92.43" stroke="#000000" stroke-width="1" fill="none"></path></g></g><mask></mask><g stroke-linecap="round"><g transform="translate(1063 1159) rotate(0 15.617718328796286 -18.43558500409125)"><path d="M0.64 -1.1 C5.74 -6.92, 26.53 -29.85, 31.71 -35.79 M-0.48 0.94 C4.33 -5.19, 25.39 -31.68, 30.61 -37.81" stroke="#000000" stroke-width="1" fill="none"></path></g></g><mask></mask><g stroke-linecap="round"><g transform="translate(1063 1157) rotate(0 16.472500583846113 10.727053963048377)"><path d="M-0.18 0.58 C5.01 4.24, 26.84 18.32, 32.32 21.61 M-1.74 -0.16 C3.75 3.17, 29.09 16.24, 34.68 19.81" stroke="#000000" stroke-width="1" fill="none"></path></g></g><mask></mask><g stroke-linecap="round"><g transform="translate(1064 1159) rotate(0 15.69670092463491 38.326148192919845)"><path d="M0.42 -0.85 C5.45 11.95, 24.81 63.5, 30.01 76.32 M-0.82 1.32 C4.59 14.3, 26.87 64.9, 32.21 77.5" stroke="#000000" stroke-width="1" fill="none"></path></g></g><mask></mask><g transform="translate(1130.5 1105) rotate(0 32.5 13)"><text x="0" y="19" font-family="Virgil, Segoe UI Emoji" font-size="20px" fill="#000000" text-anchor="start" style="white-space: pre;" direction="ltr">nombre</text></g><g transform="translate(590.5 947.5) rotate(0 41 13)"><text x="0" y="19" font-family="Virgil, Segoe UI Emoji" font-size="20px" fill="#000000" text-anchor="start" style="white-space: pre;" direction="ltr">dirección</text></g><g stroke-linecap="round" transform="translate(547.5 932) rotate(0 79.5 29)"><path d="M14.5 0 M14.5 0 C59.72 1.94, 104.3 0.89, 144.5 0 M14.5 0 C40.39 -1.27, 67.21 -0.34, 144.5 0 M144.5 0 C154.66 0.57, 160.89 4.76, 159 14.5 M144.5 0 C154.91 -0.16, 160.04 4.83, 159 14.5 M159 14.5 C160.21 24.33, 159 32.03, 159 43.5 M159 14.5 C159.41 20.67, 160.19 28.2, 159 43.5 M159 43.5 C157.28 52.28, 152.82 59.15, 144.5 58 M159 43.5 C160.65 52.71, 154.67 56.06, 144.5 58 M144.5 58 C100.97 57.77, 56.29 59.39, 14.5 58 M144.5 58 C96.31 58.61, 47.38 57.81, 14.5 58 M14.5 58 C4.96 58.66, -1.95 53.48, 0 43.5 M14.5 58 C4.33 55.74, -0.33 52.43, 0 43.5 M0 43.5 C1.66 30.95, 1.64 20.31, 0 14.5 M0 43.5 C0.93 36.41, -0.14 30.14, 0 14.5 M0 14.5 C1.74 4.13, 4.07 0.68, 14.5 0 M0 14.5 C-1.32 6.49, 2.98 0.26, 14.5 0" stroke="#000000" stroke-width="1" fill="none"></path></g><g transform="translate(462.5 811) rotate(0 9 13)"><text x="0" y="19" font-family="Virgil, Segoe UI Emoji" font-size="20px" fill="#000000" text-anchor="start" style="white-space: pre;" direction="ltr">id</text></g><g stroke-linecap="round"><g transform="translate(437.5 837.5) rotate(0 35.240842727022255 -0.009645898388669139)"><path d="M0.97 0.55 C12.65 0.66, 58.94 0.91, 70.46 0.86 M0.02 -0.21 C11.55 -0.44, 58.2 -1.13, 69.76 -0.8" stroke="#000000" stroke-width="1" fill="none"></path></g></g><mask></mask><g stroke-linecap="round" transform="translate(407 797.5) rotate(0 71 26.5)"><path d="M95.17 1.07 C106.07 1.99, 118.58 5.35, 126.1 8.73 C133.62 12.12, 138.3 16.82, 140.27 21.37 C142.24 25.92, 141.84 31.85, 137.93 36.04 C134.01 40.22, 125.98 43.56, 116.78 46.46 C107.58 49.36, 94.46 52.49, 82.72 53.44 C70.98 54.39, 57.54 53.73, 46.36 52.16 C35.17 50.58, 23.15 47.53, 15.62 44.01 C8.09 40.49, 2.89 35.57, 1.17 31.02 C-0.56 26.47, 1.01 20.93, 5.28 16.7 C9.56 12.48, 17.95 8.44, 26.82 5.66 C35.68 2.89, 45.16 0.49, 58.46 0.06 C71.76 -0.37, 97.3 2.16, 106.61 3.1 C115.92 4.03, 115.08 5.26, 114.31 5.66 M89.53 1.13 C100.93 1.95, 114.06 4.75, 122.25 7.72 C130.43 10.7, 135.73 14.61, 138.65 18.97 C141.56 23.33, 142.82 29.56, 139.75 33.87 C136.67 38.19, 128.75 42.03, 120.19 44.85 C111.63 47.67, 99.94 49.35, 88.41 50.78 C76.87 52.2, 62.13 54.21, 51 53.37 C39.88 52.54, 29.97 49.33, 21.67 45.76 C13.38 42.19, 4.59 36.18, 1.25 31.97 C-2.08 27.76, -1.68 24.67, 1.66 20.52 C4.99 16.38, 12.68 10.42, 21.26 7.1 C29.84 3.79, 41.66 1.82, 53.13 0.62 C64.59 -0.57, 84.25 -0.29, 90.05 -0.07 C95.85 0.15, 88.47 1.26, 87.93 1.94" stroke="#000000" stroke-width="1" fill="none"></path></g><g stroke-linecap="round" transform="translate(527 757.5) rotate(0 71 26.5)"><path d="M82.04 -0.52 C93.29 -0.1, 106.11 3.78, 115.41 6.58 C124.72 9.38, 133.49 12.35, 137.86 16.27 C142.24 20.19, 143.64 25.7, 141.67 30.11 C139.7 34.51, 133.34 39.1, 126.04 42.69 C118.74 46.29, 108.84 50.01, 97.85 51.66 C86.85 53.31, 72.03 53.42, 60.07 52.59 C48.12 51.76, 35.36 49.3, 26.14 46.67 C16.92 44.04, 9.11 40.87, 4.74 36.8 C0.38 32.73, -1.77 26.74, -0.06 22.25 C1.65 17.76, 7.56 13.21, 15.01 9.87 C22.47 6.52, 32.43 3.66, 44.66 2.18 C56.89 0.7, 80.15 1.09, 88.4 1 C96.66 0.9, 94.62 1.29, 94.18 1.6 M64.61 1.34 C76.08 0.2, 90.84 -0.17, 101.66 1.21 C112.47 2.6, 123.09 6.09, 129.52 9.65 C135.96 13.2, 139.11 17.82, 140.26 22.52 C141.41 27.22, 141.04 33.79, 136.4 37.83 C131.76 41.88, 122.1 44.19, 112.42 46.82 C102.75 49.45, 90.15 52.87, 78.35 53.61 C66.55 54.34, 52.41 53.39, 41.65 51.21 C30.88 49.04, 20.69 44.17, 13.77 40.56 C6.86 36.94, 1.25 33.78, 0.14 29.53 C-0.97 25.28, 2.03 19.09, 7.11 15.06 C12.19 11.03, 20.86 8.09, 30.62 5.38 C40.39 2.66, 60.05 -0.55, 65.7 -1.23 C71.35 -1.91, 64.7 0.51, 64.52 1.28" stroke="#000000" stroke-width="1" fill="none"></path></g><g transform="translate(573.5 769) rotate(0 23.5 13)"><text x="0" y="19" font-family="Virgil, Segoe UI Emoji" font-size="20px" fill="#000000" text-anchor="start" style="white-space: pre;" direction="ltr">calle</text></g><g stroke-linecap="round" transform="translate(676 756.5) rotate(0 71 26.5)"><path d="M104.57 4.07 C114.99 5.66, 124.63 8.73, 130.94 12.4 C137.26 16.07, 142.09 21.61, 142.47 26.07 C142.86 30.53, 138.82 35.45, 133.28 39.18 C127.73 42.91, 119.04 46.04, 109.21 48.46 C99.39 50.89, 86.35 53.63, 74.33 53.72 C62.31 53.81, 47.66 51.23, 37.1 49 C26.53 46.78, 17.18 43.85, 10.94 40.37 C4.69 36.9, 0.04 32.6, -0.36 28.16 C-0.77 23.72, 2.84 17.92, 8.49 13.74 C14.14 9.56, 23.43 5.5, 33.55 3.08 C43.66 0.67, 57.04 -0.68, 69.21 -0.75 C81.37 -0.82, 100.11 1.89, 106.53 2.65 C112.95 3.42, 108.38 3.15, 107.7 3.85 M92.46 0.14 C103.74 1.42, 116.75 6.09, 124.73 9.74 C132.7 13.39, 137.85 17.94, 140.31 22.05 C142.77 26.16, 143.07 30.23, 139.5 34.37 C135.92 38.51, 127.9 44, 118.88 46.9 C109.86 49.8, 96.94 51.18, 85.39 51.76 C73.83 52.33, 60.56 51.5, 49.55 50.37 C38.55 49.23, 27.4 48.18, 19.35 44.94 C11.29 41.7, 3.93 35.5, 1.23 30.95 C-1.46 26.41, -0.81 21.53, 3.2 17.66 C7.2 13.8, 16.48 10.8, 25.25 7.76 C34.01 4.73, 44.2 0.39, 55.78 -0.54 C67.37 -1.47, 88.37 1.74, 94.76 2.19 C101.15 2.64, 94.68 2.04, 94.12 2.17" stroke="#000000" stroke-width="1" fill="none"></path></g><g transform="translate(728.5 767) rotate(0 17.5 13)"><text x="0" y="19" font-family="Virgil, Segoe UI Emoji" font-size="20px" fill="#000000" text-anchor="start" style="white-space: pre;" direction="ltr">num</text></g><g stroke-linecap="round" transform="translate(800 788.5) rotate(0 71 26.5)"><path d="M103.44 2.28 C114.02 3.76, 124.63 7.7, 130.96 11.41 C137.29 15.12, 140.79 20.13, 141.42 24.53 C142.05 28.94, 139.92 33.86, 134.74 37.84 C129.57 41.81, 120.47 45.83, 110.38 48.39 C100.28 50.95, 86.04 52.77, 74.15 53.18 C62.25 53.59, 49.37 53.03, 39.01 50.83 C28.64 48.63, 18.47 43.77, 11.96 39.97 C5.46 36.17, 0.72 32.25, -0.02 28.03 C-0.77 23.82, 2.14 18.71, 7.47 14.67 C12.81 10.62, 21.87 6.12, 32 3.78 C42.12 1.45, 54.77 0.61, 68.21 0.67 C81.66 0.73, 104.19 2.89, 112.69 4.16 C121.18 5.44, 120.13 7.79, 119.17 8.31 M42.89 1.52 C52.78 -0.23, 67.04 -0.23, 78.66 0.59 C90.28 1.42, 102.77 3.76, 112.62 6.48 C122.48 9.2, 133.14 12.96, 137.77 16.9 C142.4 20.84, 141.9 25.7, 140.41 30.11 C138.92 34.52, 135.7 40.03, 128.84 43.35 C121.98 46.68, 110.43 48.38, 99.26 50.07 C88.09 51.75, 73.68 53.75, 61.83 53.47 C49.97 53.2, 37.5 51.13, 28.12 48.41 C18.75 45.69, 10.34 41.51, 5.6 37.15 C0.85 32.78, -1.93 26.86, -0.36 22.24 C1.21 17.62, 7.95 12.66, 15.04 9.45 C22.12 6.24, 37.47 4.28, 42.13 2.97 C46.8 1.66, 42.43 1.16, 43.04 1.6" stroke="#000000" stroke-width="1" fill="none"></path></g><g transform="translate(861.5 798) rotate(0 11 13)"><text x="0" y="19" font-family="Virgil, Segoe UI Emoji" font-size="20px" fill="#000000" text-anchor="start" style="white-space: pre;" direction="ltr">cp</text></g><g stroke-linecap="round" transform="translate(857 841.5) rotate(0 71 26.5)"><path d="M82.66 0.97 C93.97 1.3, 105.78 2.97, 114.92 5.65 C124.06 8.34, 132.97 13.06, 137.47 17.08 C141.98 21.1, 143.87 25.42, 141.96 29.75 C140.06 34.08, 133.42 39.56, 126.03 43.07 C118.65 46.59, 108.48 49.09, 97.65 50.84 C86.83 52.59, 72.89 54.11, 61.08 53.56 C49.26 53.01, 35.98 50.4, 26.76 47.55 C17.54 44.71, 10 40.5, 5.76 36.48 C1.53 32.47, -0.43 27.93, 1.36 23.47 C3.16 19.01, 9.15 13.3, 16.53 9.74 C23.91 6.19, 33.95 3.77, 45.65 2.13 C57.35 0.49, 79.46 0.11, 86.71 -0.08 C93.96 -0.27, 89.41 0.3, 89.15 0.98 M97.8 0.59 C108.25 1.88, 117.92 6.51, 125.15 10.02 C132.38 13.53, 139.02 17.23, 141.17 21.66 C143.32 26.09, 142.46 32.5, 138.05 36.61 C133.64 40.72, 123.84 43.57, 114.69 46.33 C105.54 49.09, 94.71 52.52, 83.12 53.17 C71.53 53.83, 56.57 51.73, 45.16 50.26 C33.75 48.79, 21.84 47.42, 14.69 44.37 C7.54 41.31, 3.93 36.33, 2.25 31.93 C0.57 27.54, 0.51 22.26, 4.61 17.99 C8.72 13.72, 17.74 9.31, 26.89 6.31 C36.04 3.31, 47.83 0.93, 59.52 0 C71.21 -0.93, 90.97 0.34, 97.03 0.72 C103.09 1.11, 96.16 1.67, 95.87 2.3" stroke="#000000" stroke-width="1" fill="none"></path></g><g transform="translate(891.5 853) rotate(0 28 13)"><text x="0" y="19" font-family="Virgil, Segoe UI Emoji" font-size="20px" fill="#000000" text-anchor="start" style="white-space: pre;" direction="ltr">región</text></g><g stroke-linecap="round" transform="translate(337 861.5) rotate(0 71 26.5)"><path d="M58.77 0.64 C69.62 -0.48, 83.49 -0.72, 94.69 0.73 C105.9 2.18, 118.38 5.97, 126 9.35 C133.62 12.73, 138.44 16.62, 140.4 21.01 C142.35 25.39, 141.86 31.38, 137.72 35.64 C133.58 39.91, 124.77 43.6, 115.55 46.57 C106.32 49.55, 93.87 52.53, 82.4 53.47 C70.92 54.42, 57.79 53.91, 46.71 52.23 C35.63 50.55, 23.66 46.91, 15.92 43.39 C8.18 39.86, 2.23 35.56, 0.27 31.08 C-1.69 26.6, -0.05 20.68, 4.15 16.52 C8.34 12.36, 15.33 8.82, 25.44 6.1 C35.55 3.38, 57.32 1.27, 64.81 0.21 C72.3 -0.85, 70.19 -0.83, 70.39 -0.28 M60.24 -0.68 C71.36 -1.87, 85.27 -0.91, 96.12 0.82 C106.97 2.55, 117.84 5.99, 125.36 9.7 C132.88 13.41, 139.35 18.49, 141.23 23.07 C143.11 27.65, 140.88 33.11, 136.66 37.16 C132.44 41.21, 124.96 44.73, 115.89 47.37 C106.82 50.01, 93.71 52.36, 82.26 53 C70.82 53.64, 58.28 52.68, 47.24 51.21 C36.21 49.74, 23.66 47.35, 16.05 44.17 C8.45 41, 3.55 36.75, 1.61 32.16 C-0.33 27.58, 0.51 21.25, 4.4 16.68 C8.3 12.12, 16.01 7.6, 24.97 4.78 C33.93 1.97, 52.34 0.27, 58.17 -0.22 C63.99 -0.7, 59.6 1.39, 59.92 1.88" stroke="#000000" stroke-width="1" fill="none"></path></g><g transform="translate(390.5 874) rotate(0 21 13)"><text x="0" y="19" font-family="Virgil, Segoe UI Emoji" font-size="20px" fill="#000000" text-anchor="start" style="white-space: pre;" direction="ltr">país</text></g><g stroke-linecap="round"><g transform="translate(622 933) rotate(0 -56.07518537312751 -43.8922084407136)"><path d="M-0.59 0.62 C-19.26 -13.7, -94 -72.1, -112.67 -86.53 M1.3 -0.11 C-17.44 -14.73, -94.36 -73.8, -113.45 -88.4" stroke="#000000" stroke-width="1" fill="none"></path></g></g><mask></mask><g stroke-linecap="round"><g transform="translate(619 931) rotate(0 -6.4502991903573275 -60.40189300116151)"><path d="M-0.18 -0.14 C-2.5 -19.98, -10.62 -98.91, -12.72 -119.04 M-1.74 -1.26 C-3.77 -21.43, -8.96 -100.86, -10.38 -120.66" stroke="#000000" stroke-width="1" fill="none"></path></g></g><mask></mask><g stroke-linecap="round"><g transform="translate(622 932) rotate(0 56.85898279313926 -61.791592373149484)"><path d="M0.14 -0.83 C19.25 -21.65, 95.8 -104.34, 114.97 -124.94 M-1.25 1.35 C17.68 -19.35, 94.72 -103.11, 114.01 -123.89" stroke="#000000" stroke-width="1" fill="none"></path></g></g><mask></mask><g stroke-linecap="round"><g transform="translate(623 930) rotate(0 96.03062279318465 -49.463322648899634)"><path d="M-0.17 0.84 C32 -15.36, 161.29 -81.29, 193.78 -98.11 M-1.72 0.24 C30.21 -16.21, 160.03 -83.18, 192.72 -99.77" stroke="#000000" stroke-width="1" fill="none"></path></g></g><mask></mask><g stroke-linecap="round"><g transform="translate(620 932) rotate(0 119.63872997872522 -29.72215081330387)"><path d="M-0.64 1.07 C39.4 -8.72, 199.77 -48.52, 239.92 -58.6 M1.23 0.59 C41.12 -9.59, 199.2 -50.69, 238.92 -60.52" stroke="#000000" stroke-width="1" fill="none"></path></g></g><mask></mask><g stroke-linecap="round"><g transform="translate(185 59) rotate(0 438.5384232751652 -2.250154785745451)"><path d="M-0.34 -0.3 C145.42 -0.9, 728.99 -1.98, 875.15 -2.39 M1.68 -1.5 C147.77 -1.94, 731.67 -4.22, 877.42 -4.2" stroke="#000000" stroke-width="1" fill="none"></path></g></g><mask></mask><g transform="translate(288 77.5) rotate(0 335 10.5)"><text x="0" y="15" font-family="Virgil, Segoe UI Emoji" font-size="16px" fill="#000000" text-anchor="start" style="white-space: pre;" direction="ltr">Te han contratado para realizar una app para gestionar una empresa de venta de</text></g><g transform="translate(288 113.5) rotate(0 345 10.5)"><text x="0" y="15" font-family="Virgil, Segoe UI Emoji" font-size="16px" fill="#000000" text-anchor="start" style="white-space: pre;" direction="ltr">productos. La empresa necesita llevar la gestión de proveedores, clientes, productos y</text></g><g transform="translate(288 149.5) rotate(0 137.5 10.5)"><text x="0" y="15" font-family="Virgil, Segoe UI Emoji" font-size="16px" fill="#000000" text-anchor="start" style="white-space: pre;" direction="ltr">todas las ventas que se realizan.</text></g><g transform="translate(288 221.5) rotate(0 350.5 10.5)"><text x="0" y="15" font-family="Virgil, Segoe UI Emoji" font-size="16px" fill="#000000" text-anchor="start" style="white-space: pre;" direction="ltr">Cada proveedor tiene un código único, un nombre, dirección, teléfono y email, Los clientes</text></g><g transform="translate(288 257.5) rotate(0 321.5 10.5)"><text x="0" y="15" font-family="Virgil, Segoe UI Emoji" font-size="16px" fill="#000000" text-anchor="start" style="white-space: pre;" direction="ltr">tienen NIF, calle, numero, ciudad, código postal, región, país, email, y dos números</text></g><g transform="translate(288 293.5) rotate(0 97 10.5)"><text x="0" y="15" font-family="Virgil, Segoe UI Emoji" font-size="16px" fill="#000000" text-anchor="start" style="white-space: pre;" direction="ltr">telefónicos de contacto.</text></g><g transform="translate(288 365.5) rotate(0 339.5 10.5)"><text x="0" y="15" font-family="Virgil, Segoe UI Emoji" font-size="16px" fill="#000000" text-anchor="start" style="white-space: pre;" direction="ltr">Para cada producto conocemos un código único, su descripción, precio, stock, y nombre</text></g><g transform="translate(288 401.5) rotate(0 323 10.5)"><text x="0" y="15" font-family="Virgil, Segoe UI Emoji" font-size="16px" fill="#000000" text-anchor="start" style="white-space: pre;" direction="ltr">del proveedor que nos lo suministra. Cada producto pertenece una categoría que</text></g><g transform="translate(288 437.5) rotate(0 152 10.5)"><text x="0" y="15" font-family="Virgil, Segoe UI Emoji" font-size="16px" fill="#000000" text-anchor="start" style="white-space: pre;" direction="ltr">comprende un nombre y una descripción.</text></g><g transform="translate(288 509.5) rotate(0 352.5 10.5)"><text x="0" y="15" font-family="Virgil, Segoe UI Emoji" font-size="16px" fill="#000000" text-anchor="start" style="white-space: pre;" direction="ltr">Para llevar registro de las ventas, tenemos que registrar la info de cada venta con un</text></g><g transform="translate(288 545.5) rotate(0 335.5 10.5)"><text x="0" y="15" font-family="Virgil, Segoe UI Emoji" font-size="16px" fill="#000000" text-anchor="start" style="white-space: pre;" direction="ltr">identificador único, la fecha en la que se realiza, el cliente que la el descuento que</text></g><g transform="translate(284 573.5) rotate(0 354.5 10.5)"><text x="0" y="15" font-family="Virgil, Segoe UI Emoji" font-size="16px" fill="#000000" text-anchor="start" style="white-space: pre;" direction="ltr">se aplica y la cantidad total que paga el cliente. Además hay que guardar el precio que</text></g><g transform="translate(284 608.5) rotate(0 363.5 10.5)"><text x="0" y="15" font-family="Virgil, Segoe UI Emoji" font-size="16px" fill="#000000" text-anchor="start" style="white-space: pre;" direction="ltr">tenia el producto en el momento de dicha venta y la cantidad de dicho producto que se ha</text></g><g transform="translate(287 637.5) rotate(0 31 10.5)"><text x="0" y="15" font-family="Virgil, Segoe UI Emoji" font-size="16px" fill="#000000" text-anchor="start" style="white-space: pre;" direction="ltr">vendido.</text></g><g stroke-linecap="round" transform="translate(261 933) rotate(0 37.5 36)"><path d="M47.5 9.25 M47.5 9.25 C52.1 13.56, 55.37 16.76, 65.5 27.75 M47.5 9.25 C50.76 12.66, 55.04 16.6, 65.5 27.75 M65.5 27.75 C76.54 36.91, 74.81 36.59, 65.5 46.25 M65.5 27.75 C77.17 38.67, 75.6 37.9, 65.5 46.25 M65.5 46.25 C59.11 52.43, 52.99 59.65, 47.5 62.75 M65.5 46.25 C62.01 50.81, 56.4 53.89, 47.5 62.75 M47.5 62.75 C39.87 72.39, 36.11 70.82, 28.5 62.75 M47.5 62.75 C38.74 74.19, 39.42 72.98, 28.5 62.75 M28.5 62.75 C21.53 56.63, 14.72 49.56, 9.5 46.25 M28.5 62.75 C23.05 58.6, 19.94 53.83, 9.5 46.25 M9.5 46.25 C-0.13 35.07, -1.13 36.98, 9.5 27.75 M9.5 46.25 C-0.86 38.62, 1.51 38.07, 9.5 27.75 M9.5 27.75 C17.23 20.46, 24.67 13.43, 28.5 9.25 M9.5 27.75 C15.43 21.35, 20.36 17.63, 28.5 9.25 M28.5 9.25 C39.89 1.72, 36.74 -0.78, 47.5 9.25 M28.5 9.25 C37.79 -0.79, 39.75 1.55, 47.5 9.25" stroke="#000000" stroke-width="1" fill="none"></path></g><g transform="translate(523 943.5) rotate(0 9.5 10.5)"><text x="0" y="15" font-family="Virgil, Segoe UI Emoji" font-size="16px" fill="#000000" text-anchor="start" style="white-space: pre;" direction="ltr">1..1</text></g><g transform="translate(312 1109.5) rotate(0 9.5 10.5)"><text x="0" y="15" font-family="Virgil, Segoe UI Emoji" font-size="16px" fill="#000000" text-anchor="start" style="white-space: pre;" direction="ltr">1..1</text></g><g transform="translate(720.5 973.5) rotate(0 9.5 10.5)"><text x="0" y="15" font-family="Virgil, Segoe UI Emoji" font-size="16px" fill="#000000" text-anchor="start" style="white-space: pre;" direction="ltr">1..1</text></g><g transform="translate(947.5 1110.5) rotate(0 9.5 10.5)"><text x="0" y="15" font-family="Virgil, Segoe UI Emoji" font-size="16px" fill="#000000" text-anchor="start" style="white-space: pre;" direction="ltr">1..1</text></g><g stroke-linecap="round" transform="translate(936.25 924.75) rotate(0 37.5 36)"><path d="M47.5 9.25 M47.5 9.25 C50.77 13.33, 54.78 19.67, 65.5 27.75 M47.5 9.25 C54.19 14.17, 59.32 21.43, 65.5 27.75 M65.5 27.75 C76.01 37.95, 73.75 37.89, 65.5 46.25 M65.5 27.75 C74.7 39.25, 74.38 36.7, 65.5 46.25 M65.5 46.25 C62.2 47.93, 57.39 52.04, 47.5 62.75 M65.5 46.25 C58.62 52.28, 52.76 59.17, 47.5 62.75 M47.5 62.75 C37.24 70.28, 39.72 72.37, 28.5 62.75 M47.5 62.75 C36.93 72.8, 39.9 70.35, 28.5 62.75 M28.5 62.75 C20.12 58.41, 14.36 50.96, 9.5 46.25 M28.5 62.75 C20.64 56.21, 13.66 50.58, 9.5 46.25 M9.5 46.25 C0.89 35.14, 1.13 38.04, 9.5 27.75 M9.5 46.25 C-1.63 37.14, -0.12 36.96, 9.5 27.75 M9.5 27.75 C16.44 24.33, 18.52 18.37, 28.5 9.25 M9.5 27.75 C16.83 20.85, 23.84 14.21, 28.5 9.25 M28.5 9.25 C37.23 1.18, 39.09 0.6, 47.5 9.25 M28.5 9.25 C36.85 -2.13, 37.27 -0.86, 47.5 9.25" stroke="#000000" stroke-width="1" fill="none"></path></g><g stroke-linecap="round"><g transform="translate(974 997) rotate(0 0.6778318394136704 70.8368043842446)"><path d="M0.82 1.05 C1.11 24.49, 1.63 117.85, 1.55 141.12 M-0.21 0.55 C-0.01 23.65, 0.99 116.57, 0.89 139.59" stroke="#000000" stroke-width="1" fill="none"></path></g></g><mask></mask><g stroke-linecap="round"><g transform="translate(935 960) rotate(0 -112.15270668361336 -1.534324700497109)"><path d="M-0.18 0.23 C-37.33 -0.23, -186.11 -1.34, -223.46 -1.81 M-1.73 -0.69 C-38.94 -1.54, -186.89 -2.63, -224.13 -3.3" stroke="#000000" stroke-width="1" fill="none"></path></g></g><mask></mask><g stroke-linecap="round"><g transform="translate(300 1003) rotate(0 1.9192195903510196 66.82237786326556)"><path d="M-0.73 0.75 C-0.15 23.2, 3.73 111.68, 4.57 133.55 M1.09 0.1 C1.46 22.29, 3.48 109.6, 3.92 131.72" stroke="#000000" stroke-width="1" fill="none"></path></g></g><mask></mask><g stroke-linecap="round"><g transform="translate(337 972) rotate(0 104.49005995576272 -0.21518356744525136)"><path d="M0.26 -0.7 C35.39 -0.91, 175.13 -1.63, 210.04 -1.98 M-1.06 1.55 C34.07 1.6, 174.57 0.14, 209.63 -0.43" stroke="#000000" stroke-width="1" fill="none"></path></g></g><mask></mask><g transform="translate(1133.5 1372.5) rotate(0 30 13)"><text x="0" y="19" font-family="Virgil, Segoe UI Emoji" font-size="20px" fill="#000000" text-anchor="start" style="white-space: pre;" direction="ltr">código</text></g><g transform="translate(1143.5 1476.5) rotate(0 28.5 13)"><text x="0" y="19" font-family="Virgil, Segoe UI Emoji" font-size="20px" fill="#000000" text-anchor="start" style="white-space: pre;" direction="ltr">precio</text></g><g transform="translate(1144.5 1535.5) rotate(0 27.5 13)"><text x="0" y="19" font-family="Virgil, Segoe UI Emoji" font-size="20px" fill="#000000" text-anchor="start" style="white-space: pre;" direction="ltr">stock</text></g><g stroke-linecap="round"><g transform="translate(1127.5 1398) rotate(0 35.26181959509847 0.3136749994755519)"><path d="M0.24 -0.72 C11.89 -0.46, 57.75 0.71, 69.28 0.81 M-1.09 1.52 C11 1.51, 60.04 -0.83, 71.61 -0.89" stroke="#000000" stroke-width="1" fill="none"></path></g></g><mask></mask><g stroke-linecap="round" transform="translate(1097 1358) rotate(0 71 26.5)"><path d="M94.11 1.44 C105.21 2.62, 117.3 6.74, 125.16 10.08 C133.03 13.42, 139.09 17.19, 141.3 21.49 C143.51 25.79, 142.29 31.57, 138.41 35.88 C134.53 40.19, 127.16 44.68, 118.01 47.37 C108.86 50.06, 95.15 51.47, 83.51 52.02 C71.87 52.58, 59.23 51.95, 48.19 50.7 C37.16 49.44, 25.19 47.81, 17.31 44.47 C9.43 41.13, 3.11 35.2, 0.92 30.65 C-1.27 26.11, 0.39 21.33, 4.18 17.21 C7.97 13.09, 14.68 8.72, 23.65 5.94 C32.62 3.15, 45.59 1.14, 57.99 0.5 C70.4 -0.13, 91.21 1.6, 98.08 2.12 C104.95 2.64, 99.78 3.25, 99.21 3.61 M100.1 1.97 C110.91 3.7, 122.38 8.24, 129.51 11.79 C136.63 15.34, 141.74 19.15, 142.84 23.26 C143.94 27.36, 140.82 32.12, 136.1 36.4 C131.38 40.68, 124.08 46.09, 114.52 48.91 C104.96 51.73, 90.47 53.06, 78.74 53.31 C67.02 53.56, 55.12 52.15, 44.19 50.42 C33.27 48.68, 20.66 46.33, 13.2 42.92 C5.73 39.51, 0.56 34.66, -0.59 29.94 C-1.74 25.22, 1.32 18.95, 6.29 14.61 C11.25 10.26, 19.69 6.18, 29.19 3.86 C38.69 1.54, 51.6 1.15, 63.28 0.67 C74.95 0.19, 93.47 0.68, 99.24 0.98 C105.02 1.28, 98.2 1.67, 97.93 2.48" stroke="#000000" stroke-width="1" fill="none"></path></g><g stroke-linecap="round" transform="translate(1103 1409) rotate(0 71 26.5)"><path d="M54.17 1.15 C65.01 -0.08, 80.48 0.38, 91.84 1.62 C103.19 2.85, 114.16 5.36, 122.3 8.57 C130.43 11.78, 137.7 16.77, 140.64 20.87 C143.58 24.98, 143.46 28.96, 139.94 33.18 C136.42 37.41, 128.36 43.05, 119.53 46.24 C110.7 49.43, 98.27 51.43, 86.96 52.32 C75.66 53.22, 63.07 52.82, 51.72 51.6 C40.36 50.38, 27.23 48.32, 18.85 45.02 C10.47 41.72, 4.2 36.07, 1.45 31.79 C-1.3 27.51, -1.06 23.31, 2.37 19.32 C5.79 15.33, 11.96 11.17, 22 7.83 C32.05 4.49, 54.39 0.55, 62.64 -0.72 C70.88 -1.98, 71.41 -0.48, 71.49 0.25 M92.04 2.68 C103.48 3.65, 116.35 6.87, 124.35 9.88 C132.36 12.88, 137.78 16.4, 140.07 20.7 C142.36 25, 141.41 31.52, 138.09 35.68 C134.77 39.84, 128.68 42.64, 120.16 45.67 C111.63 48.69, 98.74 52.93, 86.94 53.82 C75.14 54.71, 60.61 52.76, 49.35 51.02 C38.08 49.28, 27.23 46.43, 19.36 43.37 C11.49 40.32, 5.03 36.75, 2.12 32.69 C-0.79 28.63, -1.34 23.25, 1.91 19.03 C5.16 14.81, 12.59 10.42, 21.61 7.36 C30.64 4.29, 44.47 1.77, 56.04 0.62 C67.61 -0.53, 85.12 0.06, 91.05 0.45 C96.98 0.83, 91.59 2.59, 91.64 2.92" stroke="#000000" stroke-width="1" fill="none"></path></g><g stroke-linecap="round" transform="translate(1101 1464) rotate(0 71 26.5)"><path d="M67.99 0.92 C79.3 0.33, 93.54 0.9, 104.05 2.89 C114.57 4.87, 124.66 8.96, 131.08 12.82 C137.5 16.67, 142.18 21.81, 142.56 26.03 C142.94 30.25, 138.79 34.47, 133.36 38.12 C127.93 41.78, 119.8 45.37, 109.99 47.96 C100.17 50.54, 86.46 53.42, 74.49 53.64 C62.52 53.85, 48.66 51.49, 38.16 49.26 C27.67 47.03, 18.02 43.94, 11.51 40.27 C5 36.61, -0.33 31.59, -0.89 27.28 C-1.46 22.97, 2.48 18.22, 8.14 14.4 C13.81 10.59, 22.37 6.69, 33.08 4.41 C43.8 2.12, 64.84 1.35, 72.43 0.71 C80.02 0.06, 78.38 0.12, 78.62 0.55 M40.64 3.88 C50.3 1.66, 64.91 -0.15, 76.47 -0.18 C88.03 -0.21, 100.14 1.07, 110.01 3.72 C119.89 6.37, 130.46 11.6, 135.71 15.74 C140.96 19.88, 142.19 24.38, 141.53 28.54 C140.87 32.69, 138.33 36.96, 131.75 40.68 C125.18 44.39, 113.07 48.71, 102.07 50.83 C91.08 52.94, 77.4 53.96, 65.78 53.37 C54.17 52.78, 42.01 50.01, 32.38 47.29 C22.75 44.56, 13.31 40.67, 8 37.03 C2.69 33.39, -0.12 29.83, 0.49 25.45 C1.11 21.06, 5.36 14.52, 11.68 10.72 C18 6.91, 33.51 3.65, 38.4 2.62 C43.28 1.58, 40.57 4.02, 41 4.51" stroke="#000000" stroke-width="1" fill="none"></path></g><g stroke-linecap="round" transform="translate(1103 1523) rotate(0 71 26.5)"><path d="M62.48 0.78 C73.49 -0.16, 87.09 0.67, 97.99 2.37 C108.89 4.06, 120.54 7.66, 127.9 10.97 C135.26 14.28, 140.8 17.86, 142.18 22.23 C143.55 26.59, 140.92 32.94, 136.14 37.16 C131.36 41.39, 122.68 45.02, 113.5 47.57 C104.33 50.11, 92.8 51.83, 81.07 52.43 C69.35 53.04, 54.3 53.01, 43.16 51.22 C32.01 49.43, 21.36 45.19, 14.19 41.7 C7.02 38.21, 1.6 34.41, 0.13 30.28 C-1.34 26.15, 0.77 21.18, 5.39 16.9 C10.01 12.62, 17.43 7.46, 27.86 4.6 C38.29 1.74, 60.47 0.29, 67.96 -0.25 C75.44 -0.79, 72.72 1.03, 72.77 1.36 M91.6 2.33 C102.69 2.86, 113.88 4.88, 121.82 8.05 C129.76 11.21, 136.14 17.09, 139.23 21.32 C142.33 25.55, 143.45 29.16, 140.38 33.44 C137.32 37.72, 129.59 44.01, 120.83 47.01 C112.07 50.01, 99.28 50.8, 87.82 51.45 C76.37 52.1, 63.35 51.94, 52.11 50.92 C40.87 49.91, 28.93 48.26, 20.37 45.34 C11.82 42.42, 3.94 37.68, 0.77 33.39 C-2.39 29.1, -2.17 23.91, 1.39 19.58 C4.95 15.25, 13.62 10.69, 22.15 7.43 C30.68 4.17, 41.21 0.89, 52.57 0.02 C63.94 -0.85, 83.87 2.19, 90.33 2.22 C96.8 2.24, 91.6 -0.24, 91.36 0.16" stroke="#000000" stroke-width="1" fill="none"></path></g><g transform="translate(1128.5 1420.5) rotate(0 51.5 13)"><text x="0" y="19" font-family="Virgil, Segoe UI Emoji" font-size="20px" fill="#000000" text-anchor="start" style="white-space: pre;" direction="ltr">descripción</text></g><g stroke-linecap="round" transform="translate(945.5 1277) rotate(0 37.5 36)"><path d="M47.5 9.25 M47.5 9.25 C52.22 16.48, 60.41 20.91, 65.5 27.75 M47.5 9.25 C54.33 16.17, 61.06 22.92, 65.5 27.75 M65.5 27.75 C74.66 36.4, 76.73 38.2, 65.5 46.25 M65.5 27.75 C72.7 34.98, 77.21 35.83, 65.5 46.25 M65.5 46.25 C59.82 53.19, 49.86 58.38, 47.5 62.75 M65.5 46.25 C62.19 50.72, 58.6 54.04, 47.5 62.75 M47.5 62.75 C38.46 71.3, 37.53 73.8, 28.5 62.75 M47.5 62.75 C36.32 71.32, 36.44 71.72, 28.5 62.75 M28.5 62.75 C22.93 55.51, 14.66 51.76, 9.5 46.25 M28.5 62.75 C24.98 59.98, 19.34 56.16, 9.5 46.25 M9.5 46.25 C1.57 35.93, -0.81 37.98, 9.5 27.75 M9.5 46.25 C-0.8 34.88, 0.42 37.79, 9.5 27.75 M9.5 27.75 C14.34 21.94, 20.2 19.91, 28.5 9.25 M9.5 27.75 C14.96 22.65, 19.72 17.34, 28.5 9.25 M28.5 9.25 C37.27 0.75, 36.02 1.85, 47.5 9.25 M28.5 9.25 C40.09 -2.27, 35.71 -0.48, 47.5 9.25" stroke="#000000" stroke-width="1" fill="none"></path></g><g stroke-linecap="round"><g transform="translate(983 1278) rotate(0 -1.7584153244923755 -40.54772428162397)"><path d="M0.54 -0.27 C0.23 -13.7, -2.63 -67.55, -3.07 -80.83 M-0.64 -1.45 C-1.01 -14.73, -3.76 -66.86, -4.06 -79.72" stroke="#000000" stroke-width="1" fill="none"></path></g></g><mask></mask><g stroke-linecap="round"><g transform="translate(983 1347) rotate(0 1.9563513383734517 47.6468858814053)"><path d="M0.79 0.01 C1.54 15.9, 3.61 78.95, 4.17 94.86 M-0.26 -1.03 C0.46 15.1, 3.13 80.59, 3.83 96.32" stroke="#000000" stroke-width="1" fill="none"></path></g></g><mask></mask><g transform="translate(996.5 1410.5) rotate(0 12.5 10.5)"><text x="0" y="15" font-family="Virgil, Segoe UI Emoji" font-size="16px" fill="#000000" text-anchor="start" style="white-space: pre;" direction="ltr">1..N</text></g><g transform="translate(950.5 1201.5) rotate(0 9.5 10.5)"><text x="0" y="15" font-family="Virgil, Segoe UI Emoji" font-size="16px" fill="#000000" text-anchor="start" style="white-space: pre;" direction="ltr">1..1</text></g><g transform="translate(944 1769.5) rotate(0 48.5 13)"><text x="0" y="19" font-family="Virgil, Segoe UI Emoji" font-size="20px" fill="#000000" text-anchor="start" style="white-space: pre;" direction="ltr">categoría</text></g><g stroke-linecap="round" transform="translate(908.5 1755) rotate(0 79.5 29)"><path d="M14.5 0 M14.5 0 C59.91 -0.98, 108.03 -0.88, 144.5 0 M14.5 0 C66.4 0.75, 117.83 0.86, 144.5 0 M144.5 0 C155.12 -1.56, 159.73 4.72, 159 14.5 M144.5 0 C156.22 -0.95, 159.44 2.93, 159 14.5 M159 14.5 C159.73 25.17, 160.49 36.84, 159 43.5 M159 14.5 C158.23 25.38, 158.87 34.28, 159 43.5 M159 43.5 C159.08 53.19, 154.49 56.48, 144.5 58 M159 43.5 C160.63 51.16, 154.1 59.16, 144.5 58 M144.5 58 C105.13 58.51, 68.13 57.52, 14.5 58 M144.5 58 C119.21 58.81, 92.25 58.1, 14.5 58 M14.5 58 C5.32 57.59, 0.1 52.87, 0 43.5 M14.5 58 C6.18 57.49, 0.14 55.33, 0 43.5 M0 43.5 C-1.55 31.6, 0.34 20.47, 0 14.5 M0 43.5 C0.02 34.04, -0.21 26.45, 0 14.5 M0 14.5 C1.82 4.78, 5.64 -0.07, 14.5 0 M0 14.5 C0.07 3.52, 6.45 -0.07, 14.5 0" stroke="#000000" stroke-width="1" fill="none"></path></g><g stroke-linecap="round"><g transform="translate(1063 1470) rotate(0 17.688205405520193 -41.84672071476473)"><path d="M1.1 -0.17 C6.79 -13.85, 29.69 -68.05, 35.16 -81.61 M0.22 -1.31 C5.67 -15.4, 28.29 -69.81, 34.3 -83.52" stroke="#000000" stroke-width="1" fill="none"></path></g></g><mask></mask><g stroke-linecap="round"><g transform="translate(1062 1474) rotate(0 20.636460341708812 -18.40830339081583)"><path d="M0.46 0.79 C7.37 -5.4, 35.28 -31.42, 42.03 -37.61 M-0.76 0.16 C5.94 -5.84, 33.76 -29.98, 41.1 -36.39" stroke="#000000" stroke-width="1" fill="none"></path></g></g><mask></mask><g stroke-linecap="round"><g transform="translate(1062 1473) rotate(0 19.971340192900925 9.182280114870423)"><path d="M-0.11 0.79 C6.66 3.58, 34.64 14.08, 41.57 17.13 M-1.62 0.16 C4.86 3.04, 33.39 15.35, 40.39 18.21" stroke="#000000" stroke-width="1" fill="none"></path></g></g><mask></mask><g stroke-linecap="round"><g transform="translate(1065 1472) rotate(0 19.30794952412134 40.471517496360434)"><path d="M-0.35 0.68 C5.85 14.29, 30.48 67.81, 36.85 80.95 M1.67 0 C8.24 13.34, 33.06 65.9, 38.96 79.32" stroke="#000000" stroke-width="1" fill="none"></path></g></g><mask></mask><g stroke-linecap="round" transform="translate(950.5 1588) rotate(0 37.5 36)"><path d="M47.5 9.25 M47.5 9.25 C52.6 14.06, 59.64 22.66, 65.5 27.75 M47.5 9.25 C51.8 14.2, 56.94 18.08, 65.5 27.75 M65.5 27.75 C74.58 35.08, 76.3 37.45, 65.5 46.25 M65.5 27.75 C74.12 35.19, 77.07 38.78, 65.5 46.25 M65.5 46.25 C57.81 53.23, 52.98 59.67, 47.5 62.75 M65.5 46.25 C60.98 49.77, 58.67 53.73, 47.5 62.75 M47.5 62.75 C36.27 71.33, 36.97 71.97, 28.5 62.75 M47.5 62.75 C36.18 74.23, 36.18 70.1, 28.5 62.75 M28.5 62.75 C23.61 58.21, 13.98 51.08, 9.5 46.25 M28.5 62.75 C23.91 59.79, 18.93 54.33, 9.5 46.25 M9.5 46.25 C0.37 38.97, 0.02 37.86, 9.5 27.75 M9.5 46.25 C-0.36 35.94, 0.08 37.83, 9.5 27.75 M9.5 27.75 C17.5 19.85, 24.69 14.15, 28.5 9.25 M9.5 27.75 C16.71 21.1, 23.27 14.43, 28.5 9.25 M28.5 9.25 C38.12 -0.31, 38.37 -1.18, 47.5 9.25 M28.5 9.25 C37.74 -0.74, 39.76 2.08, 47.5 9.25" stroke="#000000" stroke-width="1" fill="none"></path></g><g stroke-linecap="round"><g transform="translate(990 1591) rotate(0 -0.5373497655801884 -45.09317634929903)"><path d="M-0.95 -0.99 C-1 -16.4, -1.26 -76.48, -1.26 -91.29 M0.75 1.1 C0.69 -13.62, -1.5 -74.46, -1.83 -89.9" stroke="#000000" stroke-width="1" fill="none"></path></g></g><mask></mask><g stroke-linecap="round"><g transform="translate(991 1657) rotate(0 0.1484594335958036 49.088357798736524)"><path d="M-0.76 0.5 C-0.52 16.55, 0.22 80.95, 0.56 96.95 M1.05 -0.29 C1.16 15.91, -0.55 82.15, -0.62 98.47" stroke="#000000" stroke-width="1" fill="none"></path></g></g><mask></mask><g stroke-linecap="round"><g transform="translate(477 889) rotate(0 71.83961229436102 22.089128829836852)"><path d="M-0.37 0.83 C23.81 7.82, 120.22 35.61, 144.05 42.62 M1.64 0.22 C25.83 7.33, 120.32 36.63, 143.65 43.96" stroke="#000000" stroke-width="1" fill="none"></path></g></g><mask></mask><g transform="translate(952.5 1503.5) rotate(0 16 10.5)"><text x="0" y="15" font-family="Virgil, Segoe UI Emoji" font-size="16px" fill="#000000" text-anchor="start" style="white-space: pre;" direction="ltr">0..N</text></g><g transform="translate(998.5 1724.5) rotate(0 9.5 10.5)"><text x="0" y="15" font-family="Virgil, Segoe UI Emoji" font-size="16px" fill="#000000" text-anchor="start" style="white-space: pre;" direction="ltr">1..1</text></g><g stroke-linecap="round" transform="translate(1104 1701.5) rotate(0 71 26.5)"><path d="M39.36 3.48 C48.89 1.09, 63.3 -0.51, 74.93 -0.36 C86.56 -0.21, 99.16 1.82, 109.15 4.4 C119.13 6.99, 129.43 11.21, 134.82 15.16 C140.22 19.11, 142.27 23.89, 141.52 28.08 C140.76 32.27, 136.49 36.76, 130.29 40.32 C124.09 43.89, 114.85 47.2, 104.34 49.46 C93.83 51.73, 79.12 54.15, 67.21 53.91 C55.3 53.66, 42.72 50.7, 32.89 48 C23.06 45.31, 13.63 41.59, 8.24 37.75 C2.84 33.91, 0.12 29.25, 0.53 24.95 C0.94 20.64, 3 15.79, 10.71 11.94 C18.42 8.08, 39.48 3.68, 46.8 1.81 C54.12 -0.07, 54.21 0.25, 54.64 0.68 M44.67 1.73 C54.55 -0.08, 68.59 -0.08, 80.3 0.76 C92 1.61, 105.31 4.37, 114.91 6.78 C124.52 9.19, 133.48 11.14, 137.95 15.24 C142.42 19.33, 143.33 26.57, 141.74 31.35 C140.15 36.12, 135.55 40.49, 128.4 43.88 C121.25 47.27, 109.74 50.22, 98.81 51.68 C87.89 53.15, 74.5 53.13, 62.88 52.67 C51.26 52.2, 38.88 51.38, 29.09 48.92 C19.3 46.46, 8.96 42.29, 4.15 37.91 C-0.67 33.53, -1.52 27.14, 0.2 22.65 C1.92 18.15, 7.07 14.55, 14.46 10.93 C21.85 7.32, 39.65 2.16, 44.53 0.96 C49.42 -0.24, 43.23 3.14, 43.77 3.74" stroke="#000000" stroke-width="1" fill="none"></path></g><g transform="translate(1139.5 1713) rotate(0 32.5 13)"><text x="0" y="19" font-family="Virgil, Segoe UI Emoji" font-size="20px" fill="#000000" text-anchor="start" style="white-space: pre;" direction="ltr">nombre</text></g><g stroke-linecap="round" transform="translate(1106 1830.5) rotate(0 71 26.5)"><path d="M44.29 1.45 C54.25 -0.53, 68.16 -0.63, 79.97 0.2 C91.77 1.03, 105.6 3.86, 115.12 6.43 C124.64 9, 132.69 11.71, 137.09 15.65 C141.48 19.59, 143.19 25.54, 141.47 30.09 C139.75 34.63, 133.9 39.31, 126.79 42.91 C119.68 46.51, 109.84 50.05, 98.82 51.69 C87.79 53.34, 72.34 53.33, 60.62 52.77 C48.9 52.21, 37.87 51.13, 28.49 48.33 C19.1 45.54, 8.86 40.23, 4.32 35.99 C-0.22 31.75, -0.54 27.15, 1.25 22.88 C3.04 18.6, 6.61 14.09, 15.08 10.34 C23.55 6.59, 44.47 2.11, 52.07 0.39 C59.67 -1.33, 60.5 -0.56, 60.68 0 M66.23 0.38 C76.97 -0.46, 91.31 -0.18, 101.89 1.71 C112.48 3.61, 122.87 7.78, 129.73 11.75 C136.59 15.72, 142.51 21.14, 143.06 25.51 C143.61 29.89, 138.61 34.23, 133.05 38.01 C127.49 41.8, 119.36 45.8, 109.69 48.23 C100.02 50.66, 86.88 52.5, 75.01 52.61 C63.14 52.72, 48.94 50.83, 38.48 48.87 C28.02 46.91, 18.88 44.11, 12.25 40.86 C5.62 37.6, -0.45 33.49, -1.27 29.36 C-2.09 25.22, 1.81 20, 7.35 16.02 C12.88 12.04, 22 8.17, 31.93 5.48 C41.85 2.79, 61.16 0.46, 66.91 -0.12 C72.66 -0.69, 66.42 1.41, 66.44 2.01" stroke="#000000" stroke-width="1" fill="none"></path></g><g transform="translate(1131.5 1842) rotate(0 51.5 13)"><text x="0" y="19" font-family="Virgil, Segoe UI Emoji" font-size="20px" fill="#000000" text-anchor="start" style="white-space: pre;" direction="ltr">descripción</text></g><g stroke-linecap="round"><g transform="translate(1066 1760) rotate(0 18.52035358063881 -15.712308986112475)"><path d="M-0.49 -0.36 C5.63 -5.72, 31.15 -26.11, 37.53 -31.06 M1.46 -1.6 C7.31 -6.24, 30.43 -24.5, 36.33 -29.56" stroke="#000000" stroke-width="1" fill="none"></path></g></g><mask></mask><g stroke-linecap="round"><g transform="translate(1066 1808) rotate(0 19.54196598004546 24.019822776205842)"><path d="M0.54 0.57 C7.01 8.43, 33.2 40.2, 39.72 48.21 M-0.63 -0.17 C5.65 7.81, 32.5 38.4, 39.15 46.2" stroke="#000000" stroke-width="1" fill="none"></path></g></g><mask></mask><g transform="translate(85.5 1406) rotate(0 9 13)"><text x="0" y="19" font-family="Virgil, Segoe UI Emoji" font-size="20px" fill="#000000" text-anchor="start" style="white-space: pre;" direction="ltr">id</text></g><g stroke-linecap="round"><g transform="translate(60.5 1432.5) rotate(0 35.352094953022856 -0.11581097356975079)"><path d="M1.18 0.89 C13.02 0.8, 58.78 -0.81, 70.36 -1.12 M0.35 0.31 C12.11 0.38, 57.96 -0.09, 69.6 -0.18" stroke="#000000" stroke-width="1" fill="none"></path></g></g><mask></mask><g stroke-linecap="round" transform="translate(30 1392.5) rotate(0 71 26.5)"><path d="M38.1 3.1 C47.66 0.86, 63.58 -1.07, 75.39 -0.84 C87.2 -0.61, 99.05 1.85, 108.95 4.47 C118.85 7.09, 129.29 11.07, 134.79 14.88 C140.29 18.69, 142.63 22.87, 141.96 27.31 C141.29 31.74, 137.3 37.55, 130.76 41.5 C124.23 45.45, 113.48 49.07, 102.75 51.02 C92.03 52.98, 78.1 53.75, 66.41 53.24 C54.72 52.73, 42.26 50.39, 32.61 47.98 C22.96 45.58, 13.86 42.69, 8.53 38.8 C3.19 34.92, 0.15 29.09, 0.6 24.68 C1.05 20.27, 2.9 16.18, 11.23 12.33 C19.57 8.49, 42.14 3.58, 50.62 1.63 C59.11 -0.32, 61.94 0.2, 62.16 0.66 M71.19 0.37 C82.54 0.26, 95.75 2.93, 105.82 4.82 C115.89 6.71, 125.36 8.15, 131.62 11.71 C137.88 15.26, 143.15 21.34, 143.38 26.16 C143.61 30.98, 139.11 36.64, 133.02 40.63 C126.92 44.61, 116.85 47.91, 106.82 50.07 C96.79 52.22, 84.38 53.86, 72.85 53.56 C61.32 53.26, 48.17 50.63, 37.65 48.25 C27.14 45.87, 16.25 42.86, 9.76 39.29 C3.26 35.72, -1.37 30.87, -1.32 26.82 C-1.27 22.77, 4.08 18.76, 10.05 14.99 C16.02 11.21, 24.62 6.71, 34.48 4.17 C44.35 1.64, 63.15 0.17, 69.24 -0.22 C75.33 -0.61, 71.11 1.24, 71.03 1.85" stroke="#000000" stroke-width="1" fill="none"></path></g><g stroke-linecap="round"><g transform="translate(175 1419) rotate(0 26.869053358454266 26.89466594545172)"><path d="M0.13 -0.27 C8.8 8.77, 43.71 44.67, 52.87 53.81 M-1.26 -1.46 C7.69 7.81, 45.62 46.25, 55 55.24" stroke="#000000" stroke-width="1" fill="none"></path></g></g><mask></mask><g stroke-linecap="round" transform="translate(603.25 1435.75) rotate(0 37.5 36)"><path d="M47.5 9.25 M47.5 9.25 C51.99 13.98, 56 19.06, 65.5 27.75 M47.5 9.25 C51.7 14.09, 55.11 17.84, 65.5 27.75 M65.5 27.75 C73.57 38.24, 74.76 38.89, 65.5 46.25 M65.5 27.75 C75.57 35.35, 76.26 38.53, 65.5 46.25 M65.5 46.25 C60.85 50.25, 54.41 58.58, 47.5 62.75 M65.5 46.25 C58.86 52.17, 52.38 59.29, 47.5 62.75 M47.5 62.75 C39.36 71.68, 37.14 73.4, 28.5 62.75 M47.5 62.75 C39.87 71.8, 37.18 70.2, 28.5 62.75 M28.5 62.75 C24.61 58.39, 18.22 52.9, 9.5 46.25 M28.5 62.75 C23.48 59.27, 18.51 54.15, 9.5 46.25 M9.5 46.25 C0.21 36.72, 0.54 36.28, 9.5 27.75 M9.5 46.25 C-0.17 38.87, -2 36.08, 9.5 27.75 M9.5 27.75 C15.09 22.92, 23.89 16.19, 28.5 9.25 M9.5 27.75 C14.45 23.36, 19.57 17.8, 28.5 9.25 M28.5 9.25 C36.62 -1.88, 37.08 1.53, 47.5 9.25 M28.5 9.25 C40.04 0.42, 40.14 1.85, 47.5 9.25" stroke="#000000" stroke-width="1" fill="none"></path></g><g stroke-linecap="round" transform="translate(265.5 1281) rotate(0 37.5 36)"><path d="M47.5 9.25 M47.5 9.25 C51.6 13.29, 57.47 20.47, 65.5 27.75 M47.5 9.25 C53.84 15.35, 60.6 22.47, 65.5 27.75 M65.5 27.75 C76.82 36.7, 75.25 36.74, 65.5 46.25 M65.5 27.75 C75.39 38.71, 77.14 36.39, 65.5 46.25 M65.5 46.25 C57.74 52.66, 50.9 57.01, 47.5 62.75 M65.5 46.25 C60.39 49.92, 56.73 54.53, 47.5 62.75 M47.5 62.75 C39.03 72.63, 38.7 71.64, 28.5 62.75 M47.5 62.75 C38.15 73.52, 37.28 71.82, 28.5 62.75 M28.5 62.75 C21.04 57, 14.4 50.85, 9.5 46.25 M28.5 62.75 C22.23 57.96, 16.89 51.25, 9.5 46.25 M9.5 46.25 C-0.24 36.52, -0.89 35.64, 9.5 27.75 M9.5 46.25 C1.51 37.42, -1.98 36.89, 9.5 27.75 M9.5 27.75 C16.07 19.73, 23.81 12.52, 28.5 9.25 M9.5 27.75 C14.36 22.93, 17.55 19.24, 28.5 9.25 M28.5 9.25 C38.19 0.69, 36.71 -1.37, 47.5 9.25 M28.5 9.25 C39.6 -0.14, 39.8 0.16, 47.5 9.25" stroke="#000000" stroke-width="1" fill="none"></path></g><g stroke-linecap="round"><g transform="translate(303 1282) rotate(0 -0.3943720999732818 -43.53823765031996)"><path d="M0.69 -0.48 C0.5 -14.84, -0.4 -72.25, -1.03 -86.59 M-0.41 -1.78 C-0.68 -15.94, -1.41 -71.42, -1.47 -85.37" stroke="#000000" stroke-width="1" fill="none"></path></g></g><mask></mask><g stroke-linecap="round"><g transform="translate(304 1445) rotate(0 -0.5238224802636751 -46.85673322565856)"><path d="M0.64 0.48 C0.57 -15.1, -0.49 -78.43, -0.48 -94.2 M-0.48 -0.31 C-0.75 -15.74, -1.82 -77.77, -1.67 -93.29" stroke="#000000" stroke-width="1" fill="none"></path></g></g><mask></mask><g stroke-linecap="round"><g transform="translate(387 1474) rotate(0 109.54750384332613 -0.798516044167286)"><path d="M0.98 -0.5 C37.13 -0.58, 180.57 -1.22, 216.92 -1.22 M0.03 -1.8 C36.54 -1.64, 182.59 0.34, 219.06 0.2" stroke="#000000" stroke-width="1" fill="none"></path></g></g><mask></mask><g stroke-linecap="round"><g transform="translate(673 1474) rotate(0 114.14443952430963 -1.5979710448533524)"><path d="M0.64 -0.03 C38.75 -0.63, 190.99 -2.58, 228.77 -3.16 M-0.48 -1.1 C37.53 -1.53, 190.44 -1.48, 228.22 -1.71" stroke="#000000" stroke-width="1" fill="none"></path></g></g><mask></mask><g transform="translate(267.5 1200.5) rotate(0 16 10.5)"><text x="0" y="15" font-family="Virgil, Segoe UI Emoji" font-size="16px" fill="#000000" text-anchor="start" style="white-space: pre;" direction="ltr">0..N</text></g><g transform="translate(312 1419.5) rotate(0 9.5 10.5)"><text x="0" y="15" font-family="Virgil, Segoe UI Emoji" font-size="16px" fill="#000000" text-anchor="start" style="white-space: pre;" direction="ltr">1..1</text></g><g transform="translate(323 1278.5) rotate(0 27 10.5)"><text x="0" y="15" font-family="Virgil, Segoe UI Emoji" font-size="16px" fill="#000000" text-anchor="start" style="white-space: pre;" direction="ltr">compra</text></g><g transform="translate(163 1341.5) rotate(0 66.5 10.5)"><text x="0" y="15" font-family="Virgil, Segoe UI Emoji" font-size="16px" fill="#000000" text-anchor="start" style="white-space: pre;" direction="ltr">es realizada por</text></g><g transform="translate(866.5 1445.5) rotate(0 12.5 10.5)"><text x="0" y="15" font-family="Virgil, Segoe UI Emoji" font-size="16px" fill="#000000" text-anchor="start" style="white-space: pre;" direction="ltr">1..N</text></g><g transform="translate(394.5 1474.5) rotate(0 16 10.5)"><text x="0" y="15" font-family="Virgil, Segoe UI Emoji" font-size="16px" fill="#000000" text-anchor="start" style="white-space: pre;" direction="ltr">0..N</text></g><g transform="translate(79.5 1478) rotate(0 28 13)"><text x="0" y="19" font-family="Virgil, Segoe UI Emoji" font-size="20px" fill="#000000" text-anchor="start" style="white-space: pre;" direction="ltr">fecha</text></g><g stroke-linecap="round" transform="translate(30 1464.5) rotate(0 71 26.5)"><path d="M55.74 0.78 C66.49 -0.38, 81.22 -0.01, 92.52 1.25 C103.82 2.52, 115.4 5.19, 123.55 8.36 C131.7 11.53, 138.9 15.9, 141.41 20.27 C143.92 24.65, 142.39 30.36, 138.62 34.62 C134.85 38.88, 127.63 43, 118.81 45.83 C109.98 48.67, 97.22 50.56, 85.66 51.63 C74.11 52.71, 60.78 53.47, 49.48 52.29 C38.18 51.1, 25.92 47.91, 17.85 44.53 C9.79 41.14, 3.56 36.39, 1.07 31.98 C-1.41 27.58, -0.81 22.14, 2.95 18.1 C6.71 14.06, 13.67 10.87, 23.64 7.73 C33.6 4.59, 55.28 0.33, 62.75 -0.75 C70.22 -1.82, 68.4 0.84, 68.47 1.28 M87.13 -0.52 C98.18 -0.06, 110.24 3.51, 119.05 6.96 C127.87 10.41, 136.66 16.04, 140 20.18 C143.35 24.33, 141.99 27.85, 139.12 31.81 C136.26 35.77, 130.75 40.46, 122.79 43.93 C114.84 47.39, 102.66 51.29, 91.41 52.6 C80.17 53.91, 67.01 53.16, 55.33 51.79 C43.64 50.42, 29.84 47.47, 21.3 44.39 C12.75 41.31, 7.49 37.45, 4.06 33.31 C0.63 29.18, -1.7 23.88, 0.71 19.59 C3.12 15.29, 10.04 10.41, 18.52 7.53 C27 4.66, 40.13 3.55, 51.59 2.33 C63.06 1.12, 81.13 0.37, 87.3 0.23 C93.47 0.09, 89.01 0.88, 88.63 1.51" stroke="#000000" stroke-width="1" fill="none"></path></g><g stroke-linecap="round"><g transform="translate(228 1472) rotate(0 -26.739333683801817 6.823324668388864)"><path d="M0.78 0.62 C-8.25 2.55, -44.73 10.39, -53.89 12.14 M-0.27 -0.1 C-9.39 2, -45.21 11.74, -54.26 13.75" stroke="#000000" stroke-width="1" fill="none"></path></g></g><mask></mask><g transform="translate(76.5 1559) rotate(0 49.5 13)"><text x="0" y="19" font-family="Virgil, Segoe UI Emoji" font-size="20px" fill="#000000" text-anchor="start" style="white-space: pre;" direction="ltr">descuento</text></g><g stroke-linecap="round" transform="translate(51 1547.5) rotate(0 71 26.5)"><path d="M91.9 1.3 C103.03 2.06, 115.37 5.29, 123.24 8.4 C131.11 11.51, 136.47 15.66, 139.13 19.98 C141.79 24.29, 142.42 29.99, 139.2 34.29 C135.97 38.6, 128.51 42.92, 119.78 45.8 C111.05 48.69, 98.36 50.45, 86.83 51.62 C75.3 52.78, 61.68 54.02, 50.6 52.8 C39.52 51.59, 28.49 47.55, 20.33 44.33 C12.17 41.11, 4.48 37.73, 1.66 33.5 C-1.17 29.26, -0.05 23.15, 3.4 18.91 C6.84 14.68, 13.84 11.25, 22.31 8.08 C30.78 4.9, 41.8 1.07, 54.22 -0.13 C66.64 -1.33, 89.09 0.22, 96.83 0.87 C104.58 1.52, 101.09 3.17, 100.67 3.76 M64.74 1.28 C76.02 0.68, 91.09 0.56, 101.82 2.2 C112.56 3.83, 122.42 7.25, 129.16 11.1 C135.9 14.95, 141.28 20.99, 142.25 25.29 C143.22 29.59, 140.07 32.98, 134.99 36.89 C129.92 40.81, 121.66 46.07, 111.78 48.77 C101.9 51.46, 87.5 52.86, 75.73 53.07 C63.97 53.27, 51.49 52.06, 41.2 50.01 C30.9 47.97, 20.85 44.56, 13.97 40.8 C7.08 37.04, 1.12 31.45, -0.12 27.43 C-1.36 23.41, 1.58 20.55, 6.53 16.67 C11.47 12.78, 19.66 7.09, 29.53 4.11 C39.41 1.14, 59.66 -0.44, 65.77 -1.19 C71.88 -1.93, 66.38 -1.13, 66.2 -0.37" stroke="#000000" stroke-width="1" fill="none"></path></g><g stroke-linecap="round"><g transform="translate(226 1473) rotate(0 -18.877946622297145 45.6342531960737)"><path d="M0.32 0.83 C-5.83 15.89, -31.95 76.04, -38.08 91.04 M-0.96 0.22 C-6.66 14.9, -29.94 74.69, -35.94 89.47" stroke="#000000" stroke-width="1" fill="none"></path></g></g><mask></mask><g transform="translate(120.5 1629) rotate(0 28.5 13)"><text x="0" y="19" font-family="Virgil, Segoe UI Emoji" font-size="20px" fill="#000000" text-anchor="start" style="white-space: pre;" direction="ltr">precio</text></g><g stroke-linecap="round" transform="translate(77 1615.5) rotate(0 71 26.5)"><path d="M71.72 -0.92 C82.66 -1.34, 95.56 0.9, 105.74 3.41 C115.93 5.93, 126.86 10.45, 132.82 14.19 C138.79 17.93, 141.64 21.47, 141.54 25.86 C141.44 30.25, 138.13 36.52, 132.2 40.53 C126.28 44.55, 116.07 47.96, 105.98 49.95 C95.89 51.94, 83.61 52.66, 71.67 52.45 C59.74 52.25, 44.59 50.79, 34.35 48.72 C24.11 46.66, 15.85 43.66, 10.22 40.06 C4.59 36.47, 0.71 31.6, 0.58 27.17 C0.44 22.73, 3.64 17.46, 9.41 13.46 C15.17 9.46, 24.15 5.34, 35.18 3.17 C46.21 1.01, 68.05 0.89, 75.6 0.48 C83.14 0.07, 80.59 0.42, 80.46 0.73 M55.51 -0.35 C66.26 -1.23, 81.21 0.95, 92.54 2.5 C103.86 4.05, 115.47 5.7, 123.47 8.94 C131.47 12.19, 138.05 17.42, 140.56 21.95 C143.06 26.49, 142.4 32, 138.5 36.16 C134.61 40.32, 126.19 44.27, 117.2 46.91 C108.22 49.55, 96.17 51.2, 84.61 51.98 C73.05 52.75, 59.13 52.98, 47.83 51.55 C36.53 50.13, 24.74 46.84, 16.81 43.42 C8.87 40.01, 2.47 35.34, 0.23 31.08 C-2 26.83, -0.33 22.18, 3.39 17.91 C7.11 13.64, 13.59 8.57, 22.56 5.47 C31.52 2.36, 51.18 0.04, 57.16 -0.75 C63.13 -1.54, 58.47 0.03, 58.43 0.72" stroke="#000000" stroke-width="1" fill="none"></path></g><g stroke-linecap="round"><g transform="translate(225 1475) rotate(0 -3.0552581989299483 82.96147945235487)"><path d="M-1.01 0.01 C-2.31 27.84, -5.88 139.28, -6.77 166.95 M0.66 -1.03 C-0.34 26.48, -3.14 137.26, -4.46 165.33" stroke="#000000" stroke-width="1" fill="none"></path></g></g><mask></mask><g transform="translate(591.5 1330) rotate(0 43 13)"><text x="0" y="19" font-family="Virgil, Segoe UI Emoji" font-size="20px" fill="#000000" text-anchor="start" style="white-space: pre;" direction="ltr">cantidad</text></g><g stroke-linecap="round" transform="translate(560 1317.5) rotate(0 71 26.5)"><path d="M81.14 0.65 C92.38 0.86, 106.35 2.19, 115.72 4.93 C125.09 7.67, 133.15 12.87, 137.36 17.1 C141.56 21.33, 142.62 26.05, 140.95 30.31 C139.28 34.57, 134.48 39.17, 127.35 42.65 C120.22 46.13, 109.36 49.49, 98.17 51.2 C86.98 52.9, 71.93 53.39, 60.2 52.89 C48.46 52.39, 36.86 50.81, 27.74 48.21 C18.62 45.61, 10.02 41.56, 5.5 37.28 C0.98 33.01, -0.9 27.1, 0.6 22.55 C2.09 18.01, 7.07 13.56, 14.47 10.01 C21.87 6.45, 32.66 2.71, 45.02 1.23 C57.38 -0.25, 80.17 0.99, 88.63 1.1 C97.09 1.22, 95.97 1.59, 95.78 1.94 M47.55 0.01 C57.93 -1.61, 74.15 -0.24, 85.78 0.97 C97.4 2.18, 108.8 4.66, 117.29 7.27 C125.79 9.87, 133.07 12.31, 136.75 16.6 C140.43 20.89, 141.5 28.62, 139.37 33.02 C137.25 37.42, 131.67 39.65, 123.99 42.98 C116.3 46.31, 104.41 51.21, 93.26 53.01 C82.1 54.82, 68.55 55.06, 57.06 53.8 C45.57 52.55, 33.01 48.8, 24.34 45.47 C15.67 42.14, 8.8 37.79, 5.04 33.81 C1.28 29.82, -0.53 25.56, 1.78 21.57 C4.08 17.59, 11.29 13.33, 18.88 9.88 C26.48 6.44, 42.28 2.44, 47.32 0.9 C52.37 -0.64, 48.8 0.24, 49.15 0.63" stroke="#000000" stroke-width="1" fill="none"></path></g><g stroke-linecap="round"><g transform="translate(641 1438) rotate(0 -2.427481244876958 -31.747171456739352)"><path d="M-0.23 0.86 C-0.81 -9.72, -4.19 -53.68, -4.62 -64.35 M-1.82 0.26 C-1.89 -10.07, -2.05 -52.11, -2.23 -63" stroke="#000000" stroke-width="1" fill="none"></path></g></g><mask></mask></svg>